<ttFont>
    <TTGlyph name=".ttfautohint" xMin="0" yMin="0" xMax="0" yMax="0">
      <contour>
        <pt x="0" y="0" on="1"/>
      </contour>
    </TTGlyph>
    <TTGlyph name="A" xMin="-55" yMin="0" xMax="531" yMax="654">
      <contour>
        <pt x="8" y="65" on="1"/>
        <pt x="278" y="654" on="1"/>
        <pt x="353" y="654" on="1"/>
        <pt x="468" y="64" on="1"/>
        <pt x="531" y="51" on="1"/>
        <pt x="527" y="0" on="1"/>
        <pt x="277" y="0" on="1"/>
        <pt x="281" y="51" on="1"/>
        <pt x="347" y="62" on="1"/>
        <pt x="347" y="76" on="1"/>
        <pt x="329" y="181" on="1"/>
        <pt x="133" y="181" on="1"/>
        <pt x="85" y="73" on="1"/>
        <pt x="85" y="63" on="1"/>
        <pt x="159" y="51" on="1"/>
        <pt x="153" y="0" on="1"/>
        <pt x="-55" y="0" on="1"/>
        <pt x="-48" y="51" on="1"/>
      </contour>
      <contour>
        <pt x="279" y="475" on="1"/>
        <pt x="277" y="500" on="1"/>
        <pt x="274" y="499" on="1"/>
        <pt x="265" y="473" on="1"/>
        <pt x="161" y="243" on="1"/>
        <pt x="318" y="243" on="1"/>
      </contour>
    </TTGlyph>
    <TTGlyph name="AE" xMin="-87" yMin="0" xMax="762" yMax="648">
      <contour>
        <pt x="-24" y="65" on="1"/>
        <pt x="355" y="648" on="1"/>
        <pt x="762" y="648" on="1"/>
        <pt x="737" y="474" on="1"/>
        <pt x="677" y="474" on="1"/>
        <pt x="677" y="587" on="1"/>
        <pt x="571" y="587" on="1"/>
        <pt x="505" y="581" on="1"/>
        <pt x="470" y="333" on="1"/>
        <pt x="590" y="333" on="1"/>
        <pt x="611" y="395" on="1"/>
        <pt x="663" y="395" on="1"/>
        <pt x="639" y="211" on="1"/>
        <pt x="588" y="211" on="1"/>
        <pt x="587" y="275" on="1"/>
        <pt x="462" y="275" on="1"/>
        <pt x="433" y="67" on="1"/>
        <pt x="493" y="62" on="0"/>
        <pt x="517" y="61" on="1"/>
        <pt x="613" y="61" on="1"/>
        <pt x="653" y="170" on="1"/>
        <pt x="707" y="170" on="1"/>
        <pt x="686" y="0" on="1"/>
        <pt x="239" y="0" on="1"/>
        <pt x="246" y="51" on="1"/>
        <pt x="317" y="65" on="1"/>
        <pt x="346" y="275" on="1"/>
        <pt x="187" y="275" on="1"/>
        <pt x="55" y="73" on="1"/>
        <pt x="55" y="63" on="1"/>
        <pt x="129" y="51" on="1"/>
        <pt x="123" y="0" on="1"/>
        <pt x="-87" y="0" on="1"/>
        <pt x="-80" y="51" on="1"/>
      </contour>
      <contour>
        <pt x="390" y="585" on="1"/>
        <pt x="385" y="585" on="1"/>
        <pt x="223" y="333" on="1"/>
        <pt x="354" y="333" on="1"/>
      </contour>
    </TTGlyph>
    <TTGlyph name="AEacute" xMin="-87" yMin="0" xMax="762" yMax="839">
      <component glyphName=".ttfautohint" x="0" y="0" flags="0x0"/>
      <component glyphName="AE" x="0" y="0" flags="0x0"/>
      <component glyphName="acutecomb.case" x="541" y="0" flags="0x0"/>
    </TTGlyph>
    <TTGlyph name="Aacute" xMin="-55" yMin="0" xMax="531" yMax="838">
      <component glyphName=".ttfautohint" x="0" y="0" flags="0x0"/>
      <component glyphName="A" x="0" y="0" flags="0x0"/>
      <component glyphName="acutecomb.case" x="355" y="-1" flags="0x4"/>
    </TTGlyph>
    <TTGlyph name="Abreve" xMin="-55" yMin="0" xMax="531" yMax="835">
      <contour>
        <pt x="469" y="769" on="0"/>
        <pt x="380" y="685" on="0"/>
        <pt x="306" y="685" on="1"/>
        <pt x="272" y="685" on="0"/>
        <pt x="211" y="712" on="0"/>
        <pt x="175" y="757" on="0"/>
        <pt x="175" y="781" on="1"/>
        <pt x="175" y="795" on="0"/>
        <pt x="210" y="823" on="0"/>
        <pt x="236" y="832" on="1"/>
        <pt x="267" y="770" on="0"/>
        <pt x="323" y="770" on="1"/>
        <pt x="370" y="770" on="0"/>
        <pt x="437" y="807" on="0"/>
        <pt x="466" y="835" on="1"/>
        <pt x="494" y="813" on="1"/>
      </contour>
      <contour>
        <pt x="8" y="65" on="1"/>
        <pt x="278" y="654" on="1"/>
        <pt x="353" y="654" on="1"/>
        <pt x="468" y="64" on="1"/>
        <pt x="531" y="51" on="1"/>
        <pt x="527" y="0" on="1"/>
        <pt x="277" y="0" on="1"/>
        <pt x="281" y="51" on="1"/>
        <pt x="347" y="62" on="1"/>
        <pt x="347" y="76" on="1"/>
        <pt x="329" y="181" on="1"/>
        <pt x="133" y="181" on="1"/>
        <pt x="85" y="73" on="1"/>
        <pt x="85" y="63" on="1"/>
        <pt x="159" y="51" on="1"/>
        <pt x="153" y="0" on="1"/>
        <pt x="-55" y="0" on="1"/>
        <pt x="-48" y="51" on="1"/>
      </contour>
      <contour>
        <pt x="279" y="475" on="1"/>
        <pt x="277" y="500" on="1"/>
        <pt x="274" y="499" on="1"/>
        <pt x="265" y="473" on="1"/>
        <pt x="161" y="243" on="1"/>
        <pt x="318" y="243" on="1"/>
      </contour>
    </TTGlyph>
    <TTGlyph name="Acircumflex" xMin="-55" yMin="0" xMax="531" yMax="837">
      <contour>
        <pt x="256" y="786" on="1"/>
        <pt x="276" y="802" on="1"/>
        <pt x="295" y="817" on="0"/>
        <pt x="323" y="837" on="0"/>
        <pt x="329" y="837" on="1"/>
        <pt x="337" y="837" on="0"/>
        <pt x="366" y="814" on="0"/>
        <pt x="386" y="795" on="1"/>
        <pt x="464" y="725" on="1"/>
        <pt x="427" y="679" on="1"/>
        <pt x="316" y="742" on="1"/>
        <pt x="198" y="683" on="1"/>
        <pt x="172" y="720" on="1"/>
      </contour>
      <contour>
        <pt x="8" y="65" on="1"/>
        <pt x="278" y="654" on="1"/>
        <pt x="353" y="654" on="1"/>
        <pt x="468" y="64" on="1"/>
        <pt x="531" y="51" on="1"/>
        <pt x="527" y="0" on="1"/>
        <pt x="277" y="0" on="1"/>
        <pt x="281" y="51" on="1"/>
        <pt x="347" y="62" on="1"/>
        <pt x="347" y="76" on="1"/>
        <pt x="329" y="181" on="1"/>
        <pt x="133" y="181" on="1"/>
        <pt x="85" y="73" on="1"/>
        <pt x="85" y="63" on="1"/>
        <pt x="159" y="51" on="1"/>
        <pt x="153" y="0" on="1"/>
        <pt x="-55" y="0" on="1"/>
        <pt x="-48" y="51" on="1"/>
      </contour>
      <contour>
        <pt x="279" y="475" on="1"/>
        <pt x="277" y="500" on="1"/>
        <pt x="274" y="499" on="1"/>
        <pt x="265" y="473" on="1"/>
        <pt x="161" y="243" on="1"/>
        <pt x="318" y="243" on="1"/>
      </contour>
    </TTGlyph>
    <TTGlyph name="Adieresis" xMin="-55" yMin="0" xMax="531" yMax="827">
      <contour>
        <pt x="181" y="693" on="0"/>
        <pt x="148" y="728" on="0"/>
        <pt x="148" y="754" on="1"/>
        <pt x="148" y="783" on="0"/>
        <pt x="185" y="827" on="0"/>
        <pt x="216" y="827" on="1"/>
        <pt x="242" y="827" on="0"/>
        <pt x="274" y="794" on="0"/>
        <pt x="274" y="766" on="1"/>
        <pt x="274" y="736" on="0"/>
        <pt x="238" y="693" on="0"/>
        <pt x="206" y="693" on="1"/>
      </contour>
      <contour>
        <pt x="399" y="693" on="0"/>
        <pt x="367" y="728" on="0"/>
        <pt x="367" y="754" on="1"/>
        <pt x="367" y="783" on="0"/>
        <pt x="403" y="827" on="0"/>
        <pt x="434" y="827" on="1"/>
        <pt x="460" y="827" on="0"/>
        <pt x="493" y="794" on="0"/>
        <pt x="493" y="766" on="1"/>
        <pt x="493" y="736" on="0"/>
        <pt x="457" y="693" on="0"/>
        <pt x="425" y="693" on="1"/>
      </contour>
      <contour>
        <pt x="8" y="65" on="1"/>
        <pt x="278" y="654" on="1"/>
        <pt x="353" y="654" on="1"/>
        <pt x="468" y="64" on="1"/>
        <pt x="531" y="51" on="1"/>
        <pt x="527" y="0" on="1"/>
        <pt x="277" y="0" on="1"/>
        <pt x="281" y="51" on="1"/>
        <pt x="347" y="62" on="1"/>
        <pt x="347" y="76" on="1"/>
        <pt x="329" y="181" on="1"/>
        <pt x="133" y="181" on="1"/>
        <pt x="85" y="73" on="1"/>
        <pt x="85" y="63" on="1"/>
        <pt x="159" y="51" on="1"/>
        <pt x="153" y="0" on="1"/>
        <pt x="-55" y="0" on="1"/>
        <pt x="-48" y="51" on="1"/>
      </contour>
      <contour>
        <pt x="279" y="475" on="1"/>
        <pt x="277" y="500" on="1"/>
        <pt x="274" y="499" on="1"/>
        <pt x="265" y="473" on="1"/>
        <pt x="161" y="243" on="1"/>
        <pt x="318" y="243" on="1"/>
      </contour>
    </TTGlyph>
    <TTGlyph name="Agrave" xMin="-55" yMin="0" xMax="531" yMax="839">
      <contour>
        <pt x="219" y="740" on="0"/>
        <pt x="199" y="762" on="0"/>
        <pt x="199" y="778" on="1"/>
        <pt x="199" y="819" on="0"/>
        <pt x="236" y="839" on="1"/>
        <pt x="417" y="720" on="1"/>
        <pt x="393" y="676" on="1"/>
        <pt x="246" y="731" on="1"/>
      </contour>
      <contour>
        <pt x="8" y="65" on="1"/>
        <pt x="278" y="654" on="1"/>
        <pt x="353" y="654" on="1"/>
        <pt x="468" y="64" on="1"/>
        <pt x="531" y="51" on="1"/>
        <pt x="527" y="0" on="1"/>
        <pt x="277" y="0" on="1"/>
        <pt x="281" y="51" on="1"/>
        <pt x="347" y="62" on="1"/>
        <pt x="347" y="76" on="1"/>
        <pt x="329" y="181" on="1"/>
        <pt x="133" y="181" on="1"/>
        <pt x="85" y="73" on="1"/>
        <pt x="85" y="63" on="1"/>
        <pt x="159" y="51" on="1"/>
        <pt x="153" y="0" on="1"/>
        <pt x="-55" y="0" on="1"/>
        <pt x="-48" y="51" on="1"/>
      </contour>
      <contour>
        <pt x="279" y="475" on="1"/>
        <pt x="277" y="500" on="1"/>
        <pt x="274" y="499" on="1"/>
        <pt x="265" y="473" on="1"/>
        <pt x="161" y="243" on="1"/>
        <pt x="318" y="243" on="1"/>
      </contour>
    </TTGlyph>
    <TTGlyph name="Amacron" xMin="-55" yMin="0" xMax="531" yMax="792">
      <contour>
        <pt x="487" y="792" on="1"/>
        <pt x="478" y="717" on="1"/>
        <pt x="152" y="717" on="1"/>
        <pt x="161" y="792" on="1"/>
      </contour>
      <contour>
        <pt x="8" y="65" on="1"/>
        <pt x="278" y="654" on="1"/>
        <pt x="353" y="654" on="1"/>
        <pt x="468" y="64" on="1"/>
        <pt x="531" y="51" on="1"/>
        <pt x="527" y="0" on="1"/>
        <pt x="277" y="0" on="1"/>
        <pt x="281" y="51" on="1"/>
        <pt x="347" y="62" on="1"/>
        <pt x="347" y="76" on="1"/>
        <pt x="329" y="181" on="1"/>
        <pt x="133" y="181" on="1"/>
        <pt x="85" y="73" on="1"/>
        <pt x="85" y="63" on="1"/>
        <pt x="159" y="51" on="1"/>
        <pt x="153" y="0" on="1"/>
        <pt x="-55" y="0" on="1"/>
        <pt x="-48" y="51" on="1"/>
      </contour>
      <contour>
        <pt x="279" y="475" on="1"/>
        <pt x="277" y="500" on="1"/>
        <pt x="274" y="499" on="1"/>
        <pt x="265" y="473" on="1"/>
        <pt x="161" y="243" on="1"/>
        <pt x="318" y="243" on="1"/>
      </contour>
    </TTGlyph>
    <TTGlyph name="Aogonek" xMin="-55" yMin="-183" xMax="531" yMax="654">
      <contour>
        <pt x="374" y="-39" on="0"/>
        <pt x="374" y="-85" on="1"/>
        <pt x="374" y="-121" on="0"/>
        <pt x="411" y="-121" on="1"/>
        <pt x="435" y="-121" on="0"/>
        <pt x="465" y="-101" on="1"/>
        <pt x="486" y="-133" on="1"/>
        <pt x="486" y="-135" on="0"/>
        <pt x="455" y="-161" on="0"/>
        <pt x="407" y="-183" on="0"/>
        <pt x="379" y="-183" on="1"/>
        <pt x="338" y="-183" on="0"/>
        <pt x="289" y="-150" on="0"/>
        <pt x="289" y="-115" on="1"/>
        <pt x="289" y="-80" on="0"/>
        <pt x="333" y="-22" on="0"/>
        <pt x="369" y="0" on="1"/>
        <pt x="277" y="0" on="1"/>
        <pt x="281" y="51" on="1"/>
        <pt x="347" y="62" on="1"/>
        <pt x="347" y="76" on="1"/>
        <pt x="329" y="181" on="1"/>
        <pt x="133" y="181" on="1"/>
        <pt x="85" y="73" on="1"/>
        <pt x="85" y="63" on="1"/>
        <pt x="159" y="51" on="1"/>
        <pt x="153" y="0" on="1"/>
        <pt x="-55" y="0" on="1"/>
        <pt x="-48" y="51" on="1"/>
        <pt x="8" y="65" on="1"/>
        <pt x="278" y="654" on="1"/>
        <pt x="353" y="654" on="1"/>
        <pt x="468" y="64" on="1"/>
        <pt x="531" y="51" on="1"/>
        <pt x="527" y="0" on="1"/>
        <pt x="427" y="0" on="1"/>
      </contour>
      <contour>
        <pt x="318" y="243" on="1"/>
        <pt x="279" y="475" on="1"/>
        <pt x="277" y="500" on="1"/>
        <pt x="274" y="499" on="1"/>
        <pt x="265" y="473" on="1"/>
        <pt x="161" y="243" on="1"/>
      </contour>
    </TTGlyph>
    <TTGlyph name="Aring" xMin="-55" yMin="0" xMax="531" yMax="836">
      <contour>
        <pt x="264" y="663" on="0"/>
        <pt x="220" y="700" on="0"/>
        <pt x="220" y="737" on="1"/>
        <pt x="220" y="776" on="0"/>
        <pt x="281" y="836" on="0"/>
        <pt x="331" y="836" on="1"/>
        <pt x="374" y="836" on="0"/>
        <pt x="422" y="799" on="0"/>
        <pt x="422" y="760" on="1"/>
        <pt x="422" y="721" on="0"/>
        <pt x="364" y="663" on="0"/>
        <pt x="312" y="663" on="1"/>
      </contour>
      <contour>
        <pt x="338" y="709" on="0"/>
        <pt x="354" y="730" on="0"/>
        <pt x="354" y="758" on="1"/>
        <pt x="354" y="776" on="0"/>
        <pt x="337" y="790" on="0"/>
        <pt x="322" y="790" on="1"/>
        <pt x="303" y="790" on="0"/>
        <pt x="287" y="768" on="0"/>
        <pt x="287" y="740" on="1"/>
        <pt x="287" y="723" on="0"/>
        <pt x="302" y="709" on="0"/>
        <pt x="319" y="709" on="1"/>
      </contour>
      <contour>
        <pt x="8" y="65" on="1"/>
        <pt x="278" y="654" on="1"/>
        <pt x="353" y="654" on="1"/>
        <pt x="468" y="64" on="1"/>
        <pt x="531" y="51" on="1"/>
        <pt x="527" y="0" on="1"/>
        <pt x="277" y="0" on="1"/>
        <pt x="281" y="51" on="1"/>
        <pt x="347" y="62" on="1"/>
        <pt x="347" y="76" on="1"/>
        <pt x="329" y="181" on="1"/>
        <pt x="133" y="181" on="1"/>
        <pt x="85" y="73" on="1"/>
        <pt x="85" y="63" on="1"/>
        <pt x="159" y="51" on="1"/>
        <pt x="153" y="0" on="1"/>
        <pt x="-55" y="0" on="1"/>
        <pt x="-48" y="51" on="1"/>
      </contour>
      <contour>
        <pt x="279" y="475" on="1"/>
        <pt x="277" y="500" on="1"/>
        <pt x="274" y="499" on="1"/>
        <pt x="265" y="473" on="1"/>
        <pt x="161" y="243" on="1"/>
        <pt x="318" y="243" on="1"/>
      </contour>
    </TTGlyph>
    <TTGlyph name="Aringacute" xMin="-55" yMin="0" xMax="531" yMax="1027">
      <component glyphName=".ttfautohint" x="0" y="0" flags="0x0"/>
      <component glyphName="A" x="0" y="0" flags="0x0"/>
      <component glyphName="uni030A.case" x="367" y="0" flags="0x0"/>
      <component glyphName="acutecomb.case" x="436" y="188" flags="0x4"/>
    </TTGlyph>
    <TTGlyph name="Atilde" xMin="-55" yMin="0" xMax="531" yMax="823">
      <contour>
        <pt x="174" y="783" on="1"/>
        <pt x="189" y="802" on="0"/>
        <pt x="222" y="823" on="0"/>
        <pt x="237" y="823" on="1"/>
        <pt x="264" y="823" on="0"/>
        <pt x="307" y="806" on="1"/>
        <pt x="399" y="776" on="1"/>
        <pt x="480" y="813" on="1"/>
        <pt x="507" y="783" on="1"/>
        <pt x="461" y="730" on="1"/>
        <pt x="427" y="690" on="0"/>
        <pt x="399" y="690" on="1"/>
        <pt x="370" y="690" on="0"/>
        <pt x="329" y="706" on="1"/>
        <pt x="237" y="737" on="1"/>
        <pt x="156" y="700" on="1"/>
        <pt x="129" y="730" on="1"/>
      </contour>
      <contour>
        <pt x="8" y="65" on="1"/>
        <pt x="278" y="654" on="1"/>
        <pt x="353" y="654" on="1"/>
        <pt x="468" y="64" on="1"/>
        <pt x="531" y="51" on="1"/>
        <pt x="527" y="0" on="1"/>
        <pt x="277" y="0" on="1"/>
        <pt x="281" y="51" on="1"/>
        <pt x="347" y="62" on="1"/>
        <pt x="347" y="76" on="1"/>
        <pt x="329" y="181" on="1"/>
        <pt x="133" y="181" on="1"/>
        <pt x="85" y="73" on="1"/>
        <pt x="85" y="63" on="1"/>
        <pt x="159" y="51" on="1"/>
        <pt x="153" y="0" on="1"/>
        <pt x="-55" y="0" on="1"/>
        <pt x="-48" y="51" on="1"/>
      </contour>
      <contour>
        <pt x="279" y="475" on="1"/>
        <pt x="277" y="500" on="1"/>
        <pt x="274" y="499" on="1"/>
        <pt x="265" y="473" on="1"/>
        <pt x="161" y="243" on="1"/>
        <pt x="318" y="243" on="1"/>
      </contour>
    </TTGlyph>
    <TTGlyph name="B" xMin="-3" yMin="0" xMax="514" yMax="648">
      <contour>
        <pt x="75" y="65" on="1"/>
        <pt x="149" y="583" on="1"/>
        <pt x="79" y="597" on="1"/>
        <pt x="86" y="648" on="1"/>
        <pt x="314" y="648" on="1"/>
        <pt x="412" y="648" on="0"/>
        <pt x="514" y="584" on="0"/>
        <pt x="514" y="515" on="1"/>
        <pt x="514" y="454" on="0"/>
        <pt x="423" y="360" on="0"/>
        <pt x="353" y="339" on="1"/>
        <pt x="412" y="328" on="0"/>
        <pt x="491" y="264" on="0"/>
        <pt x="491" y="206" on="1"/>
        <pt x="491" y="144" on="0"/>
        <pt x="425" y="51" on="0"/>
        <pt x="309" y="0" on="0"/>
        <pt x="236" y="0" on="1"/>
        <pt x="-3" y="0" on="1"/>
        <pt x="4" y="51" on="1"/>
      </contour>
      <contour>
        <pt x="316" y="369" on="0"/>
        <pt x="394" y="441" on="0"/>
        <pt x="394" y="503" on="1"/>
        <pt x="394" y="548" on="0"/>
        <pt x="346" y="587" on="0"/>
        <pt x="297" y="587" on="1"/>
        <pt x="285" y="587" on="0"/>
        <pt x="266" y="584" on="0"/>
        <pt x="264" y="583" on="1"/>
        <pt x="230" y="357" on="1"/>
      </contour>
      <contour>
        <pt x="207" y="56" on="0"/>
        <pt x="237" y="56" on="1"/>
        <pt x="303" y="56" on="0"/>
        <pt x="365" y="129" on="0"/>
        <pt x="365" y="190" on="1"/>
        <pt x="365" y="247" on="0"/>
        <pt x="297" y="304" on="0"/>
        <pt x="224" y="306" on="1"/>
        <pt x="190" y="61" on="1"/>
      </contour>
    </TTGlyph>
    <TTGlyph name="C" xMin="35" yMin="-11" xMax="548" yMax="660">
      <contour>
        <pt x="494" y="192" on="1"/>
        <pt x="479" y="28" on="1"/>
        <pt x="437" y="10" on="0"/>
        <pt x="332" y="-11" on="0"/>
        <pt x="278" y="-11" on="1"/>
        <pt x="153" y="-11" on="0"/>
        <pt x="35" y="127" on="0"/>
        <pt x="35" y="244" on="1"/>
        <pt x="35" y="361" on="0"/>
        <pt x="116" y="551" on="0"/>
        <pt x="269" y="660" on="0"/>
        <pt x="371" y="660" on="1"/>
        <pt x="470" y="660" on="0"/>
        <pt x="548" y="640" on="1"/>
        <pt x="522" y="474" on="1"/>
        <pt x="462" y="474" on="1"/>
        <pt x="457" y="571" on="1"/>
        <pt x="414" y="600" on="0"/>
        <pt x="348" y="600" on="1"/>
        <pt x="260" y="600" on="0"/>
        <pt x="164" y="428" on="0"/>
        <pt x="164" y="258" on="1"/>
        <pt x="164" y="179" on="0"/>
        <pt x="191" y="89" on="0"/>
        <pt x="251" y="50" on="0"/>
        <pt x="303" y="50" on="1"/>
        <pt x="335" y="50" on="0"/>
        <pt x="390" y="68" on="0"/>
        <pt x="402" y="78" on="1"/>
        <pt x="435" y="192" on="1"/>
      </contour>
    </TTGlyph>
    <TTGlyph name="Cacute" xMin="35" yMin="-11" xMax="548" yMax="839">
      <contour>
        <pt x="262" y="720" on="1"/>
        <pt x="443" y="839" on="1"/>
        <pt x="460" y="829" on="0"/>
        <pt x="480" y="798" on="0"/>
        <pt x="480" y="779" on="1"/>
        <pt x="480" y="763" on="0"/>
        <pt x="459" y="741" on="0"/>
        <pt x="433" y="731" on="1"/>
        <pt x="286" y="676" on="1"/>
      </contour>
      <contour>
        <pt x="494" y="192" on="1"/>
        <pt x="479" y="28" on="1"/>
        <pt x="435" y="9" on="0"/>
        <pt x="330" y="-11" on="0"/>
        <pt x="278" y="-11" on="1"/>
        <pt x="160" y="-11" on="0"/>
        <pt x="35" y="120" on="0"/>
        <pt x="35" y="244" on="1"/>
        <pt x="35" y="366" on="0"/>
        <pt x="120" y="555" on="0"/>
        <pt x="273" y="660" on="0"/>
        <pt x="371" y="660" on="1"/>
        <pt x="474" y="660" on="0"/>
        <pt x="548" y="640" on="1"/>
        <pt x="522" y="474" on="1"/>
        <pt x="462" y="474" on="1"/>
        <pt x="457" y="571" on="1"/>
        <pt x="411" y="600" on="0"/>
        <pt x="348" y="600" on="1"/>
        <pt x="258" y="600" on="0"/>
        <pt x="164" y="425" on="0"/>
        <pt x="164" y="258" on="1"/>
        <pt x="164" y="180" on="0"/>
        <pt x="191" y="90" on="0"/>
        <pt x="251" y="50" on="0"/>
        <pt x="303" y="50" on="1"/>
        <pt x="332" y="50" on="0"/>
        <pt x="387" y="65" on="0"/>
        <pt x="402" y="78" on="1"/>
        <pt x="435" y="192" on="1"/>
      </contour>
    </TTGlyph>
    <TTGlyph name="Cacute.loclPLK" xMin="35" yMin="-11" xMax="548" yMax="859">
      <contour>
        <pt x="484" y="859" on="1"/>
        <pt x="507" y="855" on="0"/>
        <pt x="541" y="819" on="0"/>
        <pt x="541" y="800" on="1"/>
        <pt x="541" y="780" on="0"/>
        <pt x="509" y="754" on="1"/>
        <pt x="399" y="665" on="1"/>
        <pt x="362" y="703" on="1"/>
      </contour>
      <contour>
        <pt x="494" y="192" on="1"/>
        <pt x="479" y="28" on="1"/>
        <pt x="437" y="10" on="0"/>
        <pt x="332" y="-11" on="0"/>
        <pt x="278" y="-11" on="1"/>
        <pt x="153" y="-11" on="0"/>
        <pt x="35" y="127" on="0"/>
        <pt x="35" y="244" on="1"/>
        <pt x="35" y="361" on="0"/>
        <pt x="116" y="551" on="0"/>
        <pt x="269" y="660" on="0"/>
        <pt x="371" y="660" on="1"/>
        <pt x="470" y="660" on="0"/>
        <pt x="548" y="640" on="1"/>
        <pt x="522" y="474" on="1"/>
        <pt x="462" y="474" on="1"/>
        <pt x="457" y="571" on="1"/>
        <pt x="414" y="600" on="0"/>
        <pt x="348" y="600" on="1"/>
        <pt x="260" y="600" on="0"/>
        <pt x="164" y="428" on="0"/>
        <pt x="164" y="258" on="1"/>
        <pt x="164" y="179" on="0"/>
        <pt x="191" y="89" on="0"/>
        <pt x="251" y="50" on="0"/>
        <pt x="303" y="50" on="1"/>
        <pt x="335" y="50" on="0"/>
        <pt x="390" y="68" on="0"/>
        <pt x="402" y="78" on="1"/>
        <pt x="435" y="192" on="1"/>
      </contour>
    </TTGlyph>
    <TTGlyph name="Ccaron" xMin="35" yMin="-11" xMax="548" yMax="838">
      <contour>
        <pt x="264" y="838" on="1"/>
        <pt x="372" y="774" on="1"/>
        <pt x="488" y="837" on="1"/>
        <pt x="514" y="800" on="1"/>
        <pt x="433" y="731" on="1"/>
        <pt x="400" y="703" on="0"/>
        <pt x="367" y="679" on="0"/>
        <pt x="359" y="679" on="1"/>
        <pt x="351" y="679" on="0"/>
        <pt x="326" y="699" on="0"/>
        <pt x="306" y="719" on="0"/>
        <pt x="303" y="721" on="1"/>
        <pt x="227" y="793" on="1"/>
      </contour>
      <contour>
        <pt x="494" y="192" on="1"/>
        <pt x="479" y="28" on="1"/>
        <pt x="437" y="10" on="0"/>
        <pt x="332" y="-11" on="0"/>
        <pt x="278" y="-11" on="1"/>
        <pt x="153" y="-11" on="0"/>
        <pt x="35" y="127" on="0"/>
        <pt x="35" y="244" on="1"/>
        <pt x="35" y="361" on="0"/>
        <pt x="116" y="551" on="0"/>
        <pt x="269" y="660" on="0"/>
        <pt x="371" y="660" on="1"/>
        <pt x="470" y="660" on="0"/>
        <pt x="548" y="640" on="1"/>
        <pt x="522" y="474" on="1"/>
        <pt x="462" y="474" on="1"/>
        <pt x="457" y="571" on="1"/>
        <pt x="414" y="600" on="0"/>
        <pt x="348" y="600" on="1"/>
        <pt x="260" y="600" on="0"/>
        <pt x="164" y="428" on="0"/>
        <pt x="164" y="258" on="1"/>
        <pt x="164" y="179" on="0"/>
        <pt x="191" y="89" on="0"/>
        <pt x="251" y="50" on="0"/>
        <pt x="303" y="50" on="1"/>
        <pt x="335" y="50" on="0"/>
        <pt x="390" y="68" on="0"/>
        <pt x="402" y="78" on="1"/>
        <pt x="435" y="192" on="1"/>
      </contour>
    </TTGlyph>
    <TTGlyph name="Ccedilla" xMin="35" yMin="-192" xMax="548" yMax="660">
      <contour>
        <pt x="219" y="-131" on="0"/>
        <pt x="247" y="-139" on="0"/>
        <pt x="272" y="-139" on="1"/>
        <pt x="299" y="-139" on="0"/>
        <pt x="299" y="-122" on="1"/>
        <pt x="299" y="-115" on="0"/>
        <pt x="289" y="-104" on="0"/>
        <pt x="276" y="-98" on="1"/>
        <pt x="228" y="-74" on="1"/>
        <pt x="228" y="-50" on="1"/>
        <pt x="254" y="-10" on="1"/>
        <pt x="141" y="-4" on="0"/>
        <pt x="35" y="132" on="0"/>
        <pt x="35" y="244" on="1"/>
        <pt x="35" y="361" on="0"/>
        <pt x="116" y="551" on="0"/>
        <pt x="269" y="660" on="0"/>
        <pt x="371" y="660" on="1"/>
        <pt x="470" y="660" on="0"/>
        <pt x="548" y="640" on="1"/>
        <pt x="522" y="474" on="1"/>
        <pt x="462" y="474" on="1"/>
        <pt x="457" y="571" on="1"/>
        <pt x="414" y="600" on="0"/>
        <pt x="348" y="600" on="1"/>
        <pt x="260" y="600" on="0"/>
        <pt x="164" y="428" on="0"/>
        <pt x="164" y="258" on="1"/>
        <pt x="164" y="179" on="0"/>
        <pt x="191" y="89" on="0"/>
        <pt x="251" y="50" on="0"/>
        <pt x="303" y="50" on="1"/>
        <pt x="335" y="50" on="0"/>
        <pt x="390" y="68" on="0"/>
        <pt x="402" y="78" on="1"/>
        <pt x="435" y="192" on="1"/>
        <pt x="494" y="192" on="1"/>
        <pt x="479" y="28" on="1"/>
        <pt x="397" y="-6" on="0"/>
        <pt x="307" y="-10" on="1"/>
        <pt x="307" y="-28" on="1"/>
        <pt x="341" y="-47" on="1"/>
        <pt x="363" y="-59" on="0"/>
        <pt x="386" y="-86" on="0"/>
        <pt x="386" y="-107" on="1"/>
        <pt x="386" y="-151" on="0"/>
        <pt x="326" y="-192" on="0"/>
        <pt x="283" y="-192" on="1"/>
        <pt x="220" y="-192" on="0"/>
        <pt x="178" y="-164" on="1"/>
        <pt x="202" y="-123" on="1"/>
      </contour>
    </TTGlyph>
    <TTGlyph name="Ccircumflex" xMin="35" yMin="-11" xMax="548" yMax="837">
      <component glyphName=".ttfautohint" x="35" y="0" flags="0x0"/>
      <component glyphName="C" x="0" y="0" flags="0x0"/>
      <component glyphName="uni0302.case" x="480" y="0" flags="0x0"/>
    </TTGlyph>
    <TTGlyph name="Cdotaccent" xMin="35" yMin="-11" xMax="548" yMax="827">
      <component glyphName=".ttfautohint" x="35" y="0" flags="0x0"/>
      <component glyphName="C" x="0" y="0" flags="0x0"/>
      <component glyphName="uni0307.case" x="394" y="0" flags="0x0"/>
    </TTGlyph>
    <TTGlyph name="D" xMin="-3" yMin="0" xMax="612" yMax="648">
      <contour>
        <pt x="75" y="65" on="1"/>
        <pt x="148" y="583" on="1"/>
        <pt x="79" y="597" on="1"/>
        <pt x="85" y="648" on="1"/>
        <pt x="342" y="648" on="1"/>
        <pt x="474" y="648" on="0"/>
        <pt x="612" y="525" on="0"/>
        <pt x="612" y="407" on="1"/>
        <pt x="612" y="288" on="0"/>
        <pt x="520" y="103" on="0"/>
        <pt x="355" y="0" on="0"/>
        <pt x="248" y="0" on="1"/>
        <pt x="-3" y="0" on="1"/>
        <pt x="4" y="51" on="1"/>
      </contour>
      <contour>
        <pt x="230" y="61" on="0"/>
        <pt x="255" y="61" on="1"/>
        <pt x="364" y="61" on="0"/>
        <pt x="483" y="226" on="0"/>
        <pt x="484" y="377" on="1"/>
        <pt x="484" y="454" on="0"/>
        <pt x="447" y="545" on="0"/>
        <pt x="367" y="587" on="0"/>
        <pt x="300" y="587" on="1"/>
        <pt x="278" y="587" on="0"/>
        <pt x="264" y="585" on="1"/>
        <pt x="190" y="63" on="1"/>
      </contour>
    </TTGlyph>
    <TTGlyph name="Dcaron" xMin="-5" yMin="0" xMax="610" yMax="838">
      <contour>
        <pt x="353" y="774" on="1"/>
        <pt x="470" y="837" on="1"/>
        <pt x="495" y="800" on="1"/>
        <pt x="414" y="731" on="1"/>
        <pt x="378" y="701" on="0"/>
        <pt x="349" y="679" on="0"/>
        <pt x="341" y="679" on="1"/>
        <pt x="333" y="679" on="0"/>
        <pt x="307" y="700" on="0"/>
        <pt x="285" y="721" on="1"/>
        <pt x="208" y="793" on="1"/>
        <pt x="246" y="838" on="1"/>
      </contour>
      <contour>
        <pt x="73" y="65" on="1"/>
        <pt x="146" y="583" on="1"/>
        <pt x="77" y="597" on="1"/>
        <pt x="84" y="648" on="1"/>
        <pt x="340" y="648" on="1"/>
        <pt x="473" y="648" on="0"/>
        <pt x="610" y="525" on="0"/>
        <pt x="610" y="407" on="1"/>
        <pt x="610" y="288" on="0"/>
        <pt x="519" y="103" on="0"/>
        <pt x="353" y="0" on="0"/>
        <pt x="246" y="0" on="1"/>
        <pt x="-5" y="0" on="1"/>
        <pt x="2" y="51" on="1"/>
      </contour>
      <contour>
        <pt x="227" y="61" on="0"/>
        <pt x="253" y="61" on="1"/>
        <pt x="362" y="61" on="0"/>
        <pt x="481" y="226" on="0"/>
        <pt x="482" y="377" on="1"/>
        <pt x="482" y="454" on="0"/>
        <pt x="446" y="545" on="0"/>
        <pt x="366" y="587" on="0"/>
        <pt x="298" y="587" on="1"/>
        <pt x="276" y="587" on="0"/>
        <pt x="262" y="585" on="1"/>
        <pt x="189" y="63" on="1"/>
      </contour>
    </TTGlyph>
    <TTGlyph name="Dcroat" xMin="-5" yMin="0" xMax="610" yMax="648">
      <contour>
        <pt x="73" y="65" on="1"/>
        <pt x="107" y="303" on="1"/>
        <pt x="29" y="303" on="1"/>
        <pt x="38" y="365" on="1"/>
        <pt x="115" y="365" on="1"/>
        <pt x="146" y="583" on="1"/>
        <pt x="77" y="597" on="1"/>
        <pt x="84" y="648" on="1"/>
        <pt x="340" y="648" on="1"/>
        <pt x="472" y="648" on="0"/>
        <pt x="610" y="526" on="0"/>
        <pt x="610" y="407" on="1"/>
        <pt x="610" y="288" on="0"/>
        <pt x="519" y="103" on="0"/>
        <pt x="353" y="0" on="0"/>
        <pt x="246" y="0" on="1"/>
        <pt x="-5" y="0" on="1"/>
        <pt x="2" y="51" on="1"/>
      </contour>
      <contour>
        <pt x="227" y="61" on="0"/>
        <pt x="253" y="61" on="1"/>
        <pt x="360" y="61" on="0"/>
        <pt x="481" y="222" on="0"/>
        <pt x="482" y="377" on="1"/>
        <pt x="482" y="460" on="0"/>
        <pt x="440" y="551" on="0"/>
        <pt x="361" y="587" on="0"/>
        <pt x="298" y="587" on="1"/>
        <pt x="276" y="587" on="0"/>
        <pt x="262" y="585" on="1"/>
        <pt x="231" y="365" on="1"/>
        <pt x="363" y="365" on="1"/>
        <pt x="353" y="303" on="1"/>
        <pt x="222" y="303" on="1"/>
        <pt x="189" y="63" on="1"/>
      </contour>
    </TTGlyph>
    <TTGlyph name="E" xMin="-3" yMin="0" xMax="521" yMax="648">
      <contour>
        <pt x="75" y="65" on="1"/>
        <pt x="149" y="583" on="1"/>
        <pt x="79" y="597" on="1"/>
        <pt x="86" y="648" on="1"/>
        <pt x="521" y="648" on="1"/>
        <pt x="495" y="474" on="1"/>
        <pt x="435" y="474" on="1"/>
        <pt x="435" y="587" on="1"/>
        <pt x="330" y="587" on="1"/>
        <pt x="264" y="581" on="1"/>
        <pt x="232" y="363" on="1"/>
        <pt x="352" y="363" on="1"/>
        <pt x="374" y="425" on="1"/>
        <pt x="426" y="425" on="1"/>
        <pt x="401" y="241" on="1"/>
        <pt x="351" y="241" on="1"/>
        <pt x="349" y="306" on="1"/>
        <pt x="225" y="306" on="1"/>
        <pt x="191" y="67" on="1"/>
        <pt x="255" y="62" on="0"/>
        <pt x="275" y="61" on="1"/>
        <pt x="372" y="61" on="1"/>
        <pt x="411" y="170" on="1"/>
        <pt x="465" y="170" on="1"/>
        <pt x="444" y="0" on="1"/>
        <pt x="-3" y="0" on="1"/>
        <pt x="4" y="51" on="1"/>
      </contour>
    </TTGlyph>
    <TTGlyph name="Eacute" xMin="-3" yMin="0" xMax="521" yMax="839">
      <contour>
        <pt x="226" y="720" on="1"/>
        <pt x="407" y="839" on="1"/>
        <pt x="443" y="818" on="0"/>
        <pt x="443" y="779" on="1"/>
        <pt x="443" y="763" on="0"/>
        <pt x="423" y="740" on="0"/>
        <pt x="397" y="731" on="1"/>
        <pt x="249" y="676" on="1"/>
      </contour>
      <contour>
        <pt x="75" y="65" on="1"/>
        <pt x="149" y="583" on="1"/>
        <pt x="79" y="597" on="1"/>
        <pt x="86" y="648" on="1"/>
        <pt x="521" y="648" on="1"/>
        <pt x="495" y="474" on="1"/>
        <pt x="435" y="474" on="1"/>
        <pt x="435" y="587" on="1"/>
        <pt x="330" y="587" on="1"/>
        <pt x="264" y="581" on="1"/>
        <pt x="232" y="363" on="1"/>
        <pt x="352" y="363" on="1"/>
        <pt x="374" y="425" on="1"/>
        <pt x="426" y="425" on="1"/>
        <pt x="401" y="241" on="1"/>
        <pt x="351" y="241" on="1"/>
        <pt x="349" y="306" on="1"/>
        <pt x="225" y="306" on="1"/>
        <pt x="191" y="67" on="1"/>
        <pt x="255" y="62" on="0"/>
        <pt x="275" y="61" on="1"/>
        <pt x="372" y="61" on="1"/>
        <pt x="411" y="170" on="1"/>
        <pt x="465" y="170" on="1"/>
        <pt x="444" y="0" on="1"/>
        <pt x="-3" y="0" on="1"/>
        <pt x="4" y="51" on="1"/>
      </contour>
    </TTGlyph>
    <TTGlyph name="Ebreve" xMin="-3" yMin="0" xMax="521" yMax="835">
      <component glyphName=".ttfautohint" x="0" y="0" flags="0x0"/>
      <component glyphName="E" x="0" y="0" flags="0x0"/>
      <component glyphName="uni0306.case" x="414" y="0" flags="0x0"/>
    </TTGlyph>
    <TTGlyph name="Ecaron" xMin="-3" yMin="0" xMax="521" yMax="838">
      <contour>
        <pt x="228" y="838" on="1"/>
        <pt x="336" y="774" on="1"/>
        <pt x="452" y="838" on="1"/>
        <pt x="478" y="801" on="1"/>
        <pt x="397" y="732" on="1"/>
        <pt x="365" y="704" on="0"/>
        <pt x="331" y="680" on="0"/>
        <pt x="323" y="680" on="1"/>
        <pt x="315" y="680" on="0"/>
        <pt x="290" y="700" on="0"/>
        <pt x="270" y="720" on="0"/>
        <pt x="267" y="722" on="1"/>
        <pt x="191" y="794" on="1"/>
      </contour>
      <contour>
        <pt x="75" y="65" on="1"/>
        <pt x="149" y="583" on="1"/>
        <pt x="79" y="597" on="1"/>
        <pt x="86" y="648" on="1"/>
        <pt x="521" y="648" on="1"/>
        <pt x="495" y="474" on="1"/>
        <pt x="435" y="474" on="1"/>
        <pt x="435" y="587" on="1"/>
        <pt x="330" y="587" on="1"/>
        <pt x="264" y="581" on="1"/>
        <pt x="232" y="363" on="1"/>
        <pt x="352" y="363" on="1"/>
        <pt x="374" y="425" on="1"/>
        <pt x="426" y="425" on="1"/>
        <pt x="401" y="241" on="1"/>
        <pt x="351" y="241" on="1"/>
        <pt x="349" y="306" on="1"/>
        <pt x="225" y="306" on="1"/>
        <pt x="191" y="67" on="1"/>
        <pt x="255" y="62" on="0"/>
        <pt x="275" y="61" on="1"/>
        <pt x="372" y="61" on="1"/>
        <pt x="411" y="170" on="1"/>
        <pt x="465" y="170" on="1"/>
        <pt x="444" y="0" on="1"/>
        <pt x="-3" y="0" on="1"/>
        <pt x="4" y="51" on="1"/>
      </contour>
    </TTGlyph>
    <TTGlyph name="Ecircumflex" xMin="-3" yMin="0" xMax="521" yMax="837">
      <contour>
        <pt x="269" y="786" on="1"/>
        <pt x="292" y="804" on="1"/>
        <pt x="310" y="819" on="0"/>
        <pt x="337" y="837" on="0"/>
        <pt x="343" y="837" on="1"/>
        <pt x="351" y="837" on="0"/>
        <pt x="380" y="814" on="0"/>
        <pt x="400" y="795" on="1"/>
        <pt x="478" y="725" on="1"/>
        <pt x="441" y="679" on="1"/>
        <pt x="330" y="742" on="1"/>
        <pt x="212" y="683" on="1"/>
        <pt x="186" y="720" on="1"/>
      </contour>
      <contour>
        <pt x="75" y="65" on="1"/>
        <pt x="149" y="583" on="1"/>
        <pt x="79" y="597" on="1"/>
        <pt x="86" y="648" on="1"/>
        <pt x="521" y="648" on="1"/>
        <pt x="495" y="474" on="1"/>
        <pt x="435" y="474" on="1"/>
        <pt x="435" y="587" on="1"/>
        <pt x="330" y="587" on="1"/>
        <pt x="264" y="581" on="1"/>
        <pt x="232" y="363" on="1"/>
        <pt x="352" y="363" on="1"/>
        <pt x="374" y="425" on="1"/>
        <pt x="426" y="425" on="1"/>
        <pt x="401" y="241" on="1"/>
        <pt x="351" y="241" on="1"/>
        <pt x="349" y="306" on="1"/>
        <pt x="225" y="306" on="1"/>
        <pt x="191" y="67" on="1"/>
        <pt x="255" y="62" on="0"/>
        <pt x="275" y="61" on="1"/>
        <pt x="372" y="61" on="1"/>
        <pt x="411" y="170" on="1"/>
        <pt x="465" y="170" on="1"/>
        <pt x="444" y="0" on="1"/>
        <pt x="-3" y="0" on="1"/>
        <pt x="4" y="51" on="1"/>
      </contour>
    </TTGlyph>
    <TTGlyph name="Edieresis" xMin="-3" yMin="0" xMax="521" yMax="824">
      <contour>
        <pt x="192" y="689" on="0"/>
        <pt x="160" y="724" on="0"/>
        <pt x="160" y="750" on="1"/>
        <pt x="160" y="779" on="0"/>
        <pt x="196" y="824" on="0"/>
        <pt x="227" y="824" on="1"/>
        <pt x="253" y="824" on="0"/>
        <pt x="286" y="790" on="0"/>
        <pt x="286" y="762" on="1"/>
        <pt x="286" y="732" on="0"/>
        <pt x="250" y="689" on="0"/>
        <pt x="218" y="689" on="1"/>
      </contour>
      <contour>
        <pt x="411" y="689" on="0"/>
        <pt x="379" y="724" on="0"/>
        <pt x="379" y="750" on="1"/>
        <pt x="379" y="779" on="0"/>
        <pt x="415" y="824" on="0"/>
        <pt x="446" y="824" on="1"/>
        <pt x="472" y="824" on="0"/>
        <pt x="505" y="790" on="0"/>
        <pt x="505" y="762" on="1"/>
        <pt x="505" y="732" on="0"/>
        <pt x="469" y="689" on="0"/>
        <pt x="437" y="689" on="1"/>
      </contour>
      <contour>
        <pt x="75" y="65" on="1"/>
        <pt x="149" y="583" on="1"/>
        <pt x="79" y="597" on="1"/>
        <pt x="86" y="648" on="1"/>
        <pt x="521" y="648" on="1"/>
        <pt x="495" y="474" on="1"/>
        <pt x="435" y="474" on="1"/>
        <pt x="435" y="587" on="1"/>
        <pt x="330" y="587" on="1"/>
        <pt x="264" y="581" on="1"/>
        <pt x="232" y="363" on="1"/>
        <pt x="352" y="363" on="1"/>
        <pt x="374" y="425" on="1"/>
        <pt x="426" y="425" on="1"/>
        <pt x="401" y="241" on="1"/>
        <pt x="351" y="241" on="1"/>
        <pt x="349" y="306" on="1"/>
        <pt x="225" y="306" on="1"/>
        <pt x="191" y="67" on="1"/>
        <pt x="255" y="62" on="0"/>
        <pt x="275" y="61" on="1"/>
        <pt x="372" y="61" on="1"/>
        <pt x="411" y="170" on="1"/>
        <pt x="465" y="170" on="1"/>
        <pt x="444" y="0" on="1"/>
        <pt x="-3" y="0" on="1"/>
        <pt x="4" y="51" on="1"/>
      </contour>
    </TTGlyph>
    <TTGlyph name="Edotaccent" xMin="-3" yMin="0" xMax="521" yMax="827">
      <contour>
        <pt x="300" y="687" on="0"/>
        <pt x="266" y="723" on="0"/>
        <pt x="266" y="749" on="1"/>
        <pt x="266" y="779" on="0"/>
        <pt x="303" y="827" on="0"/>
        <pt x="337" y="827" on="1"/>
        <pt x="364" y="827" on="0"/>
        <pt x="398" y="792" on="0"/>
        <pt x="398" y="763" on="1"/>
        <pt x="398" y="733" on="0"/>
        <pt x="360" y="687" on="0"/>
        <pt x="326" y="687" on="1"/>
      </contour>
      <contour>
        <pt x="75" y="65" on="1"/>
        <pt x="149" y="583" on="1"/>
        <pt x="79" y="597" on="1"/>
        <pt x="86" y="648" on="1"/>
        <pt x="521" y="648" on="1"/>
        <pt x="495" y="474" on="1"/>
        <pt x="435" y="474" on="1"/>
        <pt x="435" y="587" on="1"/>
        <pt x="330" y="587" on="1"/>
        <pt x="264" y="581" on="1"/>
        <pt x="232" y="363" on="1"/>
        <pt x="352" y="363" on="1"/>
        <pt x="374" y="425" on="1"/>
        <pt x="426" y="425" on="1"/>
        <pt x="401" y="241" on="1"/>
        <pt x="351" y="241" on="1"/>
        <pt x="349" y="306" on="1"/>
        <pt x="225" y="306" on="1"/>
        <pt x="191" y="67" on="1"/>
        <pt x="255" y="62" on="0"/>
        <pt x="275" y="61" on="1"/>
        <pt x="372" y="61" on="1"/>
        <pt x="411" y="170" on="1"/>
        <pt x="465" y="170" on="1"/>
        <pt x="444" y="0" on="1"/>
        <pt x="-3" y="0" on="1"/>
        <pt x="4" y="51" on="1"/>
      </contour>
    </TTGlyph>
    <TTGlyph name="Egrave" xMin="-3" yMin="0" xMax="521" yMax="839">
      <contour>
        <pt x="225" y="740" on="0"/>
        <pt x="204" y="762" on="0"/>
        <pt x="204" y="778" on="1"/>
        <pt x="204" y="819" on="0"/>
        <pt x="241" y="839" on="1"/>
        <pt x="422" y="720" on="1"/>
        <pt x="399" y="676" on="1"/>
        <pt x="251" y="731" on="1"/>
      </contour>
      <contour>
        <pt x="75" y="65" on="1"/>
        <pt x="149" y="583" on="1"/>
        <pt x="79" y="597" on="1"/>
        <pt x="86" y="648" on="1"/>
        <pt x="521" y="648" on="1"/>
        <pt x="495" y="474" on="1"/>
        <pt x="435" y="474" on="1"/>
        <pt x="435" y="587" on="1"/>
        <pt x="330" y="587" on="1"/>
        <pt x="264" y="581" on="1"/>
        <pt x="232" y="363" on="1"/>
        <pt x="352" y="363" on="1"/>
        <pt x="374" y="425" on="1"/>
        <pt x="426" y="425" on="1"/>
        <pt x="401" y="241" on="1"/>
        <pt x="351" y="241" on="1"/>
        <pt x="349" y="306" on="1"/>
        <pt x="225" y="306" on="1"/>
        <pt x="191" y="67" on="1"/>
        <pt x="255" y="62" on="0"/>
        <pt x="275" y="61" on="1"/>
        <pt x="372" y="61" on="1"/>
        <pt x="411" y="170" on="1"/>
        <pt x="465" y="170" on="1"/>
        <pt x="444" y="0" on="1"/>
        <pt x="-3" y="0" on="1"/>
        <pt x="4" y="51" on="1"/>
      </contour>
    </TTGlyph>
    <TTGlyph name="Emacron" xMin="-3" yMin="0" xMax="521" yMax="792">
      <contour>
        <pt x="499" y="792" on="1"/>
        <pt x="490" y="717" on="1"/>
        <pt x="164" y="717" on="1"/>
        <pt x="173" y="792" on="1"/>
      </contour>
      <contour>
        <pt x="75" y="65" on="1"/>
        <pt x="149" y="583" on="1"/>
        <pt x="79" y="597" on="1"/>
        <pt x="86" y="648" on="1"/>
        <pt x="521" y="648" on="1"/>
        <pt x="495" y="474" on="1"/>
        <pt x="435" y="474" on="1"/>
        <pt x="435" y="587" on="1"/>
        <pt x="330" y="587" on="1"/>
        <pt x="264" y="581" on="1"/>
        <pt x="232" y="363" on="1"/>
        <pt x="352" y="363" on="1"/>
        <pt x="374" y="425" on="1"/>
        <pt x="426" y="425" on="1"/>
        <pt x="401" y="241" on="1"/>
        <pt x="351" y="241" on="1"/>
        <pt x="349" y="306" on="1"/>
        <pt x="225" y="306" on="1"/>
        <pt x="191" y="67" on="1"/>
        <pt x="255" y="62" on="0"/>
        <pt x="275" y="61" on="1"/>
        <pt x="372" y="61" on="1"/>
        <pt x="411" y="170" on="1"/>
        <pt x="465" y="170" on="1"/>
        <pt x="444" y="0" on="1"/>
        <pt x="-3" y="0" on="1"/>
        <pt x="4" y="51" on="1"/>
      </contour>
    </TTGlyph>
    <TTGlyph name="Eng" xMin="-5" yMin="-170" xMax="666" yMax="648">
      <contour>
        <pt x="666" y="648" on="1"/>
        <pt x="660" y="597" on="1"/>
        <pt x="589" y="583" on="1"/>
        <pt x="514" y="41" on="1"/>
        <pt x="506" y="-21" on="0"/>
        <pt x="443" y="-117" on="0"/>
        <pt x="348" y="-170" on="0"/>
        <pt x="291" y="-170" on="1"/>
        <pt x="259" y="-170" on="0"/>
        <pt x="230" y="-148" on="0"/>
        <pt x="230" y="-123" on="1"/>
        <pt x="230" y="-111" on="0"/>
        <pt x="236" y="-91" on="0"/>
        <pt x="243" y="-80" on="0"/>
        <pt x="244" y="-79" on="1"/>
        <pt x="321" y="-79" on="1"/>
        <pt x="341" y="-79" on="0"/>
        <pt x="372" y="-72" on="0"/>
        <pt x="374" y="-68" on="1"/>
        <pt x="393" y="-36" on="0"/>
        <pt x="402" y="15" on="1"/>
        <pt x="215" y="467" on="1"/>
        <pt x="212" y="483" on="1"/>
        <pt x="208" y="483" on="1"/>
        <pt x="148" y="65" on="1"/>
        <pt x="218" y="51" on="1"/>
        <pt x="213" y="0" on="1"/>
        <pt x="-5" y="0" on="1"/>
        <pt x="2" y="51" on="1"/>
        <pt x="73" y="65" on="1"/>
        <pt x="146" y="583" on="1"/>
        <pt x="77" y="597" on="1"/>
        <pt x="84" y="648" on="1"/>
        <pt x="260" y="648" on="1"/>
        <pt x="448" y="190" on="1"/>
        <pt x="453" y="170" on="1"/>
        <pt x="458" y="170" on="1"/>
        <pt x="459" y="190" on="1"/>
        <pt x="515" y="583" on="1"/>
        <pt x="445" y="597" on="1"/>
        <pt x="451" y="648" on="1"/>
      </contour>
    </TTGlyph>
    <TTGlyph name="Eogonek" xMin="-3" yMin="-183" xMax="521" yMax="648">
      <contour>
        <pt x="435" y="474" on="1"/>
        <pt x="435" y="587" on="1"/>
        <pt x="330" y="587" on="1"/>
        <pt x="264" y="581" on="1"/>
        <pt x="232" y="363" on="1"/>
        <pt x="352" y="363" on="1"/>
        <pt x="374" y="425" on="1"/>
        <pt x="426" y="425" on="1"/>
        <pt x="401" y="241" on="1"/>
        <pt x="351" y="241" on="1"/>
        <pt x="349" y="306" on="1"/>
        <pt x="225" y="306" on="1"/>
        <pt x="191" y="67" on="1"/>
        <pt x="255" y="62" on="0"/>
        <pt x="275" y="61" on="1"/>
        <pt x="372" y="61" on="1"/>
        <pt x="411" y="170" on="1"/>
        <pt x="465" y="170" on="1"/>
        <pt x="444" y="0" on="1"/>
        <pt x="415" y="0" on="1"/>
        <pt x="363" y="-40" on="0"/>
        <pt x="363" y="-85" on="1"/>
        <pt x="363" y="-121" on="0"/>
        <pt x="400" y="-121" on="1"/>
        <pt x="424" y="-121" on="0"/>
        <pt x="454" y="-101" on="1"/>
        <pt x="475" y="-133" on="1"/>
        <pt x="475" y="-135" on="0"/>
        <pt x="444" y="-161" on="0"/>
        <pt x="396" y="-183" on="0"/>
        <pt x="367" y="-183" on="1"/>
        <pt x="327" y="-183" on="0"/>
        <pt x="278" y="-150" on="0"/>
        <pt x="278" y="-115" on="1"/>
        <pt x="278" y="-80" on="0"/>
        <pt x="322" y="-22" on="0"/>
        <pt x="357" y="0" on="1"/>
        <pt x="-3" y="0" on="1"/>
        <pt x="4" y="51" on="1"/>
        <pt x="75" y="65" on="1"/>
        <pt x="149" y="583" on="1"/>
        <pt x="79" y="597" on="1"/>
        <pt x="86" y="648" on="1"/>
        <pt x="521" y="648" on="1"/>
        <pt x="495" y="474" on="1"/>
      </contour>
    </TTGlyph>
    <TTGlyph name="Eth" xMin="-5" yMin="0" xMax="610" yMax="648">
      <contour>
        <pt x="73" y="65" on="1"/>
        <pt x="107" y="303" on="1"/>
        <pt x="29" y="303" on="1"/>
        <pt x="38" y="365" on="1"/>
        <pt x="115" y="365" on="1"/>
        <pt x="146" y="583" on="1"/>
        <pt x="77" y="597" on="1"/>
        <pt x="84" y="648" on="1"/>
        <pt x="340" y="648" on="1"/>
        <pt x="472" y="648" on="0"/>
        <pt x="610" y="526" on="0"/>
        <pt x="610" y="407" on="1"/>
        <pt x="610" y="288" on="0"/>
        <pt x="519" y="103" on="0"/>
        <pt x="353" y="0" on="0"/>
        <pt x="246" y="0" on="1"/>
        <pt x="-5" y="0" on="1"/>
        <pt x="2" y="51" on="1"/>
      </contour>
      <contour>
        <pt x="228" y="61" on="0"/>
        <pt x="253" y="61" on="1"/>
        <pt x="359" y="61" on="0"/>
        <pt x="481" y="222" on="0"/>
        <pt x="482" y="377" on="1"/>
        <pt x="482" y="460" on="0"/>
        <pt x="440" y="551" on="0"/>
        <pt x="361" y="587" on="0"/>
        <pt x="298" y="587" on="1"/>
        <pt x="276" y="587" on="0"/>
        <pt x="262" y="585" on="1"/>
        <pt x="231" y="365" on="1"/>
        <pt x="363" y="365" on="1"/>
        <pt x="353" y="303" on="1"/>
        <pt x="222" y="303" on="1"/>
        <pt x="188" y="63" on="1"/>
      </contour>
    </TTGlyph>
    <TTGlyph name="Euro" xMin="-2" yMin="-11" xMax="547" yMax="660">
      <contour>
        <pt x="427" y="660" on="0"/>
        <pt x="516" y="649" on="0"/>
        <pt x="547" y="640" on="1"/>
        <pt x="521" y="474" on="1"/>
        <pt x="461" y="474" on="1"/>
        <pt x="456" y="571" on="1"/>
        <pt x="439" y="584" on="0"/>
        <pt x="390" y="600" on="0"/>
        <pt x="365" y="600" on="1"/>
        <pt x="300" y="600" on="0"/>
        <pt x="224" y="495" on="0"/>
        <pt x="207" y="411" on="1"/>
        <pt x="392" y="411" on="1"/>
        <pt x="362" y="342" on="1"/>
        <pt x="13" y="342" on="1"/>
        <pt x="43" y="411" on="1"/>
        <pt x="94" y="411" on="1"/>
        <pt x="128" y="525" on="0"/>
        <pt x="277" y="660" on="0"/>
        <pt x="394" y="660" on="1"/>
      </contour>
      <contour>
        <pt x="426" y="192" on="1"/>
        <pt x="486" y="192" on="1"/>
        <pt x="471" y="28" on="1"/>
        <pt x="432" y="11" on="0"/>
        <pt x="332" y="-11" on="0"/>
        <pt x="290" y="-11" on="1"/>
        <pt x="189" y="-11" on="0"/>
        <pt x="78" y="115" on="0"/>
        <pt x="69" y="224" on="1"/>
        <pt x="-2" y="224" on="1"/>
        <pt x="29" y="294" on="1"/>
        <pt x="343" y="294" on="1"/>
        <pt x="311" y="224" on="1"/>
        <pt x="188" y="224" on="1"/>
        <pt x="192" y="146" on="0"/>
        <pt x="246" y="50" on="0"/>
        <pt x="307" y="50" on="1"/>
        <pt x="330" y="50" on="0"/>
        <pt x="378" y="65" on="0"/>
        <pt x="394" y="78" on="1"/>
      </contour>
    </TTGlyph>
    <TTGlyph name="Euro.osf" xMin="-5" yMin="-11" xMax="527" yMax="532">
      <contour>
        <pt x="107" y="348" on="1"/>
        <pt x="138" y="435" on="0"/>
        <pt x="275" y="532" on="0"/>
        <pt x="370" y="532" on="1"/>
        <pt x="427" y="532" on="0"/>
        <pt x="496" y="520" on="0"/>
        <pt x="527" y="509" on="1"/>
        <pt x="510" y="362" on="1"/>
        <pt x="453" y="362" on="1"/>
        <pt x="447" y="450" on="1"/>
        <pt x="410" y="461" on="0"/>
        <pt x="366" y="461" on="1"/>
        <pt x="305" y="461" on="0"/>
        <pt x="234" y="408" on="0"/>
        <pt x="221" y="348" on="1"/>
        <pt x="392" y="348" on="1"/>
        <pt x="361" y="278" on="1"/>
        <pt x="45" y="278" on="1"/>
        <pt x="75" y="348" on="1"/>
      </contour>
      <contour>
        <pt x="340" y="231" on="1"/>
        <pt x="309" y="161" on="1"/>
        <pt x="203" y="161" on="1"/>
        <pt x="203" y="101" on="0"/>
        <pt x="267" y="56" on="0"/>
        <pt x="320" y="56" on="1"/>
        <pt x="351" y="56" on="0"/>
        <pt x="391" y="68" on="0"/>
        <pt x="409" y="76" on="1"/>
        <pt x="437" y="171" on="1"/>
        <pt x="493" y="171" on="1"/>
        <pt x="477" y="25" on="1"/>
        <pt x="395" y="-11" on="0"/>
        <pt x="297" y="-11" on="1"/>
        <pt x="191" y="-11" on="0"/>
        <pt x="81" y="67" on="0"/>
        <pt x="81" y="161" on="1"/>
        <pt x="-5" y="161" on="1"/>
        <pt x="27" y="231" on="1"/>
      </contour>
    </TTGlyph>
    <TTGlyph name="F" xMin="-3" yMin="0" xMax="526" yMax="648">
      <contour>
        <pt x="75" y="65" on="1"/>
        <pt x="149" y="583" on="1"/>
        <pt x="79" y="597" on="1"/>
        <pt x="86" y="648" on="1"/>
        <pt x="526" y="648" on="1"/>
        <pt x="499" y="476" on="1"/>
        <pt x="438" y="476" on="1"/>
        <pt x="438" y="586" on="1"/>
        <pt x="330" y="586" on="1"/>
        <pt x="263" y="578" on="1"/>
        <pt x="229" y="344" on="1"/>
        <pt x="362" y="344" on="1"/>
        <pt x="381" y="406" on="1"/>
        <pt x="431" y="406" on="1"/>
        <pt x="404" y="216" on="1"/>
        <pt x="356" y="216" on="1"/>
        <pt x="354" y="282" on="1"/>
        <pt x="222" y="282" on="1"/>
        <pt x="190" y="62" on="1"/>
        <pt x="287" y="49" on="1"/>
        <pt x="282" y="0" on="1"/>
        <pt x="-3" y="0" on="1"/>
        <pt x="4" y="51" on="1"/>
      </contour>
    </TTGlyph>
    <TTGlyph name="G" xMin="36" yMin="-11" xMax="555" yMax="660">
      <contour>
        <pt x="397" y="24" on="1"/>
        <pt x="391" y="21" on="0"/>
        <pt x="357" y="0" on="0"/>
        <pt x="306" y="-11" on="0"/>
        <pt x="269" y="-11" on="1"/>
        <pt x="160" y="-11" on="0"/>
        <pt x="36" y="115" on="0"/>
        <pt x="36" y="240" on="1"/>
        <pt x="36" y="354" on="0"/>
        <pt x="114" y="545" on="0"/>
        <pt x="266" y="660" on="0"/>
        <pt x="373" y="660" on="1"/>
        <pt x="471" y="660" on="0"/>
        <pt x="555" y="639" on="1"/>
        <pt x="530" y="473" on="1"/>
        <pt x="471" y="473" on="1"/>
        <pt x="465" y="570" on="1"/>
        <pt x="411" y="600" on="0"/>
        <pt x="349" y="600" on="1"/>
        <pt x="261" y="600" on="0"/>
        <pt x="165" y="428" on="0"/>
        <pt x="165" y="248" on="1"/>
        <pt x="165" y="143" on="0"/>
        <pt x="226" y="50" on="0"/>
        <pt x="301" y="50" on="1"/>
        <pt x="332" y="50" on="0"/>
        <pt x="373" y="66" on="0"/>
        <pt x="394" y="77" on="1"/>
        <pt x="420" y="261" on="1"/>
        <pt x="313" y="278" on="1"/>
        <pt x="318" y="329" on="1"/>
        <pt x="535" y="329" on="1"/>
        <pt x="492" y="0" on="1"/>
        <pt x="423" y="0" on="1"/>
        <pt x="405" y="24" on="1"/>
      </contour>
    </TTGlyph>
    <TTGlyph name="G_tilde.loclGUA" xMin="36" yMin="-11" xMax="587" yMax="823">
      <component glyphName=".ttfautohint" x="36" y="0" flags="0x0"/>
      <component glyphName="G" x="0" y="0" flags="0x0"/>
      <component glyphName="tildecomb.case" x="512" y="0" flags="0x0"/>
    </TTGlyph>
    <TTGlyph name="Gbreve" xMin="34" yMin="-11" xMax="553" yMax="835">
      <contour>
        <pt x="516" y="769" on="0"/>
        <pt x="427" y="685" on="0"/>
        <pt x="353" y="685" on="1"/>
        <pt x="319" y="685" on="0"/>
        <pt x="258" y="712" on="0"/>
        <pt x="222" y="757" on="0"/>
        <pt x="222" y="781" on="1"/>
        <pt x="222" y="795" on="0"/>
        <pt x="257" y="823" on="0"/>
        <pt x="283" y="832" on="1"/>
        <pt x="316" y="770" on="0"/>
        <pt x="370" y="770" on="1"/>
        <pt x="417" y="770" on="0"/>
        <pt x="484" y="807" on="0"/>
        <pt x="513" y="835" on="1"/>
        <pt x="541" y="813" on="1"/>
      </contour>
      <contour>
        <pt x="394" y="24" on="1"/>
        <pt x="388" y="21" on="0"/>
        <pt x="354" y="0" on="0"/>
        <pt x="303" y="-11" on="0"/>
        <pt x="266" y="-11" on="1"/>
        <pt x="157" y="-11" on="0"/>
        <pt x="34" y="114" on="0"/>
        <pt x="34" y="240" on="1"/>
        <pt x="34" y="354" on="0"/>
        <pt x="111" y="545" on="0"/>
        <pt x="264" y="660" on="0"/>
        <pt x="371" y="660" on="1"/>
        <pt x="465" y="660" on="0"/>
        <pt x="553" y="639" on="1"/>
        <pt x="528" y="473" on="1"/>
        <pt x="468" y="473" on="1"/>
        <pt x="462" y="570" on="1"/>
        <pt x="411" y="600" on="0"/>
        <pt x="346" y="600" on="1"/>
        <pt x="258" y="600" on="0"/>
        <pt x="162" y="428" on="0"/>
        <pt x="162" y="248" on="1"/>
        <pt x="162" y="143" on="0"/>
        <pt x="223" y="50" on="0"/>
        <pt x="298" y="50" on="1"/>
        <pt x="329" y="50" on="0"/>
        <pt x="370" y="66" on="0"/>
        <pt x="391" y="77" on="1"/>
        <pt x="417" y="261" on="1"/>
        <pt x="310" y="278" on="1"/>
        <pt x="315" y="329" on="1"/>
        <pt x="532" y="329" on="1"/>
        <pt x="489" y="0" on="1"/>
        <pt x="420" y="0" on="1"/>
        <pt x="402" y="24" on="1"/>
      </contour>
    </TTGlyph>
    <TTGlyph name="Gcaron" xMin="36" yMin="-11" xMax="555" yMax="838">
      <component glyphName=".ttfautohint" x="36" y="0" flags="0x0"/>
      <component glyphName="G" x="0" y="0" flags="0x0"/>
      <component glyphName="uni030C.case" x="464" y="0" flags="0x0"/>
    </TTGlyph>
    <TTGlyph name="Gcircumflex" xMin="36" yMin="-11" xMax="555" yMax="837">
      <component glyphName=".ttfautohint" x="36" y="0" flags="0x0"/>
      <component glyphName="G" x="0" y="0" flags="0x0"/>
      <component glyphName="uni0302.case" x="478" y="0" flags="0x0"/>
    </TTGlyph>
    <TTGlyph name="Gcommaaccent" xMin="34" yMin="-210" xMax="553" yMax="660">
      <contour>
        <pt x="394" y="24" on="1"/>
        <pt x="388" y="21" on="0"/>
        <pt x="354" y="0" on="0"/>
        <pt x="303" y="-11" on="0"/>
        <pt x="266" y="-11" on="1"/>
        <pt x="157" y="-11" on="0"/>
        <pt x="34" y="114" on="0"/>
        <pt x="34" y="240" on="1"/>
        <pt x="34" y="354" on="0"/>
        <pt x="111" y="545" on="0"/>
        <pt x="264" y="660" on="0"/>
        <pt x="371" y="660" on="1"/>
        <pt x="465" y="660" on="0"/>
        <pt x="553" y="639" on="1"/>
        <pt x="528" y="473" on="1"/>
        <pt x="468" y="473" on="1"/>
        <pt x="462" y="570" on="1"/>
        <pt x="411" y="600" on="0"/>
        <pt x="346" y="600" on="1"/>
        <pt x="258" y="600" on="0"/>
        <pt x="162" y="428" on="0"/>
        <pt x="162" y="248" on="1"/>
        <pt x="162" y="143" on="0"/>
        <pt x="223" y="50" on="0"/>
        <pt x="298" y="50" on="1"/>
        <pt x="329" y="50" on="0"/>
        <pt x="370" y="66" on="0"/>
        <pt x="391" y="77" on="1"/>
        <pt x="417" y="261" on="1"/>
        <pt x="310" y="278" on="1"/>
        <pt x="315" y="329" on="1"/>
        <pt x="532" y="329" on="1"/>
        <pt x="489" y="0" on="1"/>
        <pt x="420" y="0" on="1"/>
        <pt x="402" y="24" on="1"/>
      </contour>
      <contour>
        <pt x="212" y="-182" on="0"/>
        <pt x="230" y="-162" on="0"/>
        <pt x="246" y="-128" on="0"/>
        <pt x="246" y="-108" on="1"/>
        <pt x="246" y="-89" on="0"/>
        <pt x="231" y="-61" on="0"/>
        <pt x="225" y="-57" on="1"/>
        <pt x="232" y="-45" on="0"/>
        <pt x="259" y="-27" on="0"/>
        <pt x="277" y="-27" on="1"/>
        <pt x="305" y="-27" on="0"/>
        <pt x="336" y="-60" on="0"/>
        <pt x="336" y="-86" on="1"/>
        <pt x="336" y="-121" on="0"/>
        <pt x="291" y="-176" on="0"/>
        <pt x="241" y="-207" on="0"/>
        <pt x="231" y="-210" on="1"/>
        <pt x="209" y="-185" on="1"/>
      </contour>
    </TTGlyph>
    <TTGlyph name="Gdotaccent" xMin="36" yMin="-11" xMax="555" yMax="827">
      <component glyphName=".ttfautohint" x="36" y="0" flags="0x0"/>
      <component glyphName="G" x="0" y="0" flags="0x0"/>
      <component glyphName="uni0307.case" x="392" y="0" flags="0x0"/>
    </TTGlyph>
    <TTGlyph name="H" xMin="-3" yMin="0" xMax="680" yMax="648">
      <contour>
        <pt x="74" y="65" on="1"/>
        <pt x="148" y="583" on="1"/>
        <pt x="78" y="597" on="1"/>
        <pt x="85" y="648" on="1"/>
        <pt x="340" y="648" on="1"/>
        <pt x="333" y="597" on="1"/>
        <pt x="262" y="583" on="1"/>
        <pt x="231" y="361" on="1"/>
        <pt x="456" y="361" on="1"/>
        <pt x="488" y="583" on="1"/>
        <pt x="418" y="597" on="1"/>
        <pt x="425" y="648" on="1"/>
        <pt x="680" y="648" on="1"/>
        <pt x="673" y="597" on="1"/>
        <pt x="602" y="583" on="1"/>
        <pt x="528" y="65" on="1"/>
        <pt x="598" y="51" on="1"/>
        <pt x="592" y="0" on="1"/>
        <pt x="336" y="0" on="1"/>
        <pt x="343" y="51" on="1"/>
        <pt x="414" y="65" on="1"/>
        <pt x="447" y="299" on="1"/>
        <pt x="222" y="299" on="1"/>
        <pt x="189" y="65" on="1"/>
        <pt x="258" y="51" on="1"/>
        <pt x="252" y="0" on="1"/>
        <pt x="-3" y="0" on="1"/>
        <pt x="3" y="51" on="1"/>
      </contour>
    </TTGlyph>
    <TTGlyph name="Hbar" xMin="-3" yMin="0" xMax="680" yMax="648">
      <contour>
        <pt x="602" y="583" on="1"/>
        <pt x="589" y="490" on="1"/>
        <pt x="657" y="490" on="1"/>
        <pt x="648" y="429" on="1"/>
        <pt x="581" y="429" on="1"/>
        <pt x="528" y="65" on="1"/>
        <pt x="598" y="51" on="1"/>
        <pt x="592" y="0" on="1"/>
        <pt x="336" y="0" on="1"/>
        <pt x="343" y="51" on="1"/>
        <pt x="414" y="65" on="1"/>
        <pt x="442" y="266" on="1"/>
        <pt x="217" y="266" on="1"/>
        <pt x="189" y="65" on="1"/>
        <pt x="258" y="51" on="1"/>
        <pt x="252" y="0" on="1"/>
        <pt x="-3" y="0" on="1"/>
        <pt x="3" y="51" on="1"/>
        <pt x="74" y="65" on="1"/>
        <pt x="126" y="429" on="1"/>
        <pt x="58" y="429" on="1"/>
        <pt x="67" y="490" on="1"/>
        <pt x="134" y="490" on="1"/>
        <pt x="148" y="583" on="1"/>
        <pt x="78" y="597" on="1"/>
        <pt x="85" y="648" on="1"/>
        <pt x="340" y="648" on="1"/>
        <pt x="333" y="597" on="1"/>
        <pt x="262" y="583" on="1"/>
        <pt x="249" y="490" on="1"/>
        <pt x="474" y="490" on="1"/>
        <pt x="488" y="583" on="1"/>
        <pt x="418" y="597" on="1"/>
        <pt x="425" y="648" on="1"/>
        <pt x="680" y="648" on="1"/>
        <pt x="673" y="597" on="1"/>
      </contour>
      <contour>
        <pt x="466" y="429" on="1"/>
        <pt x="241" y="429" on="1"/>
        <pt x="226" y="328" on="1"/>
        <pt x="451" y="328" on="1"/>
      </contour>
    </TTGlyph>
    <TTGlyph name="Hcircumflex" xMin="-3" yMin="0" xMax="680" yMax="837">
      <component glyphName=".ttfautohint" x="0" y="0" flags="0x0"/>
      <component glyphName="H" x="0" y="0" flags="0x0"/>
      <component glyphName="uni0302.case" x="479" y="0" flags="0x0"/>
    </TTGlyph>
    <TTGlyph name="I" xMin="-3" yMin="0" xMax="341" yMax="648">
      <contour>
        <pt x="75" y="65" on="1"/>
        <pt x="149" y="583" on="1"/>
        <pt x="79" y="597" on="1"/>
        <pt x="86" y="648" on="1"/>
        <pt x="341" y="648" on="1"/>
        <pt x="334" y="597" on="1"/>
        <pt x="263" y="583" on="1"/>
        <pt x="190" y="65" on="1"/>
        <pt x="259" y="51" on="1"/>
        <pt x="253" y="0" on="1"/>
        <pt x="-3" y="0" on="1"/>
        <pt x="4" y="51" on="1"/>
      </contour>
    </TTGlyph>
    <TTGlyph name="IJ" xMin="-3" yMin="-14" xMax="775" yMax="648">
      <component glyphName=".ttfautohint" x="0" y="0" flags="0x0"/>
      <component glyphName="I" x="0" y="0" flags="0x0"/>
      <component glyphName="J" x="332" y="0" flags="0x0"/>
    </TTGlyph>
    <TTGlyph name="Iacute" xMin="-3" yMin="0" xMax="345" yMax="839">
      <contour>
        <pt x="128" y="720" on="1"/>
        <pt x="309" y="839" on="1"/>
        <pt x="345" y="819" on="0"/>
        <pt x="345" y="779" on="1"/>
        <pt x="345" y="763" on="0"/>
        <pt x="325" y="740" on="0"/>
        <pt x="299" y="731" on="1"/>
        <pt x="151" y="676" on="1"/>
      </contour>
      <contour>
        <pt x="75" y="65" on="1"/>
        <pt x="148" y="583" on="1"/>
        <pt x="79" y="597" on="1"/>
        <pt x="85" y="648" on="1"/>
        <pt x="340" y="648" on="1"/>
        <pt x="334" y="597" on="1"/>
        <pt x="263" y="583" on="1"/>
        <pt x="190" y="65" on="1"/>
        <pt x="259" y="51" on="1"/>
        <pt x="252" y="0" on="1"/>
        <pt x="-3" y="0" on="1"/>
        <pt x="4" y="51" on="1"/>
      </contour>
    </TTGlyph>
    <TTGlyph name="Iacute_J.loclNLD" xMin="-3" yMin="-14" xMax="821" yMax="839">
      <component glyphName=".ttfautohint" x="0" y="0" flags="0x0"/>
      <component glyphName="I" x="0" y="0" flags="0x0"/>
      <component glyphName="acutecomb.case" x="314" y="0" flags="0x0"/>
      <component glyphName="J" x="332" y="0" flags="0x0"/>
      <component glyphName="acutecomb.case" x="748" y="0" flags="0x0"/>
    </TTGlyph>
    <TTGlyph name="Ibreve" xMin="-3" yMin="0" xMax="391" yMax="835">
      <component glyphName=".ttfautohint" x="0" y="0" flags="0x0"/>
      <component glyphName="I" x="0" y="0" flags="0x0"/>
      <component glyphName="uni0306.case" x="312" y="0" flags="0x0"/>
    </TTGlyph>
    <TTGlyph name="Icircumflex" xMin="-8" yMin="0" xMax="368" yMax="837">
      <contour>
        <pt x="160" y="786" on="1"/>
        <pt x="180" y="802" on="1"/>
        <pt x="199" y="817" on="0"/>
        <pt x="227" y="837" on="0"/>
        <pt x="233" y="837" on="1"/>
        <pt x="241" y="837" on="0"/>
        <pt x="270" y="814" on="0"/>
        <pt x="290" y="795" on="1"/>
        <pt x="368" y="725" on="1"/>
        <pt x="331" y="679" on="1"/>
        <pt x="220" y="742" on="1"/>
        <pt x="102" y="683" on="1"/>
        <pt x="76" y="720" on="1"/>
      </contour>
      <contour>
        <pt x="70" y="65" on="1"/>
        <pt x="143" y="583" on="1"/>
        <pt x="74" y="597" on="1"/>
        <pt x="81" y="648" on="1"/>
        <pt x="336" y="648" on="1"/>
        <pt x="329" y="597" on="1"/>
        <pt x="258" y="583" on="1"/>
        <pt x="185" y="65" on="1"/>
        <pt x="254" y="51" on="1"/>
        <pt x="247" y="0" on="1"/>
        <pt x="-8" y="0" on="1"/>
        <pt x="-1" y="51" on="1"/>
      </contour>
    </TTGlyph>
    <TTGlyph name="Idieresis" xMin="-3" yMin="0" xMax="396" yMax="824">
      <contour>
        <pt x="91" y="689" on="0"/>
        <pt x="59" y="724" on="0"/>
        <pt x="59" y="750" on="1"/>
        <pt x="59" y="779" on="0"/>
        <pt x="95" y="824" on="0"/>
        <pt x="126" y="824" on="1"/>
        <pt x="152" y="824" on="0"/>
        <pt x="185" y="790" on="0"/>
        <pt x="185" y="762" on="1"/>
        <pt x="185" y="732" on="0"/>
        <pt x="148" y="689" on="0"/>
        <pt x="117" y="689" on="1"/>
      </contour>
      <contour>
        <pt x="303" y="689" on="0"/>
        <pt x="270" y="724" on="0"/>
        <pt x="270" y="750" on="1"/>
        <pt x="270" y="779" on="0"/>
        <pt x="307" y="824" on="0"/>
        <pt x="338" y="824" on="1"/>
        <pt x="364" y="824" on="0"/>
        <pt x="396" y="790" on="0"/>
        <pt x="396" y="762" on="1"/>
        <pt x="396" y="732" on="0"/>
        <pt x="360" y="689" on="0"/>
        <pt x="328" y="689" on="1"/>
      </contour>
      <contour>
        <pt x="75" y="65" on="1"/>
        <pt x="148" y="583" on="1"/>
        <pt x="79" y="597" on="1"/>
        <pt x="85" y="648" on="1"/>
        <pt x="340" y="648" on="1"/>
        <pt x="334" y="597" on="1"/>
        <pt x="263" y="583" on="1"/>
        <pt x="190" y="65" on="1"/>
        <pt x="259" y="51" on="1"/>
        <pt x="252" y="0" on="1"/>
        <pt x="-3" y="0" on="1"/>
        <pt x="4" y="51" on="1"/>
      </contour>
    </TTGlyph>
    <TTGlyph name="Idotaccent" xMin="-5" yMin="0" xMax="339" yMax="827">
      <contour>
        <pt x="200" y="687" on="0"/>
        <pt x="166" y="723" on="0"/>
        <pt x="166" y="749" on="1"/>
        <pt x="166" y="779" on="0"/>
        <pt x="203" y="827" on="0"/>
        <pt x="237" y="827" on="1"/>
        <pt x="264" y="827" on="0"/>
        <pt x="298" y="792" on="0"/>
        <pt x="298" y="763" on="1"/>
        <pt x="298" y="733" on="0"/>
        <pt x="260" y="687" on="0"/>
        <pt x="226" y="687" on="1"/>
      </contour>
      <contour>
        <pt x="73" y="65" on="1"/>
        <pt x="146" y="583" on="1"/>
        <pt x="77" y="597" on="1"/>
        <pt x="84" y="648" on="1"/>
        <pt x="339" y="648" on="1"/>
        <pt x="332" y="597" on="1"/>
        <pt x="261" y="583" on="1"/>
        <pt x="188" y="65" on="1"/>
        <pt x="257" y="51" on="1"/>
        <pt x="250" y="0" on="1"/>
        <pt x="-5" y="0" on="1"/>
        <pt x="2" y="51" on="1"/>
      </contour>
    </TTGlyph>
    <TTGlyph name="Igrave" xMin="-3" yMin="0" xMax="340" yMax="839">
      <contour>
        <pt x="128" y="740" on="0"/>
        <pt x="108" y="762" on="0"/>
        <pt x="108" y="778" on="1"/>
        <pt x="108" y="818" on="0"/>
        <pt x="144" y="839" on="1"/>
        <pt x="325" y="720" on="1"/>
        <pt x="302" y="676" on="1"/>
        <pt x="154" y="731" on="1"/>
      </contour>
      <contour>
        <pt x="75" y="65" on="1"/>
        <pt x="148" y="583" on="1"/>
        <pt x="79" y="597" on="1"/>
        <pt x="85" y="648" on="1"/>
        <pt x="340" y="648" on="1"/>
        <pt x="334" y="597" on="1"/>
        <pt x="263" y="583" on="1"/>
        <pt x="190" y="65" on="1"/>
        <pt x="259" y="51" on="1"/>
        <pt x="252" y="0" on="1"/>
        <pt x="-3" y="0" on="1"/>
        <pt x="4" y="51" on="1"/>
      </contour>
    </TTGlyph>
    <TTGlyph name="Imacron" xMin="-3" yMin="0" xMax="377" yMax="792">
      <contour>
        <pt x="377" y="792" on="1"/>
        <pt x="368" y="717" on="1"/>
        <pt x="69" y="717" on="1"/>
        <pt x="79" y="792" on="1"/>
      </contour>
      <contour>
        <pt x="75" y="65" on="1"/>
        <pt x="148" y="583" on="1"/>
        <pt x="79" y="597" on="1"/>
        <pt x="85" y="648" on="1"/>
        <pt x="340" y="648" on="1"/>
        <pt x="334" y="597" on="1"/>
        <pt x="263" y="583" on="1"/>
        <pt x="190" y="65" on="1"/>
        <pt x="259" y="51" on="1"/>
        <pt x="252" y="0" on="1"/>
        <pt x="-3" y="0" on="1"/>
        <pt x="4" y="51" on="1"/>
      </contour>
    </TTGlyph>
    <TTGlyph name="Iogonek" xMin="-3" yMin="-183" xMax="340" yMax="648">
      <contour>
        <pt x="75" y="65" on="1"/>
        <pt x="148" y="583" on="1"/>
        <pt x="79" y="597" on="1"/>
        <pt x="85" y="648" on="1"/>
        <pt x="340" y="648" on="1"/>
        <pt x="334" y="597" on="1"/>
        <pt x="263" y="583" on="1"/>
        <pt x="190" y="65" on="1"/>
        <pt x="259" y="51" on="1"/>
        <pt x="252" y="0" on="1"/>
        <pt x="166" y="0" on="1"/>
        <pt x="114" y="-40" on="0"/>
        <pt x="114" y="-85" on="1"/>
        <pt x="114" y="-121" on="0"/>
        <pt x="151" y="-121" on="1"/>
        <pt x="175" y="-121" on="0"/>
        <pt x="205" y="-101" on="1"/>
        <pt x="226" y="-133" on="1"/>
        <pt x="226" y="-134" on="0"/>
        <pt x="194" y="-161" on="0"/>
        <pt x="146" y="-183" on="0"/>
        <pt x="118" y="-183" on="1"/>
        <pt x="77" y="-183" on="0"/>
        <pt x="29" y="-150" on="0"/>
        <pt x="29" y="-115" on="1"/>
        <pt x="29" y="-79" on="0"/>
        <pt x="73" y="-21" on="0"/>
        <pt x="108" y="0" on="1"/>
        <pt x="-3" y="0" on="1"/>
        <pt x="4" y="51" on="1"/>
      </contour>
    </TTGlyph>
    <TTGlyph name="Itilde" xMin="-3" yMin="0" xMax="421" yMax="823">
      <component glyphName=".ttfautohint" x="0" y="0" flags="0x0"/>
      <component glyphName="I" x="0" y="0" flags="0x0"/>
      <component glyphName="tildecomb.case" x="346" y="0" flags="0x0"/>
    </TTGlyph>
    <TTGlyph name="J" xMin="-15" yMin="-14" xMax="443" yMax="648">
      <contour>
        <pt x="69" y="180" on="1"/>
        <pt x="83" y="60" on="1"/>
        <pt x="83" y="59" on="0"/>
        <pt x="111" y="48" on="0"/>
        <pt x="128" y="48" on="1"/>
        <pt x="157" y="48" on="0"/>
        <pt x="182" y="73" on="0"/>
        <pt x="188" y="113" on="1"/>
        <pt x="252" y="582" on="1"/>
        <pt x="176" y="597" on="1"/>
        <pt x="182" y="648" on="1"/>
        <pt x="443" y="648" on="1"/>
        <pt x="438" y="597" on="1"/>
        <pt x="367" y="583" on="1"/>
        <pt x="304" y="123" on="1"/>
        <pt x="294" y="51" on="0"/>
        <pt x="212" y="-14" on="0"/>
        <pt x="119" y="-14" on="1"/>
        <pt x="82" y="-14" on="0"/>
        <pt x="2" y="4" on="0"/>
        <pt x="-15" y="13" on="1"/>
        <pt x="6" y="180" on="1"/>
      </contour>
    </TTGlyph>
    <TTGlyph name="Jcircumflex" xMin="-15" yMin="-14" xMax="480" yMax="837">
      <component glyphName=".ttfautohint" x="0" y="0" flags="0x0"/>
      <component glyphName="J" x="0" y="0" flags="0x0"/>
      <component glyphName="uni0302.case" x="414" y="0" flags="0x0"/>
    </TTGlyph>
    <TTGlyph name="K" xMin="-3" yMin="0" xMax="601" yMax="648">
      <contour>
        <pt x="75" y="65" on="1"/>
        <pt x="149" y="583" on="1"/>
        <pt x="79" y="597" on="1"/>
        <pt x="86" y="648" on="1"/>
        <pt x="341" y="648" on="1"/>
        <pt x="334" y="597" on="1"/>
        <pt x="263" y="583" on="1"/>
        <pt x="231" y="359" on="1"/>
        <pt x="250" y="359" on="1"/>
        <pt x="444" y="578" on="1"/>
        <pt x="444" y="585" on="1"/>
        <pt x="393" y="597" on="1"/>
        <pt x="399" y="648" on="1"/>
        <pt x="601" y="648" on="1"/>
        <pt x="594" y="597" on="1"/>
        <pt x="536" y="584" on="1"/>
        <pt x="335" y="359" on="1"/>
        <pt x="485" y="66" on="1"/>
        <pt x="556" y="51" on="1"/>
        <pt x="549" y="0" on="1"/>
        <pt x="425" y="0" on="1"/>
        <pt x="404" y="0" on="0"/>
        <pt x="383" y="18" on="0"/>
        <pt x="372" y="40" on="1"/>
        <pt x="243" y="304" on="1"/>
        <pt x="224" y="304" on="1"/>
        <pt x="190" y="65" on="1"/>
        <pt x="259" y="51" on="1"/>
        <pt x="253" y="0" on="1"/>
        <pt x="-3" y="0" on="1"/>
        <pt x="4" y="51" on="1"/>
      </contour>
    </TTGlyph>
    <TTGlyph name="Kcommaaccent" xMin="-5" yMin="-210" xMax="599" yMax="648">
      <contour>
        <pt x="73" y="65" on="1"/>
        <pt x="146" y="583" on="1"/>
        <pt x="77" y="597" on="1"/>
        <pt x="84" y="648" on="1"/>
        <pt x="339" y="648" on="1"/>
        <pt x="332" y="597" on="1"/>
        <pt x="261" y="583" on="1"/>
        <pt x="229" y="359" on="1"/>
        <pt x="248" y="359" on="1"/>
        <pt x="442" y="578" on="1"/>
        <pt x="442" y="585" on="1"/>
        <pt x="391" y="597" on="1"/>
        <pt x="397" y="648" on="1"/>
        <pt x="599" y="648" on="1"/>
        <pt x="592" y="597" on="1"/>
        <pt x="534" y="584" on="1"/>
        <pt x="333" y="359" on="1"/>
        <pt x="482" y="67" on="1"/>
        <pt x="554" y="51" on="1"/>
        <pt x="547" y="0" on="1"/>
        <pt x="422" y="0" on="1"/>
        <pt x="401" y="0" on="0"/>
        <pt x="380" y="18" on="0"/>
        <pt x="369" y="40" on="1"/>
        <pt x="239" y="304" on="1"/>
        <pt x="222" y="304" on="1"/>
        <pt x="188" y="65" on="1"/>
        <pt x="257" y="51" on="1"/>
        <pt x="250" y="0" on="1"/>
        <pt x="-5" y="0" on="1"/>
        <pt x="2" y="51" on="1"/>
      </contour>
      <contour>
        <pt x="206" y="-182" on="0"/>
        <pt x="224" y="-162" on="0"/>
        <pt x="240" y="-128" on="0"/>
        <pt x="240" y="-108" on="1"/>
        <pt x="240" y="-90" on="0"/>
        <pt x="225" y="-63" on="0"/>
        <pt x="219" y="-57" on="1"/>
        <pt x="226" y="-45" on="0"/>
        <pt x="253" y="-27" on="0"/>
        <pt x="271" y="-27" on="1"/>
        <pt x="299" y="-27" on="0"/>
        <pt x="330" y="-60" on="0"/>
        <pt x="330" y="-86" on="1"/>
        <pt x="330" y="-136" on="0"/>
        <pt x="252" y="-199" on="0"/>
        <pt x="225" y="-210" on="1"/>
        <pt x="203" y="-185" on="1"/>
      </contour>
    </TTGlyph>
    <TTGlyph name="L" xMin="-3" yMin="0" xMax="438" yMax="648">
      <contour>
        <pt x="75" y="65" on="1"/>
        <pt x="148" y="583" on="1"/>
        <pt x="79" y="597" on="1"/>
        <pt x="85" y="648" on="1"/>
        <pt x="340" y="648" on="1"/>
        <pt x="334" y="597" on="1"/>
        <pt x="263" y="583" on="1"/>
        <pt x="190" y="65" on="1"/>
        <pt x="232" y="58" on="1"/>
        <pt x="341" y="58" on="1"/>
        <pt x="383" y="170" on="1"/>
        <pt x="438" y="170" on="1"/>
        <pt x="416" y="0" on="1"/>
        <pt x="-3" y="0" on="1"/>
        <pt x="4" y="51" on="1"/>
      </contour>
    </TTGlyph>
    <TTGlyph name="Lacute" xMin="-5" yMin="0" xMax="436" yMax="839">
      <contour>
        <pt x="127" y="720" on="1"/>
        <pt x="308" y="839" on="1"/>
        <pt x="344" y="818" on="0"/>
        <pt x="344" y="779" on="1"/>
        <pt x="344" y="763" on="0"/>
        <pt x="324" y="740" on="0"/>
        <pt x="298" y="731" on="1"/>
        <pt x="150" y="676" on="1"/>
      </contour>
      <contour>
        <pt x="73" y="65" on="1"/>
        <pt x="146" y="583" on="1"/>
        <pt x="77" y="597" on="1"/>
        <pt x="84" y="648" on="1"/>
        <pt x="339" y="648" on="1"/>
        <pt x="332" y="597" on="1"/>
        <pt x="261" y="583" on="1"/>
        <pt x="188" y="65" on="1"/>
        <pt x="231" y="58" on="1"/>
        <pt x="340" y="58" on="1"/>
        <pt x="381" y="170" on="1"/>
        <pt x="436" y="170" on="1"/>
        <pt x="414" y="0" on="1"/>
        <pt x="-5" y="0" on="1"/>
        <pt x="2" y="51" on="1"/>
      </contour>
    </TTGlyph>
    <TTGlyph name="Lcaron" xMin="-5" yMin="0" xMax="499" yMax="728">
      <contour>
        <pt x="386" y="573" on="0"/>
        <pt x="400" y="594" on="0"/>
        <pt x="412" y="631" on="0"/>
        <pt x="412" y="652" on="1"/>
        <pt x="412" y="669" on="0"/>
        <pt x="404" y="694" on="0"/>
        <pt x="400" y="699" on="1"/>
        <pt x="417" y="728" on="0"/>
        <pt x="448" y="728" on="1"/>
        <pt x="474" y="728" on="0"/>
        <pt x="499" y="700" on="0"/>
        <pt x="499" y="678" on="1"/>
        <pt x="499" y="641" on="0"/>
        <pt x="459" y="583" on="0"/>
        <pt x="413" y="549" on="0"/>
        <pt x="405" y="546" on="1"/>
        <pt x="384" y="570" on="1"/>
      </contour>
      <contour>
        <pt x="73" y="65" on="1"/>
        <pt x="146" y="583" on="1"/>
        <pt x="77" y="597" on="1"/>
        <pt x="84" y="648" on="1"/>
        <pt x="339" y="648" on="1"/>
        <pt x="332" y="597" on="1"/>
        <pt x="261" y="583" on="1"/>
        <pt x="188" y="65" on="1"/>
        <pt x="231" y="58" on="1"/>
        <pt x="340" y="58" on="1"/>
        <pt x="381" y="170" on="1"/>
        <pt x="436" y="170" on="1"/>
        <pt x="414" y="0" on="1"/>
        <pt x="-5" y="0" on="1"/>
        <pt x="2" y="51" on="1"/>
      </contour>
    </TTGlyph>
    <TTGlyph name="Lcommaaccent" xMin="-5" yMin="-210" xMax="436" yMax="648">
      <contour>
        <pt x="73" y="65" on="1"/>
        <pt x="146" y="583" on="1"/>
        <pt x="77" y="597" on="1"/>
        <pt x="84" y="648" on="1"/>
        <pt x="339" y="648" on="1"/>
        <pt x="332" y="597" on="1"/>
        <pt x="261" y="583" on="1"/>
        <pt x="188" y="65" on="1"/>
        <pt x="231" y="58" on="1"/>
        <pt x="340" y="58" on="1"/>
        <pt x="381" y="170" on="1"/>
        <pt x="436" y="170" on="1"/>
        <pt x="414" y="0" on="1"/>
        <pt x="-5" y="0" on="1"/>
        <pt x="2" y="51" on="1"/>
      </contour>
      <contour>
        <pt x="143" y="-182" on="0"/>
        <pt x="160" y="-162" on="0"/>
        <pt x="176" y="-128" on="0"/>
        <pt x="176" y="-108" on="1"/>
        <pt x="176" y="-90" on="0"/>
        <pt x="162" y="-63" on="0"/>
        <pt x="156" y="-57" on="1"/>
        <pt x="163" y="-45" on="0"/>
        <pt x="190" y="-27" on="0"/>
        <pt x="208" y="-27" on="1"/>
        <pt x="236" y="-27" on="0"/>
        <pt x="266" y="-59" on="0"/>
        <pt x="266" y="-86" on="1"/>
        <pt x="266" y="-136" on="0"/>
        <pt x="188" y="-199" on="0"/>
        <pt x="162" y="-210" on="1"/>
        <pt x="140" y="-185" on="1"/>
      </contour>
    </TTGlyph>
    <TTGlyph name="Ldot" xMin="-3" yMin="0" xMax="443" yMax="648">
      <component glyphName=".ttfautohint" x="0" y="0" flags="0x0"/>
      <component glyphName="L" x="0" y="0" flags="0x0"/>
      <component glyphName="periodcentered" x="274" y="106" flags="0x4"/>
    </TTGlyph>
    <TTGlyph name="Lslash" xMin="-5" yMin="0" xMax="436" yMax="648">
      <contour>
        <pt x="73" y="65" on="1"/>
        <pt x="100" y="258" on="1"/>
        <pt x="20" y="227" on="1"/>
        <pt x="20" y="290" on="1"/>
        <pt x="110" y="326" on="1"/>
        <pt x="146" y="583" on="1"/>
        <pt x="77" y="597" on="1"/>
        <pt x="84" y="648" on="1"/>
        <pt x="339" y="648" on="1"/>
        <pt x="332" y="597" on="1"/>
        <pt x="261" y="583" on="1"/>
        <pt x="231" y="374" on="1"/>
        <pt x="334" y="416" on="1"/>
        <pt x="334" y="350" on="1"/>
        <pt x="222" y="306" on="1"/>
        <pt x="188" y="65" on="1"/>
        <pt x="231" y="58" on="1"/>
        <pt x="340" y="58" on="1"/>
        <pt x="381" y="170" on="1"/>
        <pt x="436" y="170" on="1"/>
        <pt x="414" y="0" on="1"/>
        <pt x="-5" y="0" on="1"/>
        <pt x="2" y="51" on="1"/>
      </contour>
    </TTGlyph>
    <TTGlyph name="M" xMin="-2" yMin="0" xMax="777" yMax="648">
      <contour>
        <pt x="76" y="65" on="1"/>
        <pt x="149" y="583" on="1"/>
        <pt x="80" y="597" on="1"/>
        <pt x="87" y="648" on="1"/>
        <pt x="294" y="648" on="1"/>
        <pt x="358" y="213" on="1"/>
        <pt x="360" y="179" on="1"/>
        <pt x="363" y="180" on="1"/>
        <pt x="372" y="213" on="1"/>
        <pt x="566" y="648" on="1"/>
        <pt x="777" y="648" on="1"/>
        <pt x="771" y="597" on="1"/>
        <pt x="700" y="583" on="1"/>
        <pt x="627" y="65" on="1"/>
        <pt x="696" y="51" on="1"/>
        <pt x="689" y="0" on="1"/>
        <pt x="434" y="0" on="1"/>
        <pt x="441" y="51" on="1"/>
        <pt x="512" y="65" on="1"/>
        <pt x="569" y="460" on="1"/>
        <pt x="576" y="493" on="1"/>
        <pt x="571" y="493" on="1"/>
        <pt x="353" y="0" on="1"/>
        <pt x="290" y="0" on="1"/>
        <pt x="213" y="490" on="1"/>
        <pt x="209" y="490" on="1"/>
        <pt x="208" y="465" on="1"/>
        <pt x="151" y="65" on="1"/>
        <pt x="221" y="51" on="1"/>
        <pt x="216" y="0" on="1"/>
        <pt x="-2" y="0" on="1"/>
        <pt x="5" y="51" on="1"/>
      </contour>
    </TTGlyph>
    <TTGlyph name="N" xMin="-5" yMin="0" xMax="666" yMax="648">
      <contour>
        <pt x="73" y="65" on="1"/>
        <pt x="146" y="583" on="1"/>
        <pt x="77" y="597" on="1"/>
        <pt x="84" y="648" on="1"/>
        <pt x="260" y="648" on="1"/>
        <pt x="450" y="185" on="1"/>
        <pt x="453" y="170" on="1"/>
        <pt x="458" y="170" on="1"/>
        <pt x="458" y="184" on="1"/>
        <pt x="515" y="583" on="1"/>
        <pt x="445" y="597" on="1"/>
        <pt x="451" y="648" on="1"/>
        <pt x="666" y="648" on="1"/>
        <pt x="660" y="597" on="1"/>
        <pt x="589" y="583" on="1"/>
        <pt x="508" y="0" on="1"/>
        <pt x="407" y="0" on="1"/>
        <pt x="214" y="469" on="1"/>
        <pt x="212" y="483" on="1"/>
        <pt x="208" y="483" on="1"/>
        <pt x="148" y="65" on="1"/>
        <pt x="218" y="51" on="1"/>
        <pt x="213" y="0" on="1"/>
        <pt x="-5" y="0" on="1"/>
        <pt x="2" y="51" on="1"/>
      </contour>
    </TTGlyph>
    <TTGlyph name="Nacute" xMin="-5" yMin="0" xMax="666" yMax="840">
      <contour>
        <pt x="294" y="721" on="1"/>
        <pt x="465" y="840" on="1"/>
        <pt x="511" y="823" on="0"/>
        <pt x="511" y="780" on="1"/>
        <pt x="511" y="763" on="0"/>
        <pt x="491" y="741" on="0"/>
        <pt x="464" y="732" on="1"/>
        <pt x="317" y="678" on="1"/>
      </contour>
      <contour>
        <pt x="73" y="65" on="1"/>
        <pt x="146" y="583" on="1"/>
        <pt x="77" y="597" on="1"/>
        <pt x="84" y="648" on="1"/>
        <pt x="260" y="648" on="1"/>
        <pt x="450" y="185" on="1"/>
        <pt x="453" y="170" on="1"/>
        <pt x="458" y="170" on="1"/>
        <pt x="458" y="184" on="1"/>
        <pt x="515" y="583" on="1"/>
        <pt x="445" y="597" on="1"/>
        <pt x="451" y="648" on="1"/>
        <pt x="666" y="648" on="1"/>
        <pt x="660" y="597" on="1"/>
        <pt x="589" y="583" on="1"/>
        <pt x="508" y="0" on="1"/>
        <pt x="407" y="0" on="1"/>
        <pt x="214" y="469" on="1"/>
        <pt x="212" y="483" on="1"/>
        <pt x="208" y="483" on="1"/>
        <pt x="148" y="65" on="1"/>
        <pt x="218" y="51" on="1"/>
        <pt x="213" y="0" on="1"/>
        <pt x="-5" y="0" on="1"/>
        <pt x="2" y="51" on="1"/>
      </contour>
    </TTGlyph>
    <TTGlyph name="Nacute.loclPLK" xMin="-5" yMin="0" xMax="666" yMax="859">
      <contour>
        <pt x="479" y="859" on="1"/>
        <pt x="502" y="855" on="0"/>
        <pt x="536" y="819" on="0"/>
        <pt x="536" y="800" on="1"/>
        <pt x="536" y="780" on="0"/>
        <pt x="504" y="754" on="1"/>
        <pt x="394" y="665" on="1"/>
        <pt x="357" y="703" on="1"/>
      </contour>
      <contour>
        <pt x="73" y="65" on="1"/>
        <pt x="146" y="583" on="1"/>
        <pt x="77" y="597" on="1"/>
        <pt x="84" y="648" on="1"/>
        <pt x="260" y="648" on="1"/>
        <pt x="450" y="185" on="1"/>
        <pt x="453" y="170" on="1"/>
        <pt x="458" y="170" on="1"/>
        <pt x="458" y="184" on="1"/>
        <pt x="515" y="583" on="1"/>
        <pt x="445" y="597" on="1"/>
        <pt x="451" y="648" on="1"/>
        <pt x="666" y="648" on="1"/>
        <pt x="660" y="597" on="1"/>
        <pt x="589" y="583" on="1"/>
        <pt x="508" y="0" on="1"/>
        <pt x="407" y="0" on="1"/>
        <pt x="214" y="469" on="1"/>
        <pt x="212" y="483" on="1"/>
        <pt x="208" y="483" on="1"/>
        <pt x="148" y="65" on="1"/>
        <pt x="218" y="51" on="1"/>
        <pt x="213" y="0" on="1"/>
        <pt x="-5" y="0" on="1"/>
        <pt x="2" y="51" on="1"/>
      </contour>
    </TTGlyph>
    <TTGlyph name="Ncaron" xMin="-5" yMin="0" xMax="666" yMax="838">
      <contour>
        <pt x="286" y="838" on="1"/>
        <pt x="393" y="774" on="1"/>
        <pt x="510" y="837" on="1"/>
        <pt x="535" y="800" on="1"/>
        <pt x="454" y="731" on="1"/>
        <pt x="420" y="702" on="0"/>
        <pt x="389" y="679" on="0"/>
        <pt x="381" y="679" on="1"/>
        <pt x="373" y="679" on="0"/>
        <pt x="349" y="698" on="0"/>
        <pt x="328" y="718" on="0"/>
        <pt x="325" y="721" on="1"/>
        <pt x="248" y="793" on="1"/>
      </contour>
      <contour>
        <pt x="73" y="65" on="1"/>
        <pt x="146" y="583" on="1"/>
        <pt x="77" y="597" on="1"/>
        <pt x="84" y="648" on="1"/>
        <pt x="260" y="648" on="1"/>
        <pt x="450" y="185" on="1"/>
        <pt x="453" y="170" on="1"/>
        <pt x="458" y="170" on="1"/>
        <pt x="458" y="184" on="1"/>
        <pt x="515" y="583" on="1"/>
        <pt x="445" y="597" on="1"/>
        <pt x="451" y="648" on="1"/>
        <pt x="666" y="648" on="1"/>
        <pt x="660" y="597" on="1"/>
        <pt x="589" y="583" on="1"/>
        <pt x="508" y="0" on="1"/>
        <pt x="407" y="0" on="1"/>
        <pt x="214" y="469" on="1"/>
        <pt x="212" y="483" on="1"/>
        <pt x="208" y="483" on="1"/>
        <pt x="148" y="65" on="1"/>
        <pt x="218" y="51" on="1"/>
        <pt x="213" y="0" on="1"/>
        <pt x="-5" y="0" on="1"/>
        <pt x="2" y="51" on="1"/>
      </contour>
    </TTGlyph>
    <TTGlyph name="Ncommaaccent" xMin="-5" yMin="-210" xMax="666" yMax="648">
      <contour>
        <pt x="73" y="65" on="1"/>
        <pt x="146" y="583" on="1"/>
        <pt x="77" y="597" on="1"/>
        <pt x="84" y="648" on="1"/>
        <pt x="260" y="648" on="1"/>
        <pt x="450" y="185" on="1"/>
        <pt x="453" y="170" on="1"/>
        <pt x="458" y="170" on="1"/>
        <pt x="458" y="184" on="1"/>
        <pt x="515" y="583" on="1"/>
        <pt x="445" y="597" on="1"/>
        <pt x="451" y="648" on="1"/>
        <pt x="666" y="648" on="1"/>
        <pt x="660" y="597" on="1"/>
        <pt x="589" y="583" on="1"/>
        <pt x="508" y="0" on="1"/>
        <pt x="407" y="0" on="1"/>
        <pt x="214" y="469" on="1"/>
        <pt x="212" y="483" on="1"/>
        <pt x="208" y="483" on="1"/>
        <pt x="148" y="65" on="1"/>
        <pt x="218" y="51" on="1"/>
        <pt x="213" y="0" on="1"/>
        <pt x="-5" y="0" on="1"/>
        <pt x="2" y="51" on="1"/>
      </contour>
      <contour>
        <pt x="218" y="-182" on="0"/>
        <pt x="235" y="-162" on="0"/>
        <pt x="251" y="-128" on="0"/>
        <pt x="251" y="-108" on="1"/>
        <pt x="251" y="-89" on="0"/>
        <pt x="236" y="-61" on="0"/>
        <pt x="230" y="-57" on="1"/>
        <pt x="238" y="-45" on="0"/>
        <pt x="265" y="-27" on="0"/>
        <pt x="283" y="-27" on="1"/>
        <pt x="311" y="-27" on="0"/>
        <pt x="341" y="-59" on="0"/>
        <pt x="341" y="-86" on="1"/>
        <pt x="341" y="-121" on="0"/>
        <pt x="296" y="-176" on="0"/>
        <pt x="246" y="-207" on="0"/>
        <pt x="236" y="-210" on="1"/>
        <pt x="215" y="-185" on="1"/>
      </contour>
    </TTGlyph>
    <TTGlyph name="Ntilde" xMin="-5" yMin="0" xMax="666" yMax="823">
      <contour>
        <pt x="257" y="783" on="1"/>
        <pt x="289" y="823" on="0"/>
        <pt x="320" y="823" on="1"/>
        <pt x="345" y="823" on="0"/>
        <pt x="390" y="806" on="1"/>
        <pt x="481" y="776" on="1"/>
        <pt x="563" y="813" on="1"/>
        <pt x="590" y="783" on="1"/>
        <pt x="544" y="730" on="1"/>
        <pt x="510" y="690" on="0"/>
        <pt x="481" y="690" on="1"/>
        <pt x="454" y="690" on="0"/>
        <pt x="411" y="706" on="1"/>
        <pt x="320" y="737" on="1"/>
        <pt x="239" y="700" on="1"/>
        <pt x="212" y="730" on="1"/>
      </contour>
      <contour>
        <pt x="73" y="65" on="1"/>
        <pt x="146" y="583" on="1"/>
        <pt x="77" y="597" on="1"/>
        <pt x="84" y="648" on="1"/>
        <pt x="260" y="648" on="1"/>
        <pt x="450" y="185" on="1"/>
        <pt x="453" y="170" on="1"/>
        <pt x="458" y="170" on="1"/>
        <pt x="458" y="184" on="1"/>
        <pt x="515" y="583" on="1"/>
        <pt x="445" y="597" on="1"/>
        <pt x="451" y="648" on="1"/>
        <pt x="666" y="648" on="1"/>
        <pt x="660" y="597" on="1"/>
        <pt x="589" y="583" on="1"/>
        <pt x="508" y="0" on="1"/>
        <pt x="407" y="0" on="1"/>
        <pt x="214" y="469" on="1"/>
        <pt x="212" y="483" on="1"/>
        <pt x="208" y="483" on="1"/>
        <pt x="148" y="65" on="1"/>
        <pt x="218" y="51" on="1"/>
        <pt x="213" y="0" on="1"/>
        <pt x="-5" y="0" on="1"/>
        <pt x="2" y="51" on="1"/>
      </contour>
    </TTGlyph>
    <TTGlyph name="O" xMin="35" yMin="-11" xMax="618" yMax="660">
      <contour>
        <pt x="209" y="-11" on="0"/>
        <pt x="98" y="48" on="0"/>
        <pt x="35" y="165" on="0"/>
        <pt x="35" y="247" on="1"/>
        <pt x="35" y="371" on="0"/>
        <pt x="120" y="558" on="0"/>
        <pt x="269" y="660" on="0"/>
        <pt x="364" y="660" on="1"/>
        <pt x="492" y="660" on="0"/>
        <pt x="618" y="516" on="0"/>
        <pt x="618" y="402" on="1"/>
        <pt x="618" y="282" on="0"/>
        <pt x="542" y="96" on="0"/>
        <pt x="390" y="-11" on="0"/>
        <pt x="280" y="-11" on="1"/>
      </contour>
      <contour>
        <pt x="403" y="50" on="0"/>
        <pt x="490" y="222" on="0"/>
        <pt x="490" y="404" on="1"/>
        <pt x="490" y="511" on="0"/>
        <pt x="419" y="600" on="0"/>
        <pt x="349" y="600" on="1"/>
        <pt x="251" y="600" on="0"/>
        <pt x="164" y="431" on="0"/>
        <pt x="164" y="251" on="1"/>
        <pt x="164" y="142" on="0"/>
        <pt x="233" y="50" on="0"/>
        <pt x="303" y="50" on="1"/>
      </contour>
    </TTGlyph>
    <TTGlyph name="OE" xMin="25" yMin="0" xMax="801" yMax="648">
      <contour>
        <pt x="153" y="0" on="0"/>
        <pt x="25" y="124" on="0"/>
        <pt x="25" y="247" on="1"/>
        <pt x="25" y="361" on="0"/>
        <pt x="109" y="544" on="0"/>
        <pt x="262" y="648" on="0"/>
        <pt x="360" y="648" on="1"/>
        <pt x="801" y="648" on="1"/>
        <pt x="776" y="474" on="1"/>
        <pt x="716" y="474" on="1"/>
        <pt x="716" y="587" on="1"/>
        <pt x="610" y="587" on="1"/>
        <pt x="544" y="581" on="1"/>
        <pt x="513" y="363" on="1"/>
        <pt x="633" y="363" on="1"/>
        <pt x="655" y="425" on="1"/>
        <pt x="706" y="425" on="1"/>
        <pt x="682" y="241" on="1"/>
        <pt x="631" y="241" on="1"/>
        <pt x="629" y="306" on="1"/>
        <pt x="505" y="306" on="1"/>
        <pt x="472" y="67" on="1"/>
        <pt x="532" y="62" on="0"/>
        <pt x="555" y="61" on="1"/>
        <pt x="652" y="61" on="1"/>
        <pt x="692" y="170" on="1"/>
        <pt x="746" y="170" on="1"/>
        <pt x="725" y="0" on="1"/>
        <pt x="263" y="0" on="1"/>
      </contour>
      <contour>
        <pt x="318" y="59" on="0"/>
        <pt x="356" y="65" on="1"/>
        <pt x="429" y="583" on="1"/>
        <pt x="389" y="590" on="0"/>
        <pt x="345" y="590" on="1"/>
        <pt x="155" y="590" on="0"/>
        <pt x="154" y="251" on="1"/>
        <pt x="154" y="165" on="0"/>
        <pt x="213" y="59" on="0"/>
        <pt x="294" y="59" on="1"/>
      </contour>
    </TTGlyph>
    <TTGlyph name="Oacute" xMin="35" yMin="-11" xMax="618" yMax="845">
      <contour>
        <pt x="458" y="845" on="1"/>
        <pt x="473" y="837" on="0"/>
        <pt x="494" y="807" on="0"/>
        <pt x="494" y="785" on="1"/>
        <pt x="494" y="769" on="0"/>
        <pt x="474" y="746" on="0"/>
        <pt x="448" y="737" on="1"/>
        <pt x="300" y="683" on="1"/>
        <pt x="277" y="726" on="1"/>
      </contour>
      <contour>
        <pt x="209" y="-11" on="0"/>
        <pt x="98" y="48" on="0"/>
        <pt x="35" y="165" on="0"/>
        <pt x="35" y="247" on="1"/>
        <pt x="35" y="371" on="0"/>
        <pt x="120" y="558" on="0"/>
        <pt x="269" y="660" on="0"/>
        <pt x="364" y="660" on="1"/>
        <pt x="492" y="660" on="0"/>
        <pt x="618" y="516" on="0"/>
        <pt x="618" y="402" on="1"/>
        <pt x="618" y="282" on="0"/>
        <pt x="542" y="96" on="0"/>
        <pt x="390" y="-11" on="0"/>
        <pt x="280" y="-11" on="1"/>
      </contour>
      <contour>
        <pt x="403" y="50" on="0"/>
        <pt x="490" y="222" on="0"/>
        <pt x="490" y="404" on="1"/>
        <pt x="490" y="511" on="0"/>
        <pt x="419" y="600" on="0"/>
        <pt x="349" y="600" on="1"/>
        <pt x="251" y="600" on="0"/>
        <pt x="164" y="431" on="0"/>
        <pt x="164" y="251" on="1"/>
        <pt x="164" y="142" on="0"/>
        <pt x="233" y="50" on="0"/>
        <pt x="303" y="50" on="1"/>
      </contour>
    </TTGlyph>
    <TTGlyph name="Oacute.loclPLK" xMin="35" yMin="-11" xMax="618" yMax="859">
      <contour>
        <pt x="464" y="859" on="1"/>
        <pt x="487" y="855" on="0"/>
        <pt x="521" y="819" on="0"/>
        <pt x="521" y="800" on="1"/>
        <pt x="521" y="780" on="0"/>
        <pt x="489" y="754" on="1"/>
        <pt x="379" y="665" on="1"/>
        <pt x="342" y="703" on="1"/>
      </contour>
      <contour>
        <pt x="209" y="-11" on="0"/>
        <pt x="98" y="48" on="0"/>
        <pt x="35" y="165" on="0"/>
        <pt x="35" y="247" on="1"/>
        <pt x="35" y="371" on="0"/>
        <pt x="120" y="558" on="0"/>
        <pt x="269" y="660" on="0"/>
        <pt x="364" y="660" on="1"/>
        <pt x="492" y="660" on="0"/>
        <pt x="618" y="516" on="0"/>
        <pt x="618" y="402" on="1"/>
        <pt x="618" y="282" on="0"/>
        <pt x="542" y="96" on="0"/>
        <pt x="390" y="-11" on="0"/>
        <pt x="280" y="-11" on="1"/>
      </contour>
      <contour>
        <pt x="403" y="50" on="0"/>
        <pt x="490" y="222" on="0"/>
        <pt x="490" y="404" on="1"/>
        <pt x="490" y="511" on="0"/>
        <pt x="419" y="600" on="0"/>
        <pt x="349" y="600" on="1"/>
        <pt x="251" y="600" on="0"/>
        <pt x="164" y="431" on="0"/>
        <pt x="164" y="251" on="1"/>
        <pt x="164" y="142" on="0"/>
        <pt x="233" y="50" on="0"/>
        <pt x="303" y="50" on="1"/>
      </contour>
    </TTGlyph>
    <TTGlyph name="Obreve" xMin="35" yMin="-11" xMax="618" yMax="835">
      <component glyphName=".ttfautohint" x="35" y="0" flags="0x0"/>
      <component glyphName="O" x="0" y="0" flags="0x0"/>
      <component glyphName="uni0306.case" x="460" y="0" flags="0x0"/>
    </TTGlyph>
    <TTGlyph name="Ocircumflex" xMin="35" yMin="-11" xMax="618" yMax="844">
      <contour>
        <pt x="318" y="793" on="1"/>
        <pt x="338" y="809" on="1"/>
        <pt x="357" y="824" on="0"/>
        <pt x="385" y="844" on="0"/>
        <pt x="391" y="844" on="1"/>
        <pt x="402" y="843" on="0"/>
        <pt x="443" y="807" on="0"/>
        <pt x="449" y="802" on="1"/>
        <pt x="526" y="731" on="1"/>
        <pt x="489" y="686" on="1"/>
        <pt x="379" y="749" on="1"/>
        <pt x="260" y="689" on="1"/>
        <pt x="235" y="726" on="1"/>
      </contour>
      <contour>
        <pt x="209" y="-11" on="0"/>
        <pt x="98" y="48" on="0"/>
        <pt x="35" y="165" on="0"/>
        <pt x="35" y="247" on="1"/>
        <pt x="35" y="371" on="0"/>
        <pt x="120" y="558" on="0"/>
        <pt x="269" y="660" on="0"/>
        <pt x="364" y="660" on="1"/>
        <pt x="492" y="660" on="0"/>
        <pt x="618" y="516" on="0"/>
        <pt x="618" y="402" on="1"/>
        <pt x="618" y="282" on="0"/>
        <pt x="542" y="96" on="0"/>
        <pt x="390" y="-11" on="0"/>
        <pt x="280" y="-11" on="1"/>
      </contour>
      <contour>
        <pt x="403" y="50" on="0"/>
        <pt x="490" y="222" on="0"/>
        <pt x="490" y="404" on="1"/>
        <pt x="490" y="511" on="0"/>
        <pt x="419" y="600" on="0"/>
        <pt x="349" y="600" on="1"/>
        <pt x="251" y="600" on="0"/>
        <pt x="164" y="431" on="0"/>
        <pt x="164" y="251" on="1"/>
        <pt x="164" y="142" on="0"/>
        <pt x="233" y="50" on="0"/>
        <pt x="303" y="50" on="1"/>
      </contour>
    </TTGlyph>
    <TTGlyph name="Odieresis" xMin="35" yMin="-11" xMax="618" yMax="830">
      <contour>
        <pt x="242" y="695" on="0"/>
        <pt x="210" y="730" on="0"/>
        <pt x="210" y="757" on="1"/>
        <pt x="210" y="786" on="0"/>
        <pt x="246" y="830" on="0"/>
        <pt x="277" y="830" on="1"/>
        <pt x="303" y="830" on="0"/>
        <pt x="336" y="796" on="0"/>
        <pt x="336" y="768" on="1"/>
        <pt x="336" y="739" on="0"/>
        <pt x="300" y="695" on="0"/>
        <pt x="268" y="695" on="1"/>
      </contour>
      <contour>
        <pt x="461" y="695" on="0"/>
        <pt x="429" y="730" on="0"/>
        <pt x="429" y="757" on="1"/>
        <pt x="429" y="786" on="0"/>
        <pt x="465" y="830" on="0"/>
        <pt x="496" y="830" on="1"/>
        <pt x="522" y="830" on="0"/>
        <pt x="555" y="796" on="0"/>
        <pt x="555" y="768" on="1"/>
        <pt x="555" y="739" on="0"/>
        <pt x="519" y="695" on="0"/>
        <pt x="487" y="695" on="1"/>
      </contour>
      <contour>
        <pt x="209" y="-11" on="0"/>
        <pt x="98" y="48" on="0"/>
        <pt x="35" y="165" on="0"/>
        <pt x="35" y="247" on="1"/>
        <pt x="35" y="371" on="0"/>
        <pt x="120" y="558" on="0"/>
        <pt x="269" y="660" on="0"/>
        <pt x="364" y="660" on="1"/>
        <pt x="492" y="660" on="0"/>
        <pt x="618" y="516" on="0"/>
        <pt x="618" y="402" on="1"/>
        <pt x="618" y="282" on="0"/>
        <pt x="542" y="96" on="0"/>
        <pt x="390" y="-11" on="0"/>
        <pt x="280" y="-11" on="1"/>
      </contour>
      <contour>
        <pt x="403" y="50" on="0"/>
        <pt x="490" y="222" on="0"/>
        <pt x="490" y="404" on="1"/>
        <pt x="490" y="511" on="0"/>
        <pt x="419" y="600" on="0"/>
        <pt x="349" y="600" on="1"/>
        <pt x="251" y="600" on="0"/>
        <pt x="164" y="431" on="0"/>
        <pt x="164" y="251" on="1"/>
        <pt x="164" y="142" on="0"/>
        <pt x="233" y="50" on="0"/>
        <pt x="303" y="50" on="1"/>
      </contour>
    </TTGlyph>
    <TTGlyph name="Ograve" xMin="35" yMin="-11" xMax="618" yMax="845">
      <contour>
        <pt x="279" y="746" on="0"/>
        <pt x="258" y="769" on="0"/>
        <pt x="258" y="785" on="1"/>
        <pt x="258" y="825" on="0"/>
        <pt x="295" y="845" on="1"/>
        <pt x="476" y="726" on="1"/>
        <pt x="453" y="683" on="1"/>
        <pt x="305" y="737" on="1"/>
      </contour>
      <contour>
        <pt x="209" y="-11" on="0"/>
        <pt x="98" y="48" on="0"/>
        <pt x="35" y="165" on="0"/>
        <pt x="35" y="247" on="1"/>
        <pt x="35" y="371" on="0"/>
        <pt x="120" y="558" on="0"/>
        <pt x="269" y="660" on="0"/>
        <pt x="364" y="660" on="1"/>
        <pt x="492" y="660" on="0"/>
        <pt x="618" y="516" on="0"/>
        <pt x="618" y="402" on="1"/>
        <pt x="618" y="282" on="0"/>
        <pt x="542" y="96" on="0"/>
        <pt x="390" y="-11" on="0"/>
        <pt x="280" y="-11" on="1"/>
      </contour>
      <contour>
        <pt x="403" y="50" on="0"/>
        <pt x="490" y="222" on="0"/>
        <pt x="490" y="404" on="1"/>
        <pt x="490" y="511" on="0"/>
        <pt x="419" y="600" on="0"/>
        <pt x="349" y="600" on="1"/>
        <pt x="251" y="600" on="0"/>
        <pt x="164" y="431" on="0"/>
        <pt x="164" y="251" on="1"/>
        <pt x="164" y="142" on="0"/>
        <pt x="233" y="50" on="0"/>
        <pt x="303" y="50" on="1"/>
      </contour>
    </TTGlyph>
    <TTGlyph name="Ohorn" xMin="35" yMin="-11" xMax="779" yMax="724">
      <contour>
        <pt x="779" y="626" on="0"/>
        <pt x="701" y="535" on="0"/>
        <pt x="609" y="484" on="1"/>
        <pt x="618" y="445" on="0"/>
        <pt x="618" y="402" on="1"/>
        <pt x="618" y="282" on="0"/>
        <pt x="542" y="96" on="0"/>
        <pt x="390" y="-11" on="0"/>
        <pt x="280" y="-11" on="1"/>
        <pt x="209" y="-11" on="0"/>
        <pt x="98" y="48" on="0"/>
        <pt x="35" y="165" on="0"/>
        <pt x="35" y="247" on="1"/>
        <pt x="35" y="371" on="0"/>
        <pt x="120" y="558" on="0"/>
        <pt x="269" y="660" on="0"/>
        <pt x="364" y="660" on="1"/>
        <pt x="456" y="660" on="0"/>
        <pt x="573" y="583" on="0"/>
        <pt x="598" y="517" on="1"/>
        <pt x="641" y="543" on="0"/>
        <pt x="696" y="604" on="0"/>
        <pt x="696" y="634" on="1"/>
        <pt x="696" y="645" on="0"/>
        <pt x="688" y="658" on="0"/>
        <pt x="679" y="665" on="1"/>
        <pt x="679" y="680" on="1"/>
        <pt x="746" y="724" on="1"/>
        <pt x="760" y="713" on="0"/>
        <pt x="779" y="689" on="0"/>
        <pt x="779" y="663" on="1"/>
      </contour>
      <contour>
        <pt x="403" y="50" on="0"/>
        <pt x="490" y="222" on="0"/>
        <pt x="490" y="404" on="1"/>
        <pt x="490" y="511" on="0"/>
        <pt x="419" y="600" on="0"/>
        <pt x="349" y="600" on="1"/>
        <pt x="251" y="600" on="0"/>
        <pt x="164" y="431" on="0"/>
        <pt x="164" y="251" on="1"/>
        <pt x="164" y="142" on="0"/>
        <pt x="233" y="50" on="0"/>
        <pt x="303" y="50" on="1"/>
      </contour>
    </TTGlyph>
    <TTGlyph name="Ohungarumlaut" xMin="35" yMin="-11" xMax="618" yMax="842">
      <contour>
        <pt x="213" y="698" on="1"/>
        <pt x="319" y="842" on="1"/>
        <pt x="345" y="841" on="0"/>
        <pt x="381" y="810" on="0"/>
        <pt x="381" y="791" on="1"/>
        <pt x="381" y="774" on="0"/>
        <pt x="355" y="741" on="0"/>
        <pt x="335" y="728" on="1"/>
        <pt x="247" y="667" on="1"/>
      </contour>
      <contour>
        <pt x="389" y="698" on="1"/>
        <pt x="495" y="842" on="1"/>
        <pt x="521" y="841" on="0"/>
        <pt x="558" y="810" on="0"/>
        <pt x="558" y="791" on="1"/>
        <pt x="557" y="774" on="0"/>
        <pt x="531" y="741" on="0"/>
        <pt x="511" y="728" on="1"/>
        <pt x="424" y="667" on="1"/>
      </contour>
      <contour>
        <pt x="209" y="-11" on="0"/>
        <pt x="98" y="48" on="0"/>
        <pt x="35" y="165" on="0"/>
        <pt x="35" y="247" on="1"/>
        <pt x="35" y="371" on="0"/>
        <pt x="120" y="558" on="0"/>
        <pt x="269" y="660" on="0"/>
        <pt x="364" y="660" on="1"/>
        <pt x="492" y="660" on="0"/>
        <pt x="618" y="516" on="0"/>
        <pt x="618" y="402" on="1"/>
        <pt x="618" y="282" on="0"/>
        <pt x="542" y="96" on="0"/>
        <pt x="390" y="-11" on="0"/>
        <pt x="280" y="-11" on="1"/>
      </contour>
      <contour>
        <pt x="403" y="50" on="0"/>
        <pt x="490" y="222" on="0"/>
        <pt x="490" y="404" on="1"/>
        <pt x="490" y="511" on="0"/>
        <pt x="419" y="600" on="0"/>
        <pt x="349" y="600" on="1"/>
        <pt x="251" y="600" on="0"/>
        <pt x="164" y="431" on="0"/>
        <pt x="164" y="251" on="1"/>
        <pt x="164" y="142" on="0"/>
        <pt x="233" y="50" on="0"/>
        <pt x="303" y="50" on="1"/>
      </contour>
    </TTGlyph>
    <TTGlyph name="Omacron" xMin="35" yMin="-11" xMax="618" yMax="792">
      <contour>
        <pt x="545" y="792" on="1"/>
        <pt x="535" y="717" on="1"/>
        <pt x="209" y="717" on="1"/>
        <pt x="219" y="792" on="1"/>
      </contour>
      <contour>
        <pt x="209" y="-11" on="0"/>
        <pt x="98" y="48" on="0"/>
        <pt x="35" y="165" on="0"/>
        <pt x="35" y="247" on="1"/>
        <pt x="35" y="371" on="0"/>
        <pt x="120" y="558" on="0"/>
        <pt x="269" y="660" on="0"/>
        <pt x="364" y="660" on="1"/>
        <pt x="492" y="660" on="0"/>
        <pt x="618" y="516" on="0"/>
        <pt x="618" y="402" on="1"/>
        <pt x="618" y="282" on="0"/>
        <pt x="542" y="96" on="0"/>
        <pt x="390" y="-11" on="0"/>
        <pt x="280" y="-11" on="1"/>
      </contour>
      <contour>
        <pt x="403" y="50" on="0"/>
        <pt x="490" y="222" on="0"/>
        <pt x="490" y="404" on="1"/>
        <pt x="490" y="511" on="0"/>
        <pt x="419" y="600" on="0"/>
        <pt x="349" y="600" on="1"/>
        <pt x="251" y="600" on="0"/>
        <pt x="164" y="431" on="0"/>
        <pt x="164" y="251" on="1"/>
        <pt x="164" y="142" on="0"/>
        <pt x="233" y="50" on="0"/>
        <pt x="303" y="50" on="1"/>
      </contour>
    </TTGlyph>
    <TTGlyph name="Oslash" xMin="35" yMin="-95" xMax="618" yMax="738">
      <contour>
        <pt x="109" y="-66" on="1"/>
        <pt x="148" y="21" on="1"/>
        <pt x="94" y="51" on="0"/>
        <pt x="35" y="166" on="0"/>
        <pt x="35" y="247" on="1"/>
        <pt x="35" y="371" on="0"/>
        <pt x="120" y="558" on="0"/>
        <pt x="269" y="660" on="0"/>
        <pt x="364" y="660" on="1"/>
        <pt x="403" y="660" on="0"/>
        <pt x="438" y="652" on="1"/>
        <pt x="478" y="738" on="1"/>
        <pt x="535" y="710" on="1"/>
        <pt x="498" y="630" on="1"/>
        <pt x="559" y="599" on="0"/>
        <pt x="618" y="479" on="0"/>
        <pt x="618" y="402" on="1"/>
        <pt x="618" y="282" on="0"/>
        <pt x="542" y="96" on="0"/>
        <pt x="390" y="-11" on="0"/>
        <pt x="280" y="-11" on="1"/>
        <pt x="244" y="-11" on="0"/>
        <pt x="209" y="-3" on="1"/>
        <pt x="168" y="-95" on="1"/>
      </contour>
      <contour>
        <pt x="409" y="590" on="1"/>
        <pt x="381" y="600" on="0"/>
        <pt x="349" y="600" on="1"/>
        <pt x="251" y="600" on="0"/>
        <pt x="165" y="431" on="0"/>
        <pt x="164" y="251" on="1"/>
        <pt x="164" y="202" on="0"/>
        <pt x="176" y="135" on="0"/>
        <pt x="191" y="113" on="1"/>
      </contour>
      <contour>
        <pt x="403" y="50" on="0"/>
        <pt x="490" y="222" on="0"/>
        <pt x="490" y="404" on="1"/>
        <pt x="490" y="500" on="0"/>
        <pt x="460" y="545" on="1"/>
        <pt x="239" y="62" on="1"/>
        <pt x="264" y="50" on="0"/>
        <pt x="303" y="50" on="1"/>
      </contour>
    </TTGlyph>
    <TTGlyph name="Oslashacute" xMin="35" yMin="-95" xMax="618" yMax="839">
      <component glyphName=".ttfautohint" x="35" y="0" flags="0x0"/>
      <component glyphName="Oslash" x="0" y="0" flags="0x0"/>
      <component glyphName="acutecomb.case" x="387" y="0" flags="0x0"/>
    </TTGlyph>
    <TTGlyph name="Otilde" xMin="35" yMin="-11" xMax="618" yMax="829">
      <contour>
        <pt x="238" y="789" on="1"/>
        <pt x="270" y="829" on="0"/>
        <pt x="301" y="829" on="1"/>
        <pt x="325" y="829" on="0"/>
        <pt x="371" y="813" on="1"/>
        <pt x="463" y="782" on="1"/>
        <pt x="544" y="820" on="1"/>
        <pt x="571" y="789" on="1"/>
        <pt x="525" y="736" on="1"/>
        <pt x="491" y="696" on="0"/>
        <pt x="463" y="696" on="1"/>
        <pt x="447" y="696" on="0"/>
        <pt x="417" y="704" on="0"/>
        <pt x="392" y="712" on="1"/>
        <pt x="301" y="744" on="1"/>
        <pt x="220" y="706" on="1"/>
        <pt x="193" y="736" on="1"/>
      </contour>
      <contour>
        <pt x="209" y="-11" on="0"/>
        <pt x="98" y="48" on="0"/>
        <pt x="35" y="165" on="0"/>
        <pt x="35" y="247" on="1"/>
        <pt x="35" y="371" on="0"/>
        <pt x="120" y="558" on="0"/>
        <pt x="269" y="660" on="0"/>
        <pt x="364" y="660" on="1"/>
        <pt x="492" y="660" on="0"/>
        <pt x="618" y="516" on="0"/>
        <pt x="618" y="402" on="1"/>
        <pt x="618" y="282" on="0"/>
        <pt x="542" y="96" on="0"/>
        <pt x="390" y="-11" on="0"/>
        <pt x="280" y="-11" on="1"/>
      </contour>
      <contour>
        <pt x="403" y="50" on="0"/>
        <pt x="490" y="222" on="0"/>
        <pt x="490" y="404" on="1"/>
        <pt x="490" y="511" on="0"/>
        <pt x="419" y="600" on="0"/>
        <pt x="349" y="600" on="1"/>
        <pt x="251" y="600" on="0"/>
        <pt x="164" y="431" on="0"/>
        <pt x="164" y="251" on="1"/>
        <pt x="164" y="142" on="0"/>
        <pt x="233" y="50" on="0"/>
        <pt x="303" y="50" on="1"/>
      </contour>
    </TTGlyph>
    <TTGlyph name="P" xMin="-3" yMin="0" xMax="529" yMax="648">
      <contour>
        <pt x="4" y="51" on="1"/>
        <pt x="75" y="65" on="1"/>
        <pt x="149" y="583" on="1"/>
        <pt x="80" y="597" on="1"/>
        <pt x="86" y="648" on="1"/>
        <pt x="318" y="648" on="1"/>
        <pt x="423" y="648" on="0"/>
        <pt x="529" y="569" on="0"/>
        <pt x="529" y="484" on="1"/>
        <pt x="529" y="389" on="0"/>
        <pt x="399" y="264" on="0"/>
        <pt x="263" y="263" on="1"/>
        <pt x="250" y="263" on="1"/>
        <pt x="250" y="307" on="1"/>
        <pt x="335" y="313" on="0"/>
        <pt x="405" y="404" on="0"/>
        <pt x="405" y="481" on="1"/>
        <pt x="405" y="539" on="0"/>
        <pt x="354" y="587" on="0"/>
        <pt x="300" y="587" on="1"/>
        <pt x="286" y="587" on="0"/>
        <pt x="264" y="583" on="1"/>
        <pt x="191" y="65" on="1"/>
        <pt x="278" y="51" on="1"/>
        <pt x="272" y="0" on="1"/>
        <pt x="-3" y="0" on="1"/>
      </contour>
    </TTGlyph>
    <TTGlyph name="Q" xMin="35" yMin="-179" xMax="618" yMax="660">
      <contour>
        <pt x="259" y="-10" on="1"/>
        <pt x="157" y="-4" on="0"/>
        <pt x="35" y="130" on="0"/>
        <pt x="35" y="247" on="1"/>
        <pt x="35" y="371" on="0"/>
        <pt x="120" y="558" on="0"/>
        <pt x="269" y="660" on="0"/>
        <pt x="364" y="660" on="1"/>
        <pt x="492" y="660" on="0"/>
        <pt x="618" y="516" on="0"/>
        <pt x="618" y="402" on="1"/>
        <pt x="618" y="289" on="0"/>
        <pt x="550" y="109" on="0"/>
        <pt x="414" y="-1" on="0"/>
        <pt x="316" y="-10" on="1"/>
        <pt x="282" y="-45" on="1"/>
        <pt x="299" y="-47" on="0"/>
        <pt x="332" y="-55" on="1"/>
        <pt x="509" y="-96" on="1"/>
        <pt x="568" y="-66" on="1"/>
        <pt x="593" y="-92" on="1"/>
        <pt x="545" y="-154" on="1"/>
        <pt x="526" y="-179" on="0"/>
        <pt x="492" y="-179" on="1"/>
        <pt x="479" y="-179" on="0"/>
        <pt x="432" y="-168" on="0"/>
        <pt x="423" y="-166" on="1"/>
        <pt x="244" y="-126" on="1"/>
        <pt x="189" y="-151" on="1"/>
        <pt x="158" y="-112" on="1"/>
      </contour>
      <contour>
        <pt x="403" y="50" on="0"/>
        <pt x="490" y="222" on="0"/>
        <pt x="490" y="404" on="1"/>
        <pt x="490" y="511" on="0"/>
        <pt x="419" y="600" on="0"/>
        <pt x="349" y="600" on="1"/>
        <pt x="251" y="600" on="0"/>
        <pt x="164" y="431" on="0"/>
        <pt x="164" y="251" on="1"/>
        <pt x="164" y="142" on="0"/>
        <pt x="233" y="50" on="0"/>
        <pt x="303" y="50" on="1"/>
      </contour>
    </TTGlyph>
    <TTGlyph name="R" xMin="-3" yMin="0" xMax="533" yMax="648">
      <contour>
        <pt x="4" y="51" on="1"/>
        <pt x="75" y="65" on="1"/>
        <pt x="149" y="583" on="1"/>
        <pt x="80" y="597" on="1"/>
        <pt x="86" y="648" on="1"/>
        <pt x="338" y="648" on="1"/>
        <pt x="421" y="648" on="0"/>
        <pt x="516" y="578" on="0"/>
        <pt x="516" y="502" on="1"/>
        <pt x="515" y="428" on="0"/>
        <pt x="412" y="321" on="0"/>
        <pt x="332" y="298" on="1"/>
        <pt x="359" y="284" on="0"/>
        <pt x="391" y="238" on="0"/>
        <pt x="408" y="200" on="1"/>
        <pt x="464" y="70" on="1"/>
        <pt x="533" y="45" on="1"/>
        <pt x="529" y="0" on="1"/>
        <pt x="404" y="0" on="1"/>
        <pt x="385" y="0" on="0"/>
        <pt x="362" y="14" on="0"/>
        <pt x="356" y="32" on="1"/>
        <pt x="296" y="180" on="1"/>
        <pt x="276" y="229" on="0"/>
        <pt x="244" y="276" on="0"/>
        <pt x="221" y="277" on="1"/>
        <pt x="190" y="61" on="1"/>
        <pt x="254" y="45" on="1"/>
        <pt x="249" y="0" on="1"/>
        <pt x="-3" y="0" on="1"/>
      </contour>
      <contour>
        <pt x="315" y="333" on="0"/>
        <pt x="394" y="423" on="0"/>
        <pt x="394" y="491" on="1"/>
        <pt x="394" y="537" on="0"/>
        <pt x="356" y="586" on="0"/>
        <pt x="309" y="586" on="1"/>
        <pt x="289" y="586" on="0"/>
        <pt x="267" y="584" on="0"/>
        <pt x="264" y="583" on="1"/>
        <pt x="228" y="333" on="1"/>
      </contour>
    </TTGlyph>
    <TTGlyph name="Racute" xMin="-5" yMin="0" xMax="532" yMax="839">
      <contour>
        <pt x="227" y="720" on="1"/>
        <pt x="408" y="839" on="1"/>
        <pt x="445" y="818" on="0"/>
        <pt x="445" y="779" on="1"/>
        <pt x="445" y="762" on="0"/>
        <pt x="425" y="740" on="0"/>
        <pt x="398" y="731" on="1"/>
        <pt x="250" y="676" on="1"/>
      </contour>
      <contour>
        <pt x="2" y="51" on="1"/>
        <pt x="73" y="65" on="1"/>
        <pt x="147" y="583" on="1"/>
        <pt x="78" y="597" on="1"/>
        <pt x="84" y="648" on="1"/>
        <pt x="336" y="648" on="1"/>
        <pt x="419" y="648" on="0"/>
        <pt x="514" y="578" on="0"/>
        <pt x="514" y="502" on="1"/>
        <pt x="514" y="428" on="0"/>
        <pt x="410" y="321" on="0"/>
        <pt x="330" y="298" on="1"/>
        <pt x="357" y="284" on="0"/>
        <pt x="389" y="238" on="0"/>
        <pt x="406" y="200" on="1"/>
        <pt x="462" y="70" on="1"/>
        <pt x="532" y="45" on="1"/>
        <pt x="527" y="0" on="1"/>
        <pt x="402" y="0" on="1"/>
        <pt x="383" y="0" on="0"/>
        <pt x="360" y="14" on="0"/>
        <pt x="354" y="32" on="1"/>
        <pt x="294" y="180" on="1"/>
        <pt x="274" y="229" on="0"/>
        <pt x="242" y="276" on="0"/>
        <pt x="219" y="277" on="1"/>
        <pt x="188" y="61" on="1"/>
        <pt x="252" y="45" on="1"/>
        <pt x="247" y="0" on="1"/>
        <pt x="-5" y="0" on="1"/>
      </contour>
      <contour>
        <pt x="313" y="333" on="0"/>
        <pt x="393" y="423" on="0"/>
        <pt x="393" y="491" on="1"/>
        <pt x="393" y="536" on="0"/>
        <pt x="354" y="586" on="0"/>
        <pt x="307" y="586" on="1"/>
        <pt x="287" y="586" on="0"/>
        <pt x="265" y="584" on="0"/>
        <pt x="262" y="583" on="1"/>
        <pt x="226" y="333" on="1"/>
      </contour>
    </TTGlyph>
    <TTGlyph name="Rcaron" xMin="-5" yMin="0" xMax="532" yMax="838">
      <contour>
        <pt x="301" y="679" on="0"/>
        <pt x="276" y="699" on="0"/>
        <pt x="256" y="719" on="0"/>
        <pt x="253" y="721" on="1"/>
        <pt x="177" y="793" on="1"/>
        <pt x="214" y="838" on="1"/>
        <pt x="322" y="774" on="1"/>
        <pt x="438" y="837" on="1"/>
        <pt x="464" y="800" on="1"/>
        <pt x="383" y="731" on="1"/>
        <pt x="350" y="703" on="0"/>
        <pt x="317" y="679" on="0"/>
        <pt x="309" y="679" on="1"/>
      </contour>
      <contour>
        <pt x="2" y="51" on="1"/>
        <pt x="73" y="65" on="1"/>
        <pt x="147" y="583" on="1"/>
        <pt x="78" y="597" on="1"/>
        <pt x="84" y="648" on="1"/>
        <pt x="336" y="648" on="1"/>
        <pt x="419" y="648" on="0"/>
        <pt x="514" y="578" on="0"/>
        <pt x="514" y="502" on="1"/>
        <pt x="514" y="428" on="0"/>
        <pt x="410" y="321" on="0"/>
        <pt x="330" y="298" on="1"/>
        <pt x="357" y="284" on="0"/>
        <pt x="389" y="238" on="0"/>
        <pt x="406" y="200" on="1"/>
        <pt x="462" y="70" on="1"/>
        <pt x="532" y="45" on="1"/>
        <pt x="527" y="0" on="1"/>
        <pt x="402" y="0" on="1"/>
        <pt x="383" y="0" on="0"/>
        <pt x="360" y="14" on="0"/>
        <pt x="354" y="32" on="1"/>
        <pt x="294" y="180" on="1"/>
        <pt x="274" y="229" on="0"/>
        <pt x="242" y="276" on="0"/>
        <pt x="219" y="277" on="1"/>
        <pt x="188" y="61" on="1"/>
        <pt x="252" y="45" on="1"/>
        <pt x="247" y="0" on="1"/>
        <pt x="-5" y="0" on="1"/>
      </contour>
      <contour>
        <pt x="313" y="333" on="0"/>
        <pt x="393" y="423" on="0"/>
        <pt x="393" y="491" on="1"/>
        <pt x="393" y="536" on="0"/>
        <pt x="354" y="586" on="0"/>
        <pt x="307" y="586" on="1"/>
        <pt x="287" y="586" on="0"/>
        <pt x="265" y="584" on="0"/>
        <pt x="262" y="583" on="1"/>
        <pt x="226" y="333" on="1"/>
      </contour>
    </TTGlyph>
    <TTGlyph name="Rcommaaccent" xMin="-5" yMin="-210" xMax="532" yMax="648">
      <contour>
        <pt x="2" y="51" on="1"/>
        <pt x="73" y="65" on="1"/>
        <pt x="147" y="583" on="1"/>
        <pt x="78" y="597" on="1"/>
        <pt x="84" y="648" on="1"/>
        <pt x="336" y="648" on="1"/>
        <pt x="419" y="648" on="0"/>
        <pt x="514" y="578" on="0"/>
        <pt x="514" y="502" on="1"/>
        <pt x="514" y="428" on="0"/>
        <pt x="410" y="321" on="0"/>
        <pt x="330" y="298" on="1"/>
        <pt x="357" y="284" on="0"/>
        <pt x="389" y="238" on="0"/>
        <pt x="406" y="200" on="1"/>
        <pt x="462" y="70" on="1"/>
        <pt x="532" y="45" on="1"/>
        <pt x="527" y="0" on="1"/>
        <pt x="402" y="0" on="1"/>
        <pt x="383" y="0" on="0"/>
        <pt x="360" y="14" on="0"/>
        <pt x="354" y="32" on="1"/>
        <pt x="294" y="180" on="1"/>
        <pt x="274" y="229" on="0"/>
        <pt x="242" y="276" on="0"/>
        <pt x="219" y="277" on="1"/>
        <pt x="188" y="61" on="1"/>
        <pt x="252" y="45" on="1"/>
        <pt x="247" y="0" on="1"/>
        <pt x="-5" y="0" on="1"/>
      </contour>
      <contour>
        <pt x="313" y="333" on="0"/>
        <pt x="393" y="423" on="0"/>
        <pt x="393" y="491" on="1"/>
        <pt x="393" y="536" on="0"/>
        <pt x="354" y="586" on="0"/>
        <pt x="307" y="586" on="1"/>
        <pt x="287" y="586" on="0"/>
        <pt x="265" y="584" on="0"/>
        <pt x="262" y="583" on="1"/>
        <pt x="226" y="333" on="1"/>
      </contour>
      <contour>
        <pt x="189" y="-185" on="1"/>
        <pt x="192" y="-182" on="0"/>
        <pt x="209" y="-162" on="0"/>
        <pt x="225" y="-128" on="0"/>
        <pt x="225" y="-108" on="1"/>
        <pt x="225" y="-90" on="0"/>
        <pt x="211" y="-63" on="0"/>
        <pt x="205" y="-57" on="1"/>
        <pt x="212" y="-45" on="0"/>
        <pt x="239" y="-27" on="0"/>
        <pt x="257" y="-27" on="1"/>
        <pt x="285" y="-27" on="0"/>
        <pt x="315" y="-59" on="0"/>
        <pt x="315" y="-86" on="1"/>
        <pt x="315" y="-136" on="0"/>
        <pt x="237" y="-199" on="0"/>
        <pt x="211" y="-210" on="1"/>
      </contour>
    </TTGlyph>
    <TTGlyph name="S" xMin="0" yMin="-11" xMax="442" yMax="660">
      <contour>
        <pt x="119" y="-11" on="0"/>
        <pt x="20" y="19" on="0"/>
        <pt x="0" y="34" on="1"/>
        <pt x="18" y="199" on="1"/>
        <pt x="81" y="199" on="1"/>
        <pt x="92" y="83" on="1"/>
        <pt x="107" y="69" on="0"/>
        <pt x="168" y="50" on="0"/>
        <pt x="201" y="50" on="1"/>
        <pt x="251" y="50" on="0"/>
        <pt x="303" y="98" on="0"/>
        <pt x="303" y="135" on="1"/>
        <pt x="303" y="172" on="0"/>
        <pt x="265" y="228" on="0"/>
        <pt x="206" y="279" on="1"/>
        <pt x="147" y="330" on="0"/>
        <pt x="93" y="384" on="0"/>
        <pt x="61" y="445" on="0"/>
        <pt x="61" y="483" on="1"/>
        <pt x="61" y="564" on="0"/>
        <pt x="174" y="660" on="0"/>
        <pt x="275" y="660" on="1"/>
        <pt x="326" y="660" on="0"/>
        <pt x="416" y="647" on="0"/>
        <pt x="442" y="638" on="1"/>
        <pt x="424" y="468" on="1"/>
        <pt x="365" y="468" on="1"/>
        <pt x="355" y="575" on="1"/>
        <pt x="337" y="586" on="0"/>
        <pt x="277" y="600" on="0"/>
        <pt x="248" y="600" on="1"/>
        <pt x="162" y="600" on="0"/>
        <pt x="162" y="527" on="1"/>
        <pt x="162" y="500" on="0"/>
        <pt x="208" y="445" on="0"/>
        <pt x="268" y="393" on="1"/>
        <pt x="313" y="354" on="0"/>
        <pt x="368" y="299" on="0"/>
        <pt x="405" y="231" on="0"/>
        <pt x="405" y="193" on="1"/>
        <pt x="405" y="99" on="0"/>
        <pt x="280" y="-11" on="0"/>
        <pt x="177" y="-11" on="1"/>
      </contour>
    </TTGlyph>
    <TTGlyph name="Sacute" xMin="0" yMin="-11" xMax="442" yMax="838">
      <contour>
        <pt x="193" y="720" on="1"/>
        <pt x="374" y="838" on="1"/>
        <pt x="389" y="830" on="0"/>
        <pt x="410" y="800" on="0"/>
        <pt x="410" y="779" on="1"/>
        <pt x="410" y="763" on="0"/>
        <pt x="390" y="740" on="0"/>
        <pt x="364" y="731" on="1"/>
        <pt x="216" y="676" on="1"/>
      </contour>
      <contour>
        <pt x="119" y="-11" on="0"/>
        <pt x="20" y="19" on="0"/>
        <pt x="0" y="34" on="1"/>
        <pt x="18" y="199" on="1"/>
        <pt x="81" y="199" on="1"/>
        <pt x="92" y="83" on="1"/>
        <pt x="92" y="82" on="0"/>
        <pt x="119" y="65" on="0"/>
        <pt x="167" y="50" on="0"/>
        <pt x="201" y="50" on="1"/>
        <pt x="251" y="50" on="0"/>
        <pt x="303" y="98" on="0"/>
        <pt x="303" y="135" on="1"/>
        <pt x="303" y="172" on="0"/>
        <pt x="264" y="229" on="0"/>
        <pt x="205" y="279" on="1"/>
        <pt x="146" y="330" on="0"/>
        <pt x="92" y="384" on="0"/>
        <pt x="61" y="445" on="0"/>
        <pt x="61" y="483" on="1"/>
        <pt x="61" y="564" on="0"/>
        <pt x="174" y="660" on="0"/>
        <pt x="275" y="660" on="1"/>
        <pt x="326" y="660" on="0"/>
        <pt x="416" y="647" on="0"/>
        <pt x="442" y="638" on="1"/>
        <pt x="424" y="468" on="1"/>
        <pt x="365" y="468" on="1"/>
        <pt x="355" y="575" on="1"/>
        <pt x="343" y="583" on="0"/>
        <pt x="283" y="600" on="0"/>
        <pt x="248" y="600" on="1"/>
        <pt x="162" y="600" on="0"/>
        <pt x="162" y="527" on="1"/>
        <pt x="162" y="500" on="0"/>
        <pt x="209" y="444" on="0"/>
        <pt x="270" y="391" on="1"/>
        <pt x="314" y="353" on="0"/>
        <pt x="368" y="298" on="0"/>
        <pt x="405" y="230" on="0"/>
        <pt x="405" y="193" on="1"/>
        <pt x="405" y="99" on="0"/>
        <pt x="280" y="-11" on="0"/>
        <pt x="177" y="-11" on="1"/>
      </contour>
    </TTGlyph>
    <TTGlyph name="Sacute.loclPLK" xMin="0" yMin="-11" xMax="442" yMax="859">
      <contour>
        <pt x="380" y="859" on="1"/>
        <pt x="403" y="855" on="0"/>
        <pt x="437" y="819" on="0"/>
        <pt x="437" y="800" on="1"/>
        <pt x="437" y="780" on="0"/>
        <pt x="405" y="754" on="1"/>
        <pt x="295" y="665" on="1"/>
        <pt x="258" y="703" on="1"/>
      </contour>
      <contour>
        <pt x="119" y="-11" on="0"/>
        <pt x="20" y="19" on="0"/>
        <pt x="0" y="34" on="1"/>
        <pt x="18" y="199" on="1"/>
        <pt x="81" y="199" on="1"/>
        <pt x="92" y="83" on="1"/>
        <pt x="107" y="69" on="0"/>
        <pt x="168" y="50" on="0"/>
        <pt x="201" y="50" on="1"/>
        <pt x="251" y="50" on="0"/>
        <pt x="303" y="98" on="0"/>
        <pt x="303" y="135" on="1"/>
        <pt x="303" y="172" on="0"/>
        <pt x="265" y="228" on="0"/>
        <pt x="206" y="279" on="1"/>
        <pt x="147" y="330" on="0"/>
        <pt x="93" y="384" on="0"/>
        <pt x="61" y="445" on="0"/>
        <pt x="61" y="483" on="1"/>
        <pt x="61" y="564" on="0"/>
        <pt x="174" y="660" on="0"/>
        <pt x="275" y="660" on="1"/>
        <pt x="326" y="660" on="0"/>
        <pt x="416" y="647" on="0"/>
        <pt x="442" y="638" on="1"/>
        <pt x="424" y="468" on="1"/>
        <pt x="365" y="468" on="1"/>
        <pt x="355" y="575" on="1"/>
        <pt x="337" y="586" on="0"/>
        <pt x="277" y="600" on="0"/>
        <pt x="248" y="600" on="1"/>
        <pt x="162" y="600" on="0"/>
        <pt x="162" y="527" on="1"/>
        <pt x="162" y="500" on="0"/>
        <pt x="208" y="445" on="0"/>
        <pt x="268" y="393" on="1"/>
        <pt x="313" y="354" on="0"/>
        <pt x="368" y="299" on="0"/>
        <pt x="405" y="231" on="0"/>
        <pt x="405" y="193" on="1"/>
        <pt x="405" y="99" on="0"/>
        <pt x="280" y="-11" on="0"/>
        <pt x="177" y="-11" on="1"/>
      </contour>
    </TTGlyph>
    <TTGlyph name="Scaron" xMin="0" yMin="-11" xMax="442" yMax="838">
      <contour>
        <pt x="273" y="680" on="0"/>
        <pt x="248" y="700" on="0"/>
        <pt x="226" y="721" on="1"/>
        <pt x="149" y="793" on="1"/>
        <pt x="187" y="838" on="1"/>
        <pt x="294" y="774" on="1"/>
        <pt x="411" y="838" on="1"/>
        <pt x="436" y="801" on="1"/>
        <pt x="355" y="731" on="1"/>
        <pt x="322" y="703" on="0"/>
        <pt x="290" y="680" on="0"/>
        <pt x="282" y="680" on="1"/>
      </contour>
      <contour>
        <pt x="119" y="-11" on="0"/>
        <pt x="20" y="19" on="0"/>
        <pt x="0" y="34" on="1"/>
        <pt x="18" y="199" on="1"/>
        <pt x="81" y="199" on="1"/>
        <pt x="92" y="83" on="1"/>
        <pt x="107" y="69" on="0"/>
        <pt x="168" y="50" on="0"/>
        <pt x="201" y="50" on="1"/>
        <pt x="251" y="50" on="0"/>
        <pt x="303" y="98" on="0"/>
        <pt x="303" y="135" on="1"/>
        <pt x="303" y="172" on="0"/>
        <pt x="263" y="229" on="0"/>
        <pt x="203" y="281" on="1"/>
        <pt x="145" y="331" on="0"/>
        <pt x="92" y="385" on="0"/>
        <pt x="61" y="445" on="0"/>
        <pt x="61" y="483" on="1"/>
        <pt x="61" y="564" on="0"/>
        <pt x="174" y="660" on="0"/>
        <pt x="275" y="660" on="1"/>
        <pt x="326" y="660" on="0"/>
        <pt x="416" y="647" on="0"/>
        <pt x="442" y="638" on="1"/>
        <pt x="424" y="468" on="1"/>
        <pt x="365" y="468" on="1"/>
        <pt x="355" y="575" on="1"/>
        <pt x="337" y="586" on="0"/>
        <pt x="277" y="600" on="0"/>
        <pt x="248" y="600" on="1"/>
        <pt x="162" y="600" on="0"/>
        <pt x="162" y="527" on="1"/>
        <pt x="162" y="500" on="0"/>
        <pt x="206" y="446" on="0"/>
        <pt x="264" y="396" on="1"/>
        <pt x="312" y="355" on="0"/>
        <pt x="366" y="300" on="0"/>
        <pt x="405" y="231" on="0"/>
        <pt x="405" y="193" on="1"/>
        <pt x="405" y="99" on="0"/>
        <pt x="280" y="-11" on="0"/>
        <pt x="177" y="-11" on="1"/>
      </contour>
    </TTGlyph>
    <TTGlyph name="Scedilla" xMin="0" yMin="-192" xMax="442" yMax="660">
      <contour>
        <pt x="110" y="-192" on="0"/>
        <pt x="68" y="-164" on="1"/>
        <pt x="92" y="-123" on="1"/>
        <pt x="109" y="-131" on="0"/>
        <pt x="137" y="-139" on="0"/>
        <pt x="162" y="-139" on="1"/>
        <pt x="189" y="-139" on="0"/>
        <pt x="189" y="-122" on="1"/>
        <pt x="189" y="-115" on="0"/>
        <pt x="179" y="-104" on="0"/>
        <pt x="166" y="-98" on="1"/>
        <pt x="118" y="-74" on="1"/>
        <pt x="118" y="-50" on="1"/>
        <pt x="144" y="-9" on="1"/>
        <pt x="96" y="-5" on="0"/>
        <pt x="16" y="21" on="0"/>
        <pt x="0" y="34" on="1"/>
        <pt x="18" y="199" on="1"/>
        <pt x="81" y="199" on="1"/>
        <pt x="92" y="83" on="1"/>
        <pt x="92" y="82" on="0"/>
        <pt x="119" y="65" on="0"/>
        <pt x="167" y="50" on="0"/>
        <pt x="201" y="50" on="1"/>
        <pt x="251" y="50" on="0"/>
        <pt x="303" y="98" on="0"/>
        <pt x="303" y="135" on="1"/>
        <pt x="303" y="172" on="0"/>
        <pt x="266" y="226" on="0"/>
        <pt x="209" y="276" on="1"/>
        <pt x="149" y="328" on="0"/>
        <pt x="94" y="383" on="0"/>
        <pt x="61" y="444" on="0"/>
        <pt x="61" y="483" on="1"/>
        <pt x="61" y="564" on="0"/>
        <pt x="174" y="660" on="0"/>
        <pt x="275" y="660" on="1"/>
        <pt x="326" y="660" on="0"/>
        <pt x="416" y="647" on="0"/>
        <pt x="442" y="638" on="1"/>
        <pt x="424" y="468" on="1"/>
        <pt x="365" y="468" on="1"/>
        <pt x="355" y="575" on="1"/>
        <pt x="343" y="583" on="0"/>
        <pt x="283" y="600" on="0"/>
        <pt x="248" y="600" on="1"/>
        <pt x="162" y="600" on="0"/>
        <pt x="162" y="527" on="1"/>
        <pt x="162" y="499" on="0"/>
        <pt x="210" y="443" on="0"/>
        <pt x="274" y="388" on="1"/>
        <pt x="317" y="350" on="0"/>
        <pt x="369" y="297" on="0"/>
        <pt x="405" y="230" on="0"/>
        <pt x="405" y="193" on="1"/>
        <pt x="405" y="104" on="0"/>
        <pt x="292" y="-5" on="0"/>
        <pt x="197" y="-10" on="1"/>
        <pt x="197" y="-28" on="1"/>
        <pt x="231" y="-47" on="1"/>
        <pt x="253" y="-59" on="0"/>
        <pt x="276" y="-86" on="0"/>
        <pt x="276" y="-107" on="1"/>
        <pt x="276" y="-151" on="0"/>
        <pt x="216" y="-192" on="0"/>
        <pt x="173" y="-192" on="1"/>
      </contour>
    </TTGlyph>
    <TTGlyph name="Scircumflex" xMin="0" yMin="-11" xMax="442" yMax="837">
      <component glyphName=".ttfautohint" x="0" y="0" flags="0x0"/>
      <component glyphName="S" x="0" y="0" flags="0x0"/>
      <component glyphName="uni0302.case" x="376" y="0" flags="0x0"/>
    </TTGlyph>
    <TTGlyph name="Scommaaccent" xMin="0" yMin="-210" xMax="442" yMax="660">
      <contour>
        <pt x="119" y="-11" on="0"/>
        <pt x="20" y="19" on="0"/>
        <pt x="0" y="34" on="1"/>
        <pt x="18" y="199" on="1"/>
        <pt x="81" y="199" on="1"/>
        <pt x="92" y="83" on="1"/>
        <pt x="92" y="82" on="0"/>
        <pt x="119" y="65" on="0"/>
        <pt x="167" y="50" on="0"/>
        <pt x="201" y="50" on="1"/>
        <pt x="251" y="50" on="0"/>
        <pt x="303" y="98" on="0"/>
        <pt x="303" y="135" on="1"/>
        <pt x="303" y="171" on="0"/>
        <pt x="265" y="227" on="0"/>
        <pt x="207" y="278" on="1"/>
        <pt x="148" y="329" on="0"/>
        <pt x="93" y="383" on="0"/>
        <pt x="61" y="445" on="0"/>
        <pt x="61" y="483" on="1"/>
        <pt x="61" y="564" on="0"/>
        <pt x="174" y="660" on="0"/>
        <pt x="275" y="660" on="1"/>
        <pt x="326" y="660" on="0"/>
        <pt x="416" y="647" on="0"/>
        <pt x="442" y="638" on="1"/>
        <pt x="424" y="468" on="1"/>
        <pt x="365" y="468" on="1"/>
        <pt x="355" y="575" on="1"/>
        <pt x="343" y="583" on="0"/>
        <pt x="283" y="600" on="0"/>
        <pt x="248" y="600" on="1"/>
        <pt x="162" y="600" on="0"/>
        <pt x="162" y="527" on="1"/>
        <pt x="162" y="499" on="0"/>
        <pt x="209" y="444" on="0"/>
        <pt x="271" y="391" on="1"/>
        <pt x="316" y="352" on="0"/>
        <pt x="369" y="297" on="0"/>
        <pt x="405" y="230" on="0"/>
        <pt x="405" y="193" on="1"/>
        <pt x="405" y="99" on="0"/>
        <pt x="280" y="-11" on="0"/>
        <pt x="177" y="-11" on="1"/>
      </contour>
      <contour>
        <pt x="103" y="-185" on="1"/>
        <pt x="106" y="-182" on="0"/>
        <pt x="124" y="-162" on="0"/>
        <pt x="140" y="-128" on="0"/>
        <pt x="140" y="-108" on="1"/>
        <pt x="140" y="-90" on="0"/>
        <pt x="125" y="-63" on="0"/>
        <pt x="119" y="-57" on="1"/>
        <pt x="126" y="-45" on="0"/>
        <pt x="153" y="-27" on="0"/>
        <pt x="171" y="-27" on="1"/>
        <pt x="199" y="-27" on="0"/>
        <pt x="230" y="-60" on="0"/>
        <pt x="230" y="-86" on="1"/>
        <pt x="230" y="-121" on="0"/>
        <pt x="185" y="-176" on="0"/>
        <pt x="135" y="-207" on="0"/>
        <pt x="125" y="-210" on="1"/>
      </contour>
    </TTGlyph>
    <TTGlyph name="T" xMin="29" yMin="0" xMax="545" yMax="648">
      <contour>
        <pt x="163" y="65" on="1"/>
        <pt x="237" y="585" on="1"/>
        <pt x="124" y="585" on="1"/>
        <pt x="87" y="471" on="1"/>
        <pt x="29" y="471" on="1"/>
        <pt x="48" y="648" on="1"/>
        <pt x="545" y="648" on="1"/>
        <pt x="517" y="471" on="1"/>
        <pt x="456" y="471" on="1"/>
        <pt x="458" y="585" on="1"/>
        <pt x="350" y="585" on="1"/>
        <pt x="278" y="65" on="1"/>
        <pt x="347" y="51" on="1"/>
        <pt x="341" y="0" on="1"/>
        <pt x="85" y="0" on="1"/>
        <pt x="92" y="51" on="1"/>
      </contour>
    </TTGlyph>
    <TTGlyph name="Tbar" xMin="29" yMin="0" xMax="545" yMax="648">
      <contour>
        <pt x="456" y="471" on="1"/>
        <pt x="458" y="585" on="1"/>
        <pt x="350" y="585" on="1"/>
        <pt x="320" y="365" on="1"/>
        <pt x="492" y="365" on="1"/>
        <pt x="482" y="303" on="1"/>
        <pt x="311" y="303" on="1"/>
        <pt x="278" y="65" on="1"/>
        <pt x="347" y="51" on="1"/>
        <pt x="341" y="0" on="1"/>
        <pt x="85" y="0" on="1"/>
        <pt x="92" y="51" on="1"/>
        <pt x="163" y="65" on="1"/>
        <pt x="197" y="303" on="1"/>
        <pt x="30" y="303" on="1"/>
        <pt x="39" y="365" on="1"/>
        <pt x="206" y="365" on="1"/>
        <pt x="237" y="585" on="1"/>
        <pt x="124" y="585" on="1"/>
        <pt x="87" y="471" on="1"/>
        <pt x="29" y="471" on="1"/>
        <pt x="48" y="648" on="1"/>
        <pt x="545" y="648" on="1"/>
        <pt x="517" y="471" on="1"/>
      </contour>
    </TTGlyph>
    <TTGlyph name="Tcaron" xMin="26" yMin="0" xMax="542" yMax="838">
      <contour>
        <pt x="289" y="679" on="0"/>
        <pt x="247" y="721" on="1"/>
        <pt x="170" y="793" on="1"/>
        <pt x="207" y="838" on="1"/>
        <pt x="315" y="774" on="1"/>
        <pt x="431" y="837" on="1"/>
        <pt x="457" y="800" on="1"/>
        <pt x="376" y="731" on="1"/>
        <pt x="343" y="703" on="0"/>
        <pt x="310" y="679" on="0"/>
        <pt x="302" y="679" on="1"/>
      </contour>
      <contour>
        <pt x="89" y="51" on="1"/>
        <pt x="160" y="65" on="1"/>
        <pt x="234" y="585" on="1"/>
        <pt x="122" y="585" on="1"/>
        <pt x="85" y="471" on="1"/>
        <pt x="26" y="471" on="1"/>
        <pt x="46" y="648" on="1"/>
        <pt x="542" y="648" on="1"/>
        <pt x="514" y="471" on="1"/>
        <pt x="453" y="471" on="1"/>
        <pt x="456" y="585" on="1"/>
        <pt x="348" y="585" on="1"/>
        <pt x="275" y="65" on="1"/>
        <pt x="344" y="51" on="1"/>
        <pt x="338" y="0" on="1"/>
        <pt x="83" y="0" on="1"/>
      </contour>
    </TTGlyph>
    <TTGlyph name="Thorn" xMin="-4" yMin="0" xMax="502" yMax="648">
      <contour>
        <pt x="3" y="51" on="1"/>
        <pt x="74" y="65" on="1"/>
        <pt x="147" y="583" on="1"/>
        <pt x="78" y="597" on="1"/>
        <pt x="84" y="648" on="1"/>
        <pt x="339" y="648" on="1"/>
        <pt x="333" y="597" on="1"/>
        <pt x="262" y="583" on="1"/>
        <pt x="251" y="512" on="1"/>
        <pt x="298" y="512" on="1"/>
        <pt x="397" y="512" on="0"/>
        <pt x="502" y="441" on="0"/>
        <pt x="502" y="367" on="1"/>
        <pt x="502" y="265" on="0"/>
        <pt x="376" y="149" on="0"/>
        <pt x="245" y="149" on="1"/>
        <pt x="225" y="149" on="0"/>
        <pt x="201" y="151" on="1"/>
        <pt x="188" y="65" on="1"/>
        <pt x="258" y="51" on="1"/>
        <pt x="251" y="0" on="1"/>
        <pt x="-4" y="0" on="1"/>
      </contour>
      <contour>
        <pt x="315" y="201" on="0"/>
        <pt x="378" y="276" on="0"/>
        <pt x="378" y="350" on="1"/>
        <pt x="378" y="407" on="0"/>
        <pt x="331" y="451" on="0"/>
        <pt x="281" y="451" on="1"/>
        <pt x="261" y="451" on="0"/>
        <pt x="242" y="448" on="1"/>
        <pt x="208" y="204" on="1"/>
        <pt x="213" y="203" on="0"/>
        <pt x="228" y="201" on="0"/>
        <pt x="238" y="201" on="1"/>
      </contour>
    </TTGlyph>
    <TTGlyph name="U" xMin="52" yMin="-11" xMax="664" yMax="648">
      <contour>
        <pt x="52" y="597" on="1"/>
        <pt x="58" y="648" on="1"/>
        <pt x="314" y="648" on="1"/>
        <pt x="307" y="597" on="1"/>
        <pt x="236" y="583" on="1"/>
        <pt x="192" y="278" on="1"/>
        <pt x="182" y="206" on="0"/>
        <pt x="182" y="171" on="1"/>
        <pt x="182" y="112" on="0"/>
        <pt x="231" y="51" on="0"/>
        <pt x="299" y="51" on="1"/>
        <pt x="350" y="51" on="0"/>
        <pt x="414" y="95" on="0"/>
        <pt x="453" y="193" on="0"/>
        <pt x="465" y="278" on="1"/>
        <pt x="509" y="583" on="1"/>
        <pt x="440" y="597" on="1"/>
        <pt x="446" y="648" on="1"/>
        <pt x="664" y="648" on="1"/>
        <pt x="658" y="597" on="1"/>
        <pt x="586" y="583" on="1"/>
        <pt x="544" y="278" on="1"/>
        <pt x="529" y="173" on="0"/>
        <pt x="471" y="49" on="0"/>
        <pt x="362" y="-11" on="0"/>
        <pt x="271" y="-11" on="1"/>
        <pt x="69" y="-11" on="0"/>
        <pt x="69" y="164" on="1"/>
        <pt x="69" y="213" on="0"/>
        <pt x="78" y="276" on="1"/>
        <pt x="121" y="583" on="1"/>
      </contour>
    </TTGlyph>
    <TTGlyph name="Uacute" xMin="52" yMin="-11" xMax="664" yMax="842">
      <contour>
        <pt x="294" y="723" on="1"/>
        <pt x="475" y="842" on="1"/>
        <pt x="490" y="834" on="0"/>
        <pt x="511" y="804" on="0"/>
        <pt x="511" y="782" on="1"/>
        <pt x="511" y="766" on="0"/>
        <pt x="491" y="744" on="0"/>
        <pt x="465" y="735" on="1"/>
        <pt x="317" y="680" on="1"/>
      </contour>
      <contour>
        <pt x="69" y="-11" on="0"/>
        <pt x="69" y="164" on="1"/>
        <pt x="69" y="213" on="0"/>
        <pt x="78" y="276" on="1"/>
        <pt x="121" y="583" on="1"/>
        <pt x="52" y="597" on="1"/>
        <pt x="58" y="648" on="1"/>
        <pt x="314" y="648" on="1"/>
        <pt x="307" y="597" on="1"/>
        <pt x="236" y="583" on="1"/>
        <pt x="192" y="278" on="1"/>
        <pt x="182" y="206" on="0"/>
        <pt x="182" y="171" on="1"/>
        <pt x="182" y="112" on="0"/>
        <pt x="231" y="51" on="0"/>
        <pt x="299" y="51" on="1"/>
        <pt x="350" y="51" on="0"/>
        <pt x="414" y="95" on="0"/>
        <pt x="453" y="193" on="0"/>
        <pt x="465" y="278" on="1"/>
        <pt x="509" y="583" on="1"/>
        <pt x="440" y="597" on="1"/>
        <pt x="446" y="648" on="1"/>
        <pt x="664" y="648" on="1"/>
        <pt x="658" y="597" on="1"/>
        <pt x="586" y="583" on="1"/>
        <pt x="544" y="278" on="1"/>
        <pt x="529" y="173" on="0"/>
        <pt x="471" y="49" on="0"/>
        <pt x="362" y="-11" on="0"/>
        <pt x="271" y="-11" on="1"/>
      </contour>
    </TTGlyph>
    <TTGlyph name="Ubreve" xMin="52" yMin="-11" xMax="664" yMax="835">
      <component glyphName=".ttfautohint" x="52" y="0" flags="0x0"/>
      <component glyphName="U" x="0" y="0" flags="0x0"/>
      <component glyphName="uni0306.case" x="468" y="0" flags="0x0"/>
    </TTGlyph>
    <TTGlyph name="Ucircumflex" xMin="52" yMin="-11" xMax="664" yMax="841">
      <contour>
        <pt x="323" y="790" on="1"/>
        <pt x="343" y="806" on="1"/>
        <pt x="362" y="821" on="0"/>
        <pt x="390" y="841" on="0"/>
        <pt x="396" y="841" on="1"/>
        <pt x="407" y="840" on="0"/>
        <pt x="449" y="802" on="0"/>
        <pt x="453" y="799" on="1"/>
        <pt x="531" y="728" on="1"/>
        <pt x="494" y="683" on="1"/>
        <pt x="383" y="746" on="1"/>
        <pt x="265" y="686" on="1"/>
        <pt x="239" y="723" on="1"/>
      </contour>
      <contour>
        <pt x="52" y="597" on="1"/>
        <pt x="58" y="648" on="1"/>
        <pt x="314" y="648" on="1"/>
        <pt x="307" y="597" on="1"/>
        <pt x="236" y="583" on="1"/>
        <pt x="192" y="278" on="1"/>
        <pt x="182" y="206" on="0"/>
        <pt x="182" y="171" on="1"/>
        <pt x="182" y="112" on="0"/>
        <pt x="231" y="51" on="0"/>
        <pt x="299" y="51" on="1"/>
        <pt x="350" y="51" on="0"/>
        <pt x="414" y="95" on="0"/>
        <pt x="453" y="193" on="0"/>
        <pt x="465" y="278" on="1"/>
        <pt x="509" y="583" on="1"/>
        <pt x="440" y="597" on="1"/>
        <pt x="446" y="648" on="1"/>
        <pt x="664" y="648" on="1"/>
        <pt x="658" y="597" on="1"/>
        <pt x="586" y="583" on="1"/>
        <pt x="544" y="278" on="1"/>
        <pt x="529" y="173" on="0"/>
        <pt x="471" y="49" on="0"/>
        <pt x="362" y="-11" on="0"/>
        <pt x="271" y="-11" on="1"/>
        <pt x="69" y="-11" on="0"/>
        <pt x="69" y="164" on="1"/>
        <pt x="69" y="213" on="0"/>
        <pt x="78" y="276" on="1"/>
        <pt x="121" y="583" on="1"/>
      </contour>
    </TTGlyph>
    <TTGlyph name="Udieresis" xMin="52" yMin="-11" xMax="664" yMax="827">
      <contour>
        <pt x="250" y="693" on="0"/>
        <pt x="218" y="728" on="0"/>
        <pt x="218" y="754" on="1"/>
        <pt x="218" y="783" on="0"/>
        <pt x="254" y="827" on="0"/>
        <pt x="285" y="827" on="1"/>
        <pt x="311" y="827" on="0"/>
        <pt x="344" y="793" on="0"/>
        <pt x="344" y="766" on="1"/>
        <pt x="344" y="736" on="0"/>
        <pt x="307" y="693" on="0"/>
        <pt x="276" y="693" on="1"/>
      </contour>
      <contour>
        <pt x="469" y="693" on="0"/>
        <pt x="436" y="728" on="0"/>
        <pt x="436" y="754" on="1"/>
        <pt x="436" y="783" on="0"/>
        <pt x="473" y="827" on="0"/>
        <pt x="504" y="827" on="1"/>
        <pt x="530" y="827" on="0"/>
        <pt x="563" y="793" on="0"/>
        <pt x="563" y="766" on="1"/>
        <pt x="563" y="736" on="0"/>
        <pt x="526" y="693" on="0"/>
        <pt x="495" y="693" on="1"/>
      </contour>
      <contour>
        <pt x="52" y="597" on="1"/>
        <pt x="58" y="648" on="1"/>
        <pt x="314" y="648" on="1"/>
        <pt x="307" y="597" on="1"/>
        <pt x="236" y="583" on="1"/>
        <pt x="192" y="278" on="1"/>
        <pt x="182" y="206" on="0"/>
        <pt x="182" y="171" on="1"/>
        <pt x="182" y="112" on="0"/>
        <pt x="231" y="51" on="0"/>
        <pt x="299" y="51" on="1"/>
        <pt x="350" y="51" on="0"/>
        <pt x="414" y="95" on="0"/>
        <pt x="453" y="193" on="0"/>
        <pt x="465" y="278" on="1"/>
        <pt x="509" y="583" on="1"/>
        <pt x="440" y="597" on="1"/>
        <pt x="446" y="648" on="1"/>
        <pt x="664" y="648" on="1"/>
        <pt x="658" y="597" on="1"/>
        <pt x="586" y="583" on="1"/>
        <pt x="544" y="278" on="1"/>
        <pt x="529" y="173" on="0"/>
        <pt x="471" y="49" on="0"/>
        <pt x="362" y="-11" on="0"/>
        <pt x="271" y="-11" on="1"/>
        <pt x="69" y="-11" on="0"/>
        <pt x="69" y="164" on="1"/>
        <pt x="69" y="213" on="0"/>
        <pt x="78" y="276" on="1"/>
        <pt x="121" y="583" on="1"/>
      </contour>
    </TTGlyph>
    <TTGlyph name="Ugrave" xMin="52" yMin="-11" xMax="664" yMax="842">
      <contour>
        <pt x="284" y="744" on="0"/>
        <pt x="263" y="766" on="0"/>
        <pt x="263" y="782" on="1"/>
        <pt x="263" y="822" on="0"/>
        <pt x="300" y="842" on="1"/>
        <pt x="481" y="723" on="1"/>
        <pt x="458" y="680" on="1"/>
        <pt x="310" y="735" on="1"/>
      </contour>
      <contour>
        <pt x="52" y="597" on="1"/>
        <pt x="58" y="648" on="1"/>
        <pt x="314" y="648" on="1"/>
        <pt x="307" y="597" on="1"/>
        <pt x="236" y="583" on="1"/>
        <pt x="192" y="278" on="1"/>
        <pt x="182" y="206" on="0"/>
        <pt x="182" y="171" on="1"/>
        <pt x="182" y="112" on="0"/>
        <pt x="231" y="51" on="0"/>
        <pt x="299" y="51" on="1"/>
        <pt x="350" y="51" on="0"/>
        <pt x="414" y="95" on="0"/>
        <pt x="453" y="193" on="0"/>
        <pt x="465" y="278" on="1"/>
        <pt x="509" y="583" on="1"/>
        <pt x="440" y="597" on="1"/>
        <pt x="446" y="648" on="1"/>
        <pt x="664" y="648" on="1"/>
        <pt x="658" y="597" on="1"/>
        <pt x="586" y="583" on="1"/>
        <pt x="544" y="278" on="1"/>
        <pt x="529" y="173" on="0"/>
        <pt x="471" y="49" on="0"/>
        <pt x="362" y="-11" on="0"/>
        <pt x="271" y="-11" on="1"/>
        <pt x="69" y="-11" on="0"/>
        <pt x="69" y="164" on="1"/>
        <pt x="69" y="213" on="0"/>
        <pt x="78" y="276" on="1"/>
        <pt x="121" y="583" on="1"/>
      </contour>
    </TTGlyph>
    <TTGlyph name="Uhorn" xMin="52" yMin="-11" xMax="725" yMax="778">
      <contour>
        <pt x="725" y="678" on="0"/>
        <pt x="663" y="602" on="0"/>
        <pt x="585" y="577" on="1"/>
        <pt x="544" y="278" on="1"/>
        <pt x="529" y="173" on="0"/>
        <pt x="471" y="49" on="0"/>
        <pt x="362" y="-11" on="0"/>
        <pt x="271" y="-11" on="1"/>
        <pt x="69" y="-11" on="0"/>
        <pt x="69" y="164" on="1"/>
        <pt x="69" y="213" on="0"/>
        <pt x="78" y="276" on="1"/>
        <pt x="121" y="583" on="1"/>
        <pt x="52" y="597" on="1"/>
        <pt x="58" y="648" on="1"/>
        <pt x="314" y="648" on="1"/>
        <pt x="307" y="597" on="1"/>
        <pt x="236" y="583" on="1"/>
        <pt x="192" y="278" on="1"/>
        <pt x="182" y="206" on="0"/>
        <pt x="182" y="171" on="1"/>
        <pt x="182" y="112" on="0"/>
        <pt x="231" y="51" on="0"/>
        <pt x="299" y="51" on="1"/>
        <pt x="350" y="51" on="0"/>
        <pt x="414" y="95" on="0"/>
        <pt x="453" y="193" on="0"/>
        <pt x="465" y="278" on="1"/>
        <pt x="509" y="583" on="1"/>
        <pt x="440" y="597" on="1"/>
        <pt x="446" y="648" on="1"/>
        <pt x="576" y="648" on="1"/>
        <pt x="611" y="648" on="0"/>
        <pt x="643" y="665" on="0"/>
        <pt x="643" y="687" on="1"/>
        <pt x="643" y="698" on="0"/>
        <pt x="635" y="711" on="0"/>
        <pt x="626" y="718" on="1"/>
        <pt x="626" y="733" on="1"/>
        <pt x="693" y="778" on="1"/>
        <pt x="707" y="768" on="0"/>
        <pt x="725" y="743" on="0"/>
        <pt x="725" y="717" on="1"/>
      </contour>
    </TTGlyph>
    <TTGlyph name="Uhungarumlaut" xMin="52" yMin="-11" xMax="664" yMax="842">
      <contour>
        <pt x="230" y="698" on="1"/>
        <pt x="336" y="842" on="1"/>
        <pt x="362" y="841" on="0"/>
        <pt x="399" y="810" on="0"/>
        <pt x="399" y="791" on="1"/>
        <pt x="398" y="774" on="0"/>
        <pt x="372" y="741" on="0"/>
        <pt x="352" y="728" on="1"/>
        <pt x="265" y="667" on="1"/>
      </contour>
      <contour>
        <pt x="407" y="698" on="1"/>
        <pt x="513" y="842" on="1"/>
        <pt x="539" y="841" on="0"/>
        <pt x="575" y="809" on="0"/>
        <pt x="575" y="791" on="1"/>
        <pt x="575" y="774" on="0"/>
        <pt x="549" y="741" on="0"/>
        <pt x="529" y="728" on="1"/>
        <pt x="441" y="667" on="1"/>
      </contour>
      <contour>
        <pt x="69" y="-11" on="0"/>
        <pt x="69" y="164" on="1"/>
        <pt x="69" y="213" on="0"/>
        <pt x="78" y="276" on="1"/>
        <pt x="121" y="583" on="1"/>
        <pt x="52" y="597" on="1"/>
        <pt x="58" y="648" on="1"/>
        <pt x="314" y="648" on="1"/>
        <pt x="307" y="597" on="1"/>
        <pt x="236" y="583" on="1"/>
        <pt x="192" y="278" on="1"/>
        <pt x="182" y="206" on="0"/>
        <pt x="182" y="171" on="1"/>
        <pt x="182" y="112" on="0"/>
        <pt x="231" y="51" on="0"/>
        <pt x="299" y="51" on="1"/>
        <pt x="350" y="51" on="0"/>
        <pt x="414" y="95" on="0"/>
        <pt x="453" y="193" on="0"/>
        <pt x="465" y="278" on="1"/>
        <pt x="509" y="583" on="1"/>
        <pt x="440" y="597" on="1"/>
        <pt x="446" y="648" on="1"/>
        <pt x="664" y="648" on="1"/>
        <pt x="658" y="597" on="1"/>
        <pt x="586" y="583" on="1"/>
        <pt x="544" y="278" on="1"/>
        <pt x="529" y="173" on="0"/>
        <pt x="471" y="49" on="0"/>
        <pt x="362" y="-11" on="0"/>
        <pt x="271" y="-11" on="1"/>
      </contour>
    </TTGlyph>
    <TTGlyph name="Umacron" xMin="52" yMin="-11" xMax="664" yMax="792">
      <contour>
        <pt x="551" y="792" on="1"/>
        <pt x="542" y="717" on="1"/>
        <pt x="216" y="717" on="1"/>
        <pt x="225" y="792" on="1"/>
      </contour>
      <contour>
        <pt x="52" y="597" on="1"/>
        <pt x="58" y="648" on="1"/>
        <pt x="314" y="648" on="1"/>
        <pt x="307" y="597" on="1"/>
        <pt x="236" y="583" on="1"/>
        <pt x="192" y="278" on="1"/>
        <pt x="182" y="206" on="0"/>
        <pt x="182" y="171" on="1"/>
        <pt x="182" y="112" on="0"/>
        <pt x="231" y="51" on="0"/>
        <pt x="299" y="51" on="1"/>
        <pt x="350" y="51" on="0"/>
        <pt x="414" y="95" on="0"/>
        <pt x="453" y="193" on="0"/>
        <pt x="465" y="278" on="1"/>
        <pt x="509" y="583" on="1"/>
        <pt x="440" y="597" on="1"/>
        <pt x="446" y="648" on="1"/>
        <pt x="664" y="648" on="1"/>
        <pt x="658" y="597" on="1"/>
        <pt x="586" y="583" on="1"/>
        <pt x="544" y="278" on="1"/>
        <pt x="529" y="173" on="0"/>
        <pt x="471" y="49" on="0"/>
        <pt x="362" y="-11" on="0"/>
        <pt x="271" y="-11" on="1"/>
        <pt x="69" y="-11" on="0"/>
        <pt x="69" y="164" on="1"/>
        <pt x="69" y="213" on="0"/>
        <pt x="78" y="276" on="1"/>
        <pt x="121" y="583" on="1"/>
      </contour>
    </TTGlyph>
    <TTGlyph name="Uogonek" xMin="52" yMin="-183" xMax="664" yMax="648">
      <contour>
        <pt x="284" y="-183" on="0"/>
        <pt x="235" y="-150" on="0"/>
        <pt x="235" y="-115" on="1"/>
        <pt x="235" y="-84" on="0"/>
        <pt x="271" y="-31" on="0"/>
        <pt x="300" y="-10" on="1"/>
        <pt x="299" y="-7" on="1"/>
        <pt x="297" y="-7" on="0"/>
        <pt x="279" y="-11" on="0"/>
        <pt x="271" y="-11" on="1"/>
        <pt x="69" y="-11" on="0"/>
        <pt x="69" y="164" on="1"/>
        <pt x="69" y="213" on="0"/>
        <pt x="78" y="276" on="1"/>
        <pt x="121" y="583" on="1"/>
        <pt x="52" y="597" on="1"/>
        <pt x="58" y="648" on="1"/>
        <pt x="314" y="648" on="1"/>
        <pt x="307" y="597" on="1"/>
        <pt x="236" y="583" on="1"/>
        <pt x="192" y="278" on="1"/>
        <pt x="182" y="206" on="0"/>
        <pt x="182" y="171" on="1"/>
        <pt x="182" y="112" on="0"/>
        <pt x="231" y="51" on="0"/>
        <pt x="299" y="51" on="1"/>
        <pt x="350" y="51" on="0"/>
        <pt x="414" y="95" on="0"/>
        <pt x="453" y="193" on="0"/>
        <pt x="465" y="278" on="1"/>
        <pt x="509" y="583" on="1"/>
        <pt x="440" y="597" on="1"/>
        <pt x="446" y="648" on="1"/>
        <pt x="664" y="648" on="1"/>
        <pt x="658" y="597" on="1"/>
        <pt x="586" y="583" on="1"/>
        <pt x="544" y="278" on="1"/>
        <pt x="528" y="156" on="0"/>
        <pt x="451" y="25" on="0"/>
        <pt x="376" y="2" on="1"/>
        <pt x="320" y="-37" on="0"/>
        <pt x="320" y="-85" on="1"/>
        <pt x="320" y="-121" on="0"/>
        <pt x="357" y="-121" on="1"/>
        <pt x="381" y="-121" on="0"/>
        <pt x="411" y="-101" on="1"/>
        <pt x="432" y="-133" on="1"/>
        <pt x="432" y="-135" on="0"/>
        <pt x="401" y="-161" on="0"/>
        <pt x="353" y="-183" on="0"/>
        <pt x="325" y="-183" on="1"/>
      </contour>
    </TTGlyph>
    <TTGlyph name="Uring" xMin="52" yMin="-11" xMax="664" yMax="836">
      <contour>
        <pt x="334" y="663" on="0"/>
        <pt x="290" y="700" on="0"/>
        <pt x="290" y="737" on="1"/>
        <pt x="290" y="776" on="0"/>
        <pt x="351" y="836" on="0"/>
        <pt x="401" y="836" on="1"/>
        <pt x="444" y="836" on="0"/>
        <pt x="492" y="799" on="0"/>
        <pt x="492" y="760" on="1"/>
        <pt x="492" y="721" on="0"/>
        <pt x="434" y="663" on="0"/>
        <pt x="382" y="663" on="1"/>
      </contour>
      <contour>
        <pt x="408" y="709" on="0"/>
        <pt x="424" y="730" on="0"/>
        <pt x="424" y="758" on="1"/>
        <pt x="424" y="776" on="0"/>
        <pt x="407" y="790" on="0"/>
        <pt x="392" y="790" on="1"/>
        <pt x="373" y="790" on="0"/>
        <pt x="357" y="768" on="0"/>
        <pt x="357" y="740" on="1"/>
        <pt x="357" y="723" on="0"/>
        <pt x="372" y="709" on="0"/>
        <pt x="389" y="709" on="1"/>
      </contour>
      <contour>
        <pt x="69" y="-11" on="0"/>
        <pt x="69" y="164" on="1"/>
        <pt x="69" y="213" on="0"/>
        <pt x="78" y="276" on="1"/>
        <pt x="121" y="583" on="1"/>
        <pt x="52" y="597" on="1"/>
        <pt x="58" y="648" on="1"/>
        <pt x="314" y="648" on="1"/>
        <pt x="307" y="597" on="1"/>
        <pt x="236" y="583" on="1"/>
        <pt x="192" y="278" on="1"/>
        <pt x="182" y="206" on="0"/>
        <pt x="182" y="171" on="1"/>
        <pt x="182" y="112" on="0"/>
        <pt x="231" y="51" on="0"/>
        <pt x="299" y="51" on="1"/>
        <pt x="350" y="51" on="0"/>
        <pt x="414" y="95" on="0"/>
        <pt x="453" y="193" on="0"/>
        <pt x="465" y="278" on="1"/>
        <pt x="509" y="583" on="1"/>
        <pt x="440" y="597" on="1"/>
        <pt x="446" y="648" on="1"/>
        <pt x="664" y="648" on="1"/>
        <pt x="658" y="597" on="1"/>
        <pt x="586" y="583" on="1"/>
        <pt x="544" y="278" on="1"/>
        <pt x="529" y="173" on="0"/>
        <pt x="471" y="49" on="0"/>
        <pt x="362" y="-11" on="0"/>
        <pt x="271" y="-11" on="1"/>
      </contour>
    </TTGlyph>
    <TTGlyph name="Utilde" xMin="52" yMin="-11" xMax="664" yMax="823">
      <component glyphName=".ttfautohint" x="52" y="0" flags="0x0"/>
      <component glyphName="U" x="0" y="0" flags="0x0"/>
      <component glyphName="tildecomb.case" x="502" y="0" flags="0x0"/>
    </TTGlyph>
    <TTGlyph name="V" xMin="12" yMin="-9" xMax="587" yMax="648">
      <contour>
        <pt x="74" y="584" on="1"/>
        <pt x="12" y="597" on="1"/>
        <pt x="16" y="648" on="1"/>
        <pt x="267" y="648" on="1"/>
        <pt x="262" y="597" on="1"/>
        <pt x="195" y="586" on="1"/>
        <pt x="195" y="572" on="1"/>
        <pt x="261" y="182" on="1"/>
        <pt x="263" y="153" on="1"/>
        <pt x="266" y="154" on="1"/>
        <pt x="275" y="181" on="1"/>
        <pt x="448" y="575" on="1"/>
        <pt x="448" y="585" on="1"/>
        <pt x="373" y="597" on="1"/>
        <pt x="379" y="648" on="1"/>
        <pt x="587" y="648" on="1"/>
        <pt x="580" y="597" on="1"/>
        <pt x="525" y="583" on="1"/>
        <pt x="257" y="-9" on="1"/>
        <pt x="184" y="-9" on="1"/>
      </contour>
    </TTGlyph>
    <TTGlyph name="W" xMin="6" yMin="-8" xMax="893" yMax="648">
      <contour>
        <pt x="66" y="591" on="1"/>
        <pt x="6" y="603" on="1"/>
        <pt x="12" y="648" on="1"/>
        <pt x="267" y="648" on="1"/>
        <pt x="262" y="603" on="1"/>
        <pt x="190" y="588" on="1"/>
        <pt x="191" y="567" on="1"/>
        <pt x="231" y="163" on="1"/>
        <pt x="232" y="133" on="1"/>
        <pt x="236" y="134" on="1"/>
        <pt x="245" y="163" on="1"/>
        <pt x="403" y="520" on="1"/>
        <pt x="392" y="591" on="1"/>
        <pt x="332" y="603" on="1"/>
        <pt x="338" y="648" on="1"/>
        <pt x="593" y="648" on="1"/>
        <pt x="588" y="603" on="1"/>
        <pt x="516" y="588" on="1"/>
        <pt x="516" y="570" on="1"/>
        <pt x="563" y="166" on="1"/>
        <pt x="566" y="134" on="1"/>
        <pt x="569" y="135" on="1"/>
        <pt x="578" y="166" on="1"/>
        <pt x="747" y="570" on="1"/>
        <pt x="752" y="587" on="1"/>
        <pt x="681" y="603" on="1"/>
        <pt x="686" y="648" on="1"/>
        <pt x="893" y="648" on="1"/>
        <pt x="887" y="603" on="1"/>
        <pt x="834" y="590" on="1"/>
        <pt x="569" y="-8" on="1"/>
        <pt x="480" y="-8" on="1"/>
        <pt x="422" y="395" on="1"/>
        <pt x="234" y="-8" on="1"/>
        <pt x="147" y="-8" on="1"/>
      </contour>
    </TTGlyph>
    <TTGlyph name="Wacute" xMin="6" yMin="-8" xMax="893" yMax="839">
      <component glyphName=".ttfautohint" x="6" y="0" flags="0x0"/>
      <component glyphName="W" x="0" y="0" flags="0x0"/>
      <component glyphName="acutecomb.case" x="560" y="0" flags="0x0"/>
    </TTGlyph>
    <TTGlyph name="Wcircumflex" xMin="6" yMin="-8" xMax="893" yMax="837">
      <component glyphName=".ttfautohint" x="6" y="0" flags="0x0"/>
      <component glyphName="W" x="0" y="0" flags="0x0"/>
      <component glyphName="uni0302.case" x="558" y="0" flags="0x0"/>
    </TTGlyph>
    <TTGlyph name="Wdieresis" xMin="6" yMin="-8" xMax="893" yMax="827">
      <component glyphName=".ttfautohint" x="6" y="0" flags="0x0"/>
      <component glyphName="W" x="0" y="0" flags="0x0"/>
      <component glyphName="uni0308.case" x="578" y="0" flags="0x0"/>
    </TTGlyph>
    <TTGlyph name="Wgrave" xMin="6" yMin="-8" xMax="893" yMax="839">
      <component glyphName=".ttfautohint" x="6" y="0" flags="0x0"/>
      <component glyphName="W" x="0" y="0" flags="0x0"/>
      <component glyphName="gravecomb.case" x="474" y="0" flags="0x0"/>
    </TTGlyph>
    <TTGlyph name="X" xMin="-54" yMin="0" xMax="587" yMax="648">
      <contour>
        <pt x="24" y="63" on="1"/>
        <pt x="223" y="320" on="1"/>
        <pt x="100" y="592" on="1"/>
        <pt x="47" y="603" on="1"/>
        <pt x="52" y="648" on="1"/>
        <pt x="308" y="648" on="1"/>
        <pt x="303" y="603" on="1"/>
        <pt x="238" y="588" on="1"/>
        <pt x="238" y="568" on="1"/>
        <pt x="307" y="411" on="1"/>
        <pt x="431" y="573" on="1"/>
        <pt x="431" y="589" on="1"/>
        <pt x="378" y="601" on="1"/>
        <pt x="384" y="648" on="1"/>
        <pt x="587" y="648" on="1"/>
        <pt x="581" y="600" on="1"/>
        <pt x="525" y="585" on="1"/>
        <pt x="336" y="344" on="1"/>
        <pt x="462" y="61" on="1"/>
        <pt x="521" y="45" on="1"/>
        <pt x="517" y="0" on="1"/>
        <pt x="268" y="0" on="1"/>
        <pt x="271" y="45" on="1"/>
        <pt x="333" y="61" on="1"/>
        <pt x="333" y="81" on="1"/>
        <pt x="255" y="251" on="1"/>
        <pt x="121" y="75" on="1"/>
        <pt x="121" y="59" on="1"/>
        <pt x="174" y="45" on="1"/>
        <pt x="169" y="0" on="1"/>
        <pt x="-54" y="0" on="1"/>
        <pt x="-47" y="45" on="1"/>
      </contour>
    </TTGlyph>
    <TTGlyph name="Y" xMin="16" yMin="0" xMax="549" yMax="648">
      <contour>
        <pt x="169" y="59" on="1"/>
        <pt x="194" y="250" on="1"/>
        <pt x="70" y="591" on="1"/>
        <pt x="16" y="601" on="1"/>
        <pt x="21" y="648" on="1"/>
        <pt x="265" y="648" on="1"/>
        <pt x="260" y="603" on="1"/>
        <pt x="193" y="588" on="1"/>
        <pt x="193" y="566" on="1"/>
        <pt x="273" y="327" on="1"/>
        <pt x="280" y="327" on="1"/>
        <pt x="408" y="577" on="1"/>
        <pt x="408" y="589" on="1"/>
        <pt x="342" y="603" on="1"/>
        <pt x="348" y="648" on="1"/>
        <pt x="549" y="648" on="1"/>
        <pt x="543" y="603" on="1"/>
        <pt x="490" y="590" on="1"/>
        <pt x="311" y="259" on="1"/>
        <pt x="283" y="59" on="1"/>
        <pt x="353" y="45" on="1"/>
        <pt x="348" y="0" on="1"/>
        <pt x="92" y="0" on="1"/>
        <pt x="97" y="45" on="1"/>
      </contour>
    </TTGlyph>
    <TTGlyph name="Y.loclGUA" xMin="47" yMin="-14" xMax="665" yMax="648">
      <contour>
        <pt x="665" y="648" on="1"/>
        <pt x="658" y="595" on="1"/>
        <pt x="586" y="581" on="1"/>
        <pt x="543" y="255" on="1"/>
        <pt x="530" y="161" on="0"/>
        <pt x="467" y="43" on="0"/>
        <pt x="351" y="-14" on="0"/>
        <pt x="259" y="-14" on="1"/>
        <pt x="201" y="-14" on="0"/>
        <pt x="90" y="7" on="0"/>
        <pt x="54" y="24" on="1"/>
        <pt x="77" y="191" on="1"/>
        <pt x="139" y="191" on="1"/>
        <pt x="153" y="71" on="1"/>
        <pt x="199" y="48" on="0"/>
        <pt x="264" y="48" on="1"/>
        <pt x="337" y="48" on="0"/>
        <pt x="406" y="130" on="0"/>
        <pt x="421" y="225" on="1"/>
        <pt x="368" y="199" on="0"/>
        <pt x="298" y="199" on="1"/>
        <pt x="187" y="199" on="0"/>
        <pt x="98" y="293" on="0"/>
        <pt x="98" y="375" on="1"/>
        <pt x="98" y="401" on="0"/>
        <pt x="106" y="475" on="1"/>
        <pt x="120" y="581" on="1"/>
        <pt x="47" y="595" on="1"/>
        <pt x="55" y="648" on="1"/>
        <pt x="321" y="648" on="1"/>
        <pt x="314" y="595" on="1"/>
        <pt x="238" y="581" on="1"/>
        <pt x="224" y="483" on="1"/>
        <pt x="214" y="416" on="0"/>
        <pt x="214" y="381" on="1"/>
        <pt x="214" y="326" on="0"/>
        <pt x="261" y="264" on="0"/>
        <pt x="321" y="264" on="1"/>
        <pt x="387" y="264" on="0"/>
        <pt x="431" y="301" on="1"/>
        <pt x="468" y="580" on="1"/>
        <pt x="390" y="595" on="1"/>
        <pt x="397" y="648" on="1"/>
      </contour>
    </TTGlyph>
    <TTGlyph name="Yacute" xMin="14" yMin="0" xMax="547" yMax="842">
      <contour>
        <pt x="214" y="723" on="1"/>
        <pt x="395" y="842" on="1"/>
        <pt x="410" y="834" on="0"/>
        <pt x="432" y="803" on="0"/>
        <pt x="432" y="782" on="1"/>
        <pt x="432" y="766" on="0"/>
        <pt x="411" y="744" on="0"/>
        <pt x="385" y="735" on="1"/>
        <pt x="237" y="680" on="1"/>
      </contour>
      <contour>
        <pt x="95" y="45" on="1"/>
        <pt x="167" y="59" on="1"/>
        <pt x="192" y="250" on="1"/>
        <pt x="68" y="591" on="1"/>
        <pt x="14" y="601" on="1"/>
        <pt x="19" y="648" on="1"/>
        <pt x="263" y="648" on="1"/>
        <pt x="258" y="603" on="1"/>
        <pt x="190" y="588" on="1"/>
        <pt x="190" y="566" on="1"/>
        <pt x="270" y="327" on="1"/>
        <pt x="277" y="327" on="1"/>
        <pt x="406" y="577" on="1"/>
        <pt x="406" y="589" on="1"/>
        <pt x="341" y="603" on="1"/>
        <pt x="346" y="648" on="1"/>
        <pt x="547" y="648" on="1"/>
        <pt x="541" y="603" on="1"/>
        <pt x="488" y="590" on="1"/>
        <pt x="310" y="263" on="1"/>
        <pt x="281" y="59" on="1"/>
        <pt x="351" y="45" on="1"/>
        <pt x="346" y="0" on="1"/>
        <pt x="90" y="0" on="1"/>
      </contour>
    </TTGlyph>
    <TTGlyph name="Yacute.loclGUA" xMin="47" yMin="-14" xMax="665" yMax="839">
      <component glyphName=".ttfautohint" x="47" y="0" flags="0x0"/>
      <component glyphName="Y.loclGUA" x="0" y="0" flags="0x0"/>
      <component glyphName="acutecomb.case" x="470" y="0" flags="0x0"/>
    </TTGlyph>
    <TTGlyph name="Ycircumflex" xMin="16" yMin="0" xMax="549" yMax="837">
      <component glyphName=".ttfautohint" x="16" y="0" flags="0x0"/>
      <component glyphName="Y" x="0" y="0" flags="0x0"/>
      <component glyphName="uni0302.case" x="403" y="0" flags="0x0"/>
    </TTGlyph>
    <TTGlyph name="Ycircumflex.loclGUA" xMin="47" yMin="-14" xMax="665" yMax="837">
      <component glyphName=".ttfautohint" x="47" y="0" flags="0x0"/>
      <component glyphName="Y.loclGUA" x="0" y="0" flags="0x0"/>
      <component glyphName="uni0302.case" x="468" y="0" flags="0x0"/>
    </TTGlyph>
    <TTGlyph name="Ydieresis" xMin="14" yMin="0" xMax="547" yMax="827">
      <contour>
        <pt x="171" y="693" on="0"/>
        <pt x="139" y="728" on="0"/>
        <pt x="139" y="754" on="1"/>
        <pt x="139" y="783" on="0"/>
        <pt x="176" y="827" on="0"/>
        <pt x="207" y="827" on="1"/>
        <pt x="233" y="827" on="0"/>
        <pt x="265" y="794" on="0"/>
        <pt x="265" y="766" on="1"/>
        <pt x="265" y="736" on="0"/>
        <pt x="229" y="693" on="0"/>
        <pt x="197" y="693" on="1"/>
      </contour>
      <contour>
        <pt x="390" y="693" on="0"/>
        <pt x="358" y="728" on="0"/>
        <pt x="358" y="754" on="1"/>
        <pt x="358" y="783" on="0"/>
        <pt x="394" y="827" on="0"/>
        <pt x="425" y="827" on="1"/>
        <pt x="451" y="827" on="0"/>
        <pt x="484" y="794" on="0"/>
        <pt x="484" y="766" on="1"/>
        <pt x="484" y="736" on="0"/>
        <pt x="448" y="693" on="0"/>
        <pt x="416" y="693" on="1"/>
      </contour>
      <contour>
        <pt x="167" y="59" on="1"/>
        <pt x="192" y="250" on="1"/>
        <pt x="68" y="591" on="1"/>
        <pt x="14" y="601" on="1"/>
        <pt x="19" y="648" on="1"/>
        <pt x="263" y="648" on="1"/>
        <pt x="258" y="603" on="1"/>
        <pt x="190" y="588" on="1"/>
        <pt x="190" y="566" on="1"/>
        <pt x="270" y="327" on="1"/>
        <pt x="277" y="327" on="1"/>
        <pt x="406" y="577" on="1"/>
        <pt x="406" y="589" on="1"/>
        <pt x="341" y="603" on="1"/>
        <pt x="346" y="648" on="1"/>
        <pt x="547" y="648" on="1"/>
        <pt x="541" y="603" on="1"/>
        <pt x="488" y="590" on="1"/>
        <pt x="310" y="263" on="1"/>
        <pt x="281" y="59" on="1"/>
        <pt x="351" y="45" on="1"/>
        <pt x="346" y="0" on="1"/>
        <pt x="90" y="0" on="1"/>
        <pt x="95" y="45" on="1"/>
      </contour>
    </TTGlyph>
    <TTGlyph name="Ydieresis.loclGUA" xMin="47" yMin="-14" xMax="665" yMax="827">
      <component glyphName=".ttfautohint" x="47" y="0" flags="0x0"/>
      <component glyphName="Y.loclGUA" x="0" y="0" flags="0x0"/>
      <component glyphName="uni0308.case" x="488" y="0" flags="0x0"/>
    </TTGlyph>
    <TTGlyph name="Ygrave" xMin="16" yMin="0" xMax="549" yMax="839">
      <component glyphName=".ttfautohint" x="16" y="0" flags="0x0"/>
      <component glyphName="Y" x="0" y="0" flags="0x0"/>
      <component glyphName="gravecomb.case" x="319" y="0" flags="0x0"/>
    </TTGlyph>
    <TTGlyph name="Ygrave.loclGUA" xMin="47" yMin="-14" xMax="665" yMax="839">
      <component glyphName=".ttfautohint" x="47" y="0" flags="0x0"/>
      <component glyphName="Y.loclGUA" x="0" y="0" flags="0x0"/>
      <component glyphName="gravecomb.case" x="384" y="0" flags="0x0"/>
    </TTGlyph>
    <TTGlyph name="Z" xMin="-8" yMin="0" xMax="522" yMax="648">
      <contour>
        <pt x="376" y="570" on="1"/>
        <pt x="367" y="586" on="1"/>
        <pt x="149" y="586" on="1"/>
        <pt x="107" y="478" on="1"/>
        <pt x="52" y="478" on="1"/>
        <pt x="76" y="648" on="1"/>
        <pt x="483" y="648" on="1"/>
        <pt x="522" y="586" on="1"/>
        <pt x="133" y="70" on="1"/>
        <pt x="138" y="61" on="1"/>
        <pt x="373" y="61" on="1"/>
        <pt x="413" y="169" on="1"/>
        <pt x="468" y="169" on="1"/>
        <pt x="446" y="0" on="1"/>
        <pt x="16" y="0" on="1"/>
        <pt x="-8" y="60" on="1"/>
      </contour>
    </TTGlyph>
    <TTGlyph name="Zacute" xMin="-10" yMin="0" xMax="521" yMax="839">
      <contour>
        <pt x="204" y="720" on="1"/>
        <pt x="385" y="839" on="1"/>
        <pt x="422" y="818" on="0"/>
        <pt x="422" y="779" on="1"/>
        <pt x="422" y="762" on="0"/>
        <pt x="402" y="740" on="0"/>
        <pt x="375" y="731" on="1"/>
        <pt x="228" y="676" on="1"/>
      </contour>
      <contour>
        <pt x="-10" y="60" on="1"/>
        <pt x="375" y="570" on="1"/>
        <pt x="365" y="586" on="1"/>
        <pt x="148" y="586" on="1"/>
        <pt x="105" y="478" on="1"/>
        <pt x="50" y="478" on="1"/>
        <pt x="75" y="648" on="1"/>
        <pt x="482" y="648" on="1"/>
        <pt x="521" y="586" on="1"/>
        <pt x="132" y="70" on="1"/>
        <pt x="136" y="61" on="1"/>
        <pt x="372" y="61" on="1"/>
        <pt x="411" y="169" on="1"/>
        <pt x="466" y="169" on="1"/>
        <pt x="444" y="0" on="1"/>
        <pt x="14" y="0" on="1"/>
      </contour>
    </TTGlyph>
    <TTGlyph name="Zacute.loclPLK" xMin="-8" yMin="0" xMax="522" yMax="859">
      <contour>
        <pt x="414" y="859" on="1"/>
        <pt x="437" y="855" on="0"/>
        <pt x="471" y="819" on="0"/>
        <pt x="471" y="800" on="1"/>
        <pt x="471" y="780" on="0"/>
        <pt x="439" y="754" on="1"/>
        <pt x="329" y="665" on="1"/>
        <pt x="292" y="703" on="1"/>
      </contour>
      <contour>
        <pt x="376" y="570" on="1"/>
        <pt x="367" y="586" on="1"/>
        <pt x="149" y="586" on="1"/>
        <pt x="107" y="478" on="1"/>
        <pt x="52" y="478" on="1"/>
        <pt x="76" y="648" on="1"/>
        <pt x="483" y="648" on="1"/>
        <pt x="522" y="586" on="1"/>
        <pt x="133" y="70" on="1"/>
        <pt x="138" y="61" on="1"/>
        <pt x="373" y="61" on="1"/>
        <pt x="413" y="169" on="1"/>
        <pt x="468" y="169" on="1"/>
        <pt x="446" y="0" on="1"/>
        <pt x="16" y="0" on="1"/>
        <pt x="-8" y="60" on="1"/>
      </contour>
    </TTGlyph>
    <TTGlyph name="Zcaron" xMin="-10" yMin="0" xMax="521" yMax="838">
      <contour>
        <pt x="287" y="679" on="0"/>
        <pt x="262" y="699" on="0"/>
        <pt x="242" y="719" on="0"/>
        <pt x="239" y="721" on="1"/>
        <pt x="163" y="793" on="1"/>
        <pt x="200" y="838" on="1"/>
        <pt x="308" y="774" on="1"/>
        <pt x="424" y="837" on="1"/>
        <pt x="450" y="800" on="1"/>
        <pt x="369" y="731" on="1"/>
        <pt x="336" y="703" on="0"/>
        <pt x="303" y="679" on="0"/>
        <pt x="295" y="679" on="1"/>
      </contour>
      <contour>
        <pt x="-10" y="60" on="1"/>
        <pt x="375" y="570" on="1"/>
        <pt x="365" y="586" on="1"/>
        <pt x="148" y="586" on="1"/>
        <pt x="105" y="478" on="1"/>
        <pt x="50" y="478" on="1"/>
        <pt x="75" y="648" on="1"/>
        <pt x="482" y="648" on="1"/>
        <pt x="521" y="586" on="1"/>
        <pt x="132" y="70" on="1"/>
        <pt x="136" y="61" on="1"/>
        <pt x="372" y="61" on="1"/>
        <pt x="411" y="169" on="1"/>
        <pt x="466" y="169" on="1"/>
        <pt x="444" y="0" on="1"/>
        <pt x="14" y="0" on="1"/>
      </contour>
    </TTGlyph>
    <TTGlyph name="Zdotaccent" xMin="-10" yMin="0" xMax="521" yMax="827">
      <contour>
        <pt x="266" y="687" on="0"/>
        <pt x="232" y="723" on="0"/>
        <pt x="232" y="749" on="1"/>
        <pt x="232" y="779" on="0"/>
        <pt x="269" y="827" on="0"/>
        <pt x="303" y="827" on="1"/>
        <pt x="330" y="827" on="0"/>
        <pt x="364" y="792" on="0"/>
        <pt x="364" y="763" on="1"/>
        <pt x="364" y="732" on="0"/>
        <pt x="326" y="687" on="0"/>
        <pt x="292" y="687" on="1"/>
      </contour>
      <contour>
        <pt x="375" y="570" on="1"/>
        <pt x="365" y="586" on="1"/>
        <pt x="148" y="586" on="1"/>
        <pt x="105" y="478" on="1"/>
        <pt x="50" y="478" on="1"/>
        <pt x="75" y="648" on="1"/>
        <pt x="482" y="648" on="1"/>
        <pt x="521" y="586" on="1"/>
        <pt x="132" y="70" on="1"/>
        <pt x="136" y="61" on="1"/>
        <pt x="372" y="61" on="1"/>
        <pt x="411" y="169" on="1"/>
        <pt x="466" y="169" on="1"/>
        <pt x="444" y="0" on="1"/>
        <pt x="14" y="0" on="1"/>
        <pt x="-10" y="60" on="1"/>
      </contour>
    </TTGlyph>
    <TTGlyph name="a" xMin="30" yMin="-10" xMax="469" yMax="517">
      <contour>
        <pt x="267" y="56" on="0"/>
        <pt x="189" y="-10" on="0"/>
        <pt x="148" y="-10" on="1"/>
        <pt x="30" y="-10" on="0"/>
        <pt x="30" y="150" on="1"/>
        <pt x="30" y="216" on="0"/>
        <pt x="84" y="388" on="0"/>
        <pt x="184" y="513" on="0"/>
        <pt x="252" y="513" on="1"/>
        <pt x="307" y="513" on="0"/>
        <pt x="373" y="480" on="1"/>
        <pt x="405" y="517" on="1"/>
        <pt x="467" y="517" on="1"/>
        <pt x="398" y="80" on="1"/>
        <pt x="469" y="80" on="1"/>
        <pt x="469" y="26" on="1"/>
        <pt x="465" y="24" on="0"/>
        <pt x="435" y="9" on="0"/>
        <pt x="382" y="-5" on="0"/>
        <pt x="351" y="-5" on="1"/>
        <pt x="282" y="-5" on="0"/>
        <pt x="282" y="45" on="1"/>
        <pt x="282" y="71" on="0"/>
        <pt x="301" y="103" on="1"/>
        <pt x="298" y="105" on="1"/>
      </contour>
      <contour>
        <pt x="276" y="440" on="0"/>
        <pt x="224" y="440" on="1"/>
        <pt x="202" y="440" on="0"/>
        <pt x="199" y="434" on="1"/>
        <pt x="174" y="388" on="0"/>
        <pt x="144" y="248" on="0"/>
        <pt x="144" y="171" on="1"/>
        <pt x="144" y="75" on="0"/>
        <pt x="183" y="75" on="1"/>
        <pt x="211" y="75" on="0"/>
        <pt x="275" y="131" on="0"/>
        <pt x="302" y="168" on="1"/>
        <pt x="339" y="384" on="1"/>
      </contour>
    </TTGlyph>
    <TTGlyph name="aacute" xMin="30" yMin="-10" xMax="469" yMax="739">
      <contour>
        <pt x="238" y="591" on="1"/>
        <pt x="384" y="739" on="1"/>
        <pt x="413" y="733" on="0"/>
        <pt x="439" y="702" on="0"/>
        <pt x="439" y="682" on="1"/>
        <pt x="439" y="661" on="0"/>
        <pt x="396" y="626" on="0"/>
        <pt x="364" y="608" on="1"/>
        <pt x="268" y="554" on="1"/>
      </contour>
      <contour>
        <pt x="30" y="-10" on="0"/>
        <pt x="30" y="150" on="1"/>
        <pt x="30" y="216" on="0"/>
        <pt x="84" y="388" on="0"/>
        <pt x="184" y="513" on="0"/>
        <pt x="252" y="513" on="1"/>
        <pt x="285" y="513" on="0"/>
        <pt x="350" y="493" on="0"/>
        <pt x="373" y="480" on="1"/>
        <pt x="405" y="517" on="1"/>
        <pt x="467" y="517" on="1"/>
        <pt x="398" y="80" on="1"/>
        <pt x="469" y="80" on="1"/>
        <pt x="469" y="26" on="1"/>
        <pt x="465" y="24" on="0"/>
        <pt x="435" y="9" on="0"/>
        <pt x="382" y="-5" on="0"/>
        <pt x="351" y="-5" on="1"/>
        <pt x="282" y="-5" on="0"/>
        <pt x="282" y="45" on="1"/>
        <pt x="282" y="71" on="0"/>
        <pt x="301" y="103" on="1"/>
        <pt x="298" y="105" on="1"/>
        <pt x="267" y="56" on="0"/>
        <pt x="189" y="-10" on="0"/>
        <pt x="148" y="-10" on="1"/>
      </contour>
      <contour>
        <pt x="211" y="75" on="0"/>
        <pt x="275" y="131" on="0"/>
        <pt x="302" y="168" on="1"/>
        <pt x="339" y="384" on="1"/>
        <pt x="276" y="440" on="0"/>
        <pt x="224" y="440" on="1"/>
        <pt x="202" y="440" on="0"/>
        <pt x="199" y="434" on="1"/>
        <pt x="174" y="388" on="0"/>
        <pt x="144" y="248" on="0"/>
        <pt x="144" y="171" on="1"/>
        <pt x="144" y="75" on="0"/>
        <pt x="183" y="75" on="1"/>
      </contour>
    </TTGlyph>
    <TTGlyph name="abreve" xMin="30" yMin="-10" xMax="471" yMax="724">
      <contour>
        <pt x="249" y="562" on="0"/>
        <pt x="190" y="598" on="0"/>
        <pt x="159" y="651" on="0"/>
        <pt x="159" y="676" on="1"/>
        <pt x="159" y="694" on="0"/>
        <pt x="170" y="701" on="1"/>
        <pt x="178" y="709" on="0"/>
        <pt x="223" y="724" on="0"/>
        <pt x="233" y="724" on="1"/>
        <pt x="237" y="688" on="0"/>
        <pt x="276" y="641" on="0"/>
        <pt x="315" y="641" on="1"/>
        <pt x="350" y="641" on="0"/>
        <pt x="404" y="677" on="0"/>
        <pt x="437" y="719" on="0"/>
        <pt x="437" y="722" on="1"/>
        <pt x="471" y="705" on="1"/>
        <pt x="471" y="697" on="0"/>
        <pt x="434" y="626" on="0"/>
        <pt x="353" y="562" on="0"/>
        <pt x="289" y="562" on="1"/>
      </contour>
      <contour>
        <pt x="30" y="-10" on="0"/>
        <pt x="30" y="150" on="1"/>
        <pt x="30" y="216" on="0"/>
        <pt x="84" y="388" on="0"/>
        <pt x="184" y="513" on="0"/>
        <pt x="252" y="513" on="1"/>
        <pt x="285" y="513" on="0"/>
        <pt x="350" y="493" on="0"/>
        <pt x="373" y="480" on="1"/>
        <pt x="405" y="517" on="1"/>
        <pt x="467" y="517" on="1"/>
        <pt x="398" y="80" on="1"/>
        <pt x="469" y="80" on="1"/>
        <pt x="469" y="26" on="1"/>
        <pt x="465" y="24" on="0"/>
        <pt x="435" y="9" on="0"/>
        <pt x="382" y="-5" on="0"/>
        <pt x="351" y="-5" on="1"/>
        <pt x="282" y="-5" on="0"/>
        <pt x="282" y="45" on="1"/>
        <pt x="282" y="71" on="0"/>
        <pt x="301" y="103" on="1"/>
        <pt x="298" y="105" on="1"/>
        <pt x="267" y="56" on="0"/>
        <pt x="189" y="-10" on="0"/>
        <pt x="148" y="-10" on="1"/>
      </contour>
      <contour>
        <pt x="211" y="75" on="0"/>
        <pt x="275" y="131" on="0"/>
        <pt x="302" y="168" on="1"/>
        <pt x="339" y="384" on="1"/>
        <pt x="276" y="440" on="0"/>
        <pt x="224" y="440" on="1"/>
        <pt x="202" y="440" on="0"/>
        <pt x="199" y="434" on="1"/>
        <pt x="174" y="388" on="0"/>
        <pt x="144" y="248" on="0"/>
        <pt x="144" y="171" on="1"/>
        <pt x="144" y="75" on="0"/>
        <pt x="183" y="75" on="1"/>
      </contour>
    </TTGlyph>
    <TTGlyph name="acircumflex" xMin="30" yMin="-10" xMax="469" yMax="737">
      <contour>
        <pt x="300" y="629" on="1"/>
        <pt x="181" y="560" on="1"/>
        <pt x="151" y="592" on="1"/>
        <pt x="247" y="685" on="1"/>
        <pt x="274" y="712" on="0"/>
        <pt x="304" y="737" on="0"/>
        <pt x="313" y="737" on="1"/>
        <pt x="324" y="737" on="0"/>
        <pt x="340" y="720" on="0"/>
        <pt x="358" y="697" on="1"/>
        <pt x="436" y="592" on="1"/>
        <pt x="401" y="556" on="1"/>
      </contour>
      <contour>
        <pt x="30" y="-10" on="0"/>
        <pt x="30" y="150" on="1"/>
        <pt x="30" y="216" on="0"/>
        <pt x="84" y="388" on="0"/>
        <pt x="184" y="513" on="0"/>
        <pt x="252" y="513" on="1"/>
        <pt x="285" y="513" on="0"/>
        <pt x="350" y="493" on="0"/>
        <pt x="373" y="480" on="1"/>
        <pt x="405" y="517" on="1"/>
        <pt x="467" y="517" on="1"/>
        <pt x="398" y="80" on="1"/>
        <pt x="469" y="80" on="1"/>
        <pt x="469" y="26" on="1"/>
        <pt x="465" y="24" on="0"/>
        <pt x="435" y="9" on="0"/>
        <pt x="382" y="-5" on="0"/>
        <pt x="351" y="-5" on="1"/>
        <pt x="282" y="-5" on="0"/>
        <pt x="282" y="45" on="1"/>
        <pt x="282" y="71" on="0"/>
        <pt x="301" y="103" on="1"/>
        <pt x="298" y="105" on="1"/>
        <pt x="267" y="56" on="0"/>
        <pt x="189" y="-10" on="0"/>
        <pt x="148" y="-10" on="1"/>
      </contour>
      <contour>
        <pt x="211" y="75" on="0"/>
        <pt x="275" y="131" on="0"/>
        <pt x="302" y="168" on="1"/>
        <pt x="339" y="384" on="1"/>
        <pt x="276" y="440" on="0"/>
        <pt x="224" y="440" on="1"/>
        <pt x="202" y="440" on="0"/>
        <pt x="199" y="434" on="1"/>
        <pt x="174" y="388" on="0"/>
        <pt x="144" y="248" on="0"/>
        <pt x="144" y="171" on="1"/>
        <pt x="144" y="75" on="0"/>
        <pt x="183" y="75" on="1"/>
      </contour>
    </TTGlyph>
    <TTGlyph name="acute" xMin="54" yMin="554" xMax="255" yMax="739">
      <contour>
        <pt x="54" y="591" on="1"/>
        <pt x="200" y="739" on="1"/>
        <pt x="229" y="733" on="0"/>
        <pt x="255" y="702" on="0"/>
        <pt x="255" y="682" on="1"/>
        <pt x="255" y="661" on="0"/>
        <pt x="220" y="631" on="0"/>
        <pt x="180" y="608" on="1"/>
        <pt x="84" y="554" on="1"/>
      </contour>
    </TTGlyph>
    <TTGlyph name="acutecomb" xMin="-148" yMin="554" xMax="53" yMax="739">
      <contour>
        <pt x="-148" y="591" on="1"/>
        <pt x="-2" y="739" on="1"/>
        <pt x="27" y="733" on="0"/>
        <pt x="53" y="702" on="0"/>
        <pt x="53" y="682" on="1"/>
        <pt x="53" y="661" on="0"/>
        <pt x="18" y="631" on="0"/>
        <pt x="-22" y="608" on="1"/>
        <pt x="-118" y="554" on="1"/>
      </contour>
    </TTGlyph>
    <TTGlyph name="acutecomb.case" xMin="-145" yMin="676" xMax="73" yMax="839">
      <contour>
        <pt x="-145" y="720" on="1"/>
        <pt x="36" y="839" on="1"/>
        <pt x="73" y="818" on="0"/>
        <pt x="73" y="779" on="1"/>
        <pt x="73" y="763" on="0"/>
        <pt x="53" y="741" on="0"/>
        <pt x="26" y="731" on="1"/>
        <pt x="-121" y="676" on="1"/>
      </contour>
    </TTGlyph>
    <TTGlyph name="adieresis" xMin="30" yMin="-10" xMax="474" yMax="719">
      <contour>
        <pt x="179" y="582" on="0"/>
        <pt x="147" y="616" on="0"/>
        <pt x="147" y="640" on="1"/>
        <pt x="147" y="671" on="0"/>
        <pt x="184" y="719" on="0"/>
        <pt x="218" y="719" on="1"/>
        <pt x="244" y="719" on="0"/>
        <pt x="277" y="686" on="0"/>
        <pt x="277" y="658" on="1"/>
        <pt x="277" y="628" on="0"/>
        <pt x="238" y="582" on="0"/>
        <pt x="204" y="582" on="1"/>
      </contour>
      <contour>
        <pt x="377" y="582" on="0"/>
        <pt x="344" y="616" on="0"/>
        <pt x="344" y="640" on="1"/>
        <pt x="344" y="671" on="0"/>
        <pt x="382" y="719" on="0"/>
        <pt x="416" y="719" on="1"/>
        <pt x="442" y="719" on="0"/>
        <pt x="474" y="686" on="0"/>
        <pt x="474" y="658" on="1"/>
        <pt x="474" y="628" on="0"/>
        <pt x="436" y="582" on="0"/>
        <pt x="402" y="582" on="1"/>
      </contour>
      <contour>
        <pt x="30" y="-10" on="0"/>
        <pt x="30" y="150" on="1"/>
        <pt x="30" y="216" on="0"/>
        <pt x="84" y="388" on="0"/>
        <pt x="184" y="513" on="0"/>
        <pt x="252" y="513" on="1"/>
        <pt x="285" y="513" on="0"/>
        <pt x="350" y="493" on="0"/>
        <pt x="373" y="480" on="1"/>
        <pt x="405" y="517" on="1"/>
        <pt x="467" y="517" on="1"/>
        <pt x="398" y="80" on="1"/>
        <pt x="469" y="80" on="1"/>
        <pt x="469" y="26" on="1"/>
        <pt x="465" y="24" on="0"/>
        <pt x="435" y="9" on="0"/>
        <pt x="382" y="-5" on="0"/>
        <pt x="351" y="-5" on="1"/>
        <pt x="282" y="-5" on="0"/>
        <pt x="282" y="45" on="1"/>
        <pt x="282" y="71" on="0"/>
        <pt x="301" y="103" on="1"/>
        <pt x="298" y="105" on="1"/>
        <pt x="267" y="56" on="0"/>
        <pt x="189" y="-10" on="0"/>
        <pt x="148" y="-10" on="1"/>
      </contour>
      <contour>
        <pt x="211" y="75" on="0"/>
        <pt x="275" y="131" on="0"/>
        <pt x="302" y="168" on="1"/>
        <pt x="339" y="384" on="1"/>
        <pt x="276" y="440" on="0"/>
        <pt x="224" y="440" on="1"/>
        <pt x="202" y="440" on="0"/>
        <pt x="199" y="434" on="1"/>
        <pt x="174" y="388" on="0"/>
        <pt x="144" y="248" on="0"/>
        <pt x="144" y="171" on="1"/>
        <pt x="144" y="75" on="0"/>
        <pt x="183" y="75" on="1"/>
      </contour>
    </TTGlyph>
    <TTGlyph name="ae" xMin="32" yMin="-10" xMax="654" yMax="513">
      <contour>
        <pt x="516" y="64" on="0"/>
        <pt x="575" y="85" on="0"/>
        <pt x="600" y="102" on="1"/>
        <pt x="621" y="68" on="1"/>
        <pt x="591" y="34" on="0"/>
        <pt x="486" y="-10" on="0"/>
        <pt x="434" y="-10" on="1"/>
        <pt x="367" y="-10" on="0"/>
        <pt x="299" y="37" on="0"/>
        <pt x="289" y="89" on="1"/>
        <pt x="258" y="41" on="0"/>
        <pt x="185" y="-10" on="0"/>
        <pt x="149" y="-10" on="1"/>
        <pt x="32" y="-10" on="0"/>
        <pt x="32" y="150" on="1"/>
        <pt x="32" y="237" on="0"/>
        <pt x="97" y="406" on="0"/>
        <pt x="200" y="513" on="0"/>
        <pt x="253" y="513" on="1"/>
        <pt x="282" y="513" on="0"/>
        <pt x="363" y="488" on="0"/>
        <pt x="403" y="466" on="1"/>
        <pt x="455" y="513" on="0"/>
        <pt x="520" y="513" on="1"/>
        <pt x="579" y="513" on="0"/>
        <pt x="654" y="456" on="0"/>
        <pt x="654" y="410" on="1"/>
        <pt x="654" y="328" on="0"/>
        <pt x="530" y="229" on="0"/>
        <pt x="397" y="207" on="1"/>
        <pt x="397" y="185" on="1"/>
        <pt x="397" y="118" on="0"/>
        <pt x="441" y="64" on="0"/>
        <pt x="494" y="64" on="1"/>
      </contour>
      <contour>
        <pt x="436" y="415" on="0"/>
        <pt x="407" y="308" on="0"/>
        <pt x="402" y="258" on="1"/>
        <pt x="482" y="277" on="0"/>
        <pt x="547" y="336" on="0"/>
        <pt x="547" y="390" on="1"/>
        <pt x="547" y="445" on="0"/>
        <pt x="496" y="445" on="1"/>
        <pt x="481" y="445" on="0"/>
        <pt x="455" y="439" on="0"/>
        <pt x="451" y="434" on="1"/>
      </contour>
      <contour>
        <pt x="288" y="219" on="0"/>
        <pt x="318" y="340" on="0"/>
        <pt x="343" y="387" on="1"/>
        <pt x="312" y="412" on="0"/>
        <pt x="251" y="440" on="0"/>
        <pt x="225" y="440" on="1"/>
        <pt x="204" y="440" on="0"/>
        <pt x="200" y="434" on="1"/>
        <pt x="175" y="385" on="0"/>
        <pt x="146" y="244" on="0"/>
        <pt x="146" y="171" on="1"/>
        <pt x="146" y="75" on="0"/>
        <pt x="184" y="75" on="1"/>
        <pt x="209" y="75" on="0"/>
        <pt x="267" y="123" on="0"/>
        <pt x="286" y="159" on="1"/>
      </contour>
    </TTGlyph>
    <TTGlyph name="aeacute" xMin="32" yMin="-10" xMax="654" yMax="739">
      <component glyphName=".ttfautohint" x="32" y="0" flags="0x0"/>
      <component glyphName="ae" x="0" y="0" flags="0x0"/>
      <component glyphName="acutecomb" x="510" y="0" flags="0x0"/>
    </TTGlyph>
    <TTGlyph name="agrave" xMin="30" yMin="-10" xMax="469" yMax="739">
      <contour>
        <pt x="242" y="626" on="0"/>
        <pt x="199" y="661" on="0"/>
        <pt x="199" y="682" on="1"/>
        <pt x="199" y="702" on="0"/>
        <pt x="225" y="733" on="0"/>
        <pt x="254" y="739" on="1"/>
        <pt x="399" y="591" on="1"/>
        <pt x="370" y="554" on="1"/>
        <pt x="274" y="608" on="1"/>
      </contour>
      <contour>
        <pt x="267" y="56" on="0"/>
        <pt x="189" y="-10" on="0"/>
        <pt x="148" y="-10" on="1"/>
        <pt x="30" y="-10" on="0"/>
        <pt x="30" y="150" on="1"/>
        <pt x="30" y="216" on="0"/>
        <pt x="84" y="388" on="0"/>
        <pt x="184" y="513" on="0"/>
        <pt x="252" y="513" on="1"/>
        <pt x="285" y="513" on="0"/>
        <pt x="350" y="493" on="0"/>
        <pt x="373" y="480" on="1"/>
        <pt x="405" y="517" on="1"/>
        <pt x="467" y="517" on="1"/>
        <pt x="398" y="80" on="1"/>
        <pt x="469" y="80" on="1"/>
        <pt x="469" y="26" on="1"/>
        <pt x="465" y="24" on="0"/>
        <pt x="435" y="9" on="0"/>
        <pt x="382" y="-5" on="0"/>
        <pt x="351" y="-5" on="1"/>
        <pt x="282" y="-5" on="0"/>
        <pt x="282" y="45" on="1"/>
        <pt x="282" y="71" on="0"/>
        <pt x="301" y="103" on="1"/>
        <pt x="298" y="105" on="1"/>
      </contour>
      <contour>
        <pt x="276" y="440" on="0"/>
        <pt x="224" y="440" on="1"/>
        <pt x="202" y="440" on="0"/>
        <pt x="199" y="434" on="1"/>
        <pt x="174" y="388" on="0"/>
        <pt x="144" y="248" on="0"/>
        <pt x="144" y="171" on="1"/>
        <pt x="144" y="75" on="0"/>
        <pt x="183" y="75" on="1"/>
        <pt x="211" y="75" on="0"/>
        <pt x="275" y="131" on="0"/>
        <pt x="302" y="168" on="1"/>
        <pt x="339" y="384" on="1"/>
      </contour>
    </TTGlyph>
    <TTGlyph name="amacron" xMin="30" yMin="-10" xMax="469" yMax="685">
      <contour>
        <pt x="468" y="685" on="1"/>
        <pt x="459" y="609" on="1"/>
        <pt x="145" y="609" on="1"/>
        <pt x="155" y="685" on="1"/>
      </contour>
      <contour>
        <pt x="267" y="56" on="0"/>
        <pt x="189" y="-10" on="0"/>
        <pt x="148" y="-10" on="1"/>
        <pt x="30" y="-10" on="0"/>
        <pt x="30" y="150" on="1"/>
        <pt x="30" y="216" on="0"/>
        <pt x="84" y="388" on="0"/>
        <pt x="184" y="513" on="0"/>
        <pt x="252" y="513" on="1"/>
        <pt x="285" y="513" on="0"/>
        <pt x="350" y="493" on="0"/>
        <pt x="373" y="480" on="1"/>
        <pt x="405" y="517" on="1"/>
        <pt x="467" y="517" on="1"/>
        <pt x="398" y="80" on="1"/>
        <pt x="469" y="80" on="1"/>
        <pt x="469" y="26" on="1"/>
        <pt x="465" y="24" on="0"/>
        <pt x="435" y="9" on="0"/>
        <pt x="382" y="-5" on="0"/>
        <pt x="351" y="-5" on="1"/>
        <pt x="282" y="-5" on="0"/>
        <pt x="282" y="45" on="1"/>
        <pt x="282" y="71" on="0"/>
        <pt x="301" y="103" on="1"/>
        <pt x="298" y="105" on="1"/>
      </contour>
      <contour>
        <pt x="276" y="440" on="0"/>
        <pt x="224" y="440" on="1"/>
        <pt x="202" y="440" on="0"/>
        <pt x="199" y="434" on="1"/>
        <pt x="174" y="388" on="0"/>
        <pt x="144" y="248" on="0"/>
        <pt x="144" y="171" on="1"/>
        <pt x="144" y="75" on="0"/>
        <pt x="183" y="75" on="1"/>
        <pt x="211" y="75" on="0"/>
        <pt x="275" y="131" on="0"/>
        <pt x="302" y="168" on="1"/>
        <pt x="339" y="384" on="1"/>
      </contour>
    </TTGlyph>
    <TTGlyph name="ampersand" xMin="19" yMin="-108" xMax="669" yMax="650">
      <contour>
        <pt x="669" y="413" on="1"/>
        <pt x="623" y="361" on="1"/>
        <pt x="595" y="327" on="0"/>
        <pt x="552" y="327" on="1"/>
        <pt x="536" y="327" on="0"/>
        <pt x="520" y="331" on="1"/>
        <pt x="520" y="318" on="1"/>
        <pt x="518" y="209" on="0"/>
        <pt x="465" y="124" on="1"/>
        <pt x="498" y="84" on="1"/>
        <pt x="511" y="67" on="0"/>
        <pt x="521" y="40" on="0"/>
        <pt x="521" y="24" on="1"/>
        <pt x="517" y="-19" on="1"/>
        <pt x="505" y="-108" on="1"/>
        <pt x="448" y="-108" on="1"/>
        <pt x="441" y="-15" on="1"/>
        <pt x="392" y="45" on="1"/>
        <pt x="319" y="-11" on="0"/>
        <pt x="216" y="-11" on="1"/>
        <pt x="119" y="-11" on="0"/>
        <pt x="19" y="62" on="0"/>
        <pt x="19" y="132" on="1"/>
        <pt x="19" y="191" on="0"/>
        <pt x="94" y="301" on="0"/>
        <pt x="155" y="332" on="1"/>
        <pt x="118" y="381" on="0"/>
        <pt x="93" y="438" on="0"/>
        <pt x="93" y="473" on="1"/>
        <pt x="93" y="521" on="0"/>
        <pt x="145" y="603" on="0"/>
        <pt x="234" y="650" on="0"/>
        <pt x="287" y="650" on="1"/>
        <pt x="361" y="650" on="0"/>
        <pt x="448" y="580" on="0"/>
        <pt x="448" y="521" on="1"/>
        <pt x="448" y="473" on="0"/>
        <pt x="426" y="438" on="1"/>
        <pt x="437" y="436" on="0"/>
        <pt x="457" y="431" on="0"/>
        <pt x="465" y="429" on="1"/>
        <pt x="565" y="407" on="1"/>
        <pt x="645" y="445" on="1"/>
      </contour>
      <contour>
        <pt x="438" y="228" on="0"/>
        <pt x="438" y="293" on="1"/>
        <pt x="438" y="326" on="0"/>
        <pt x="436" y="353" on="1"/>
        <pt x="385" y="368" on="1"/>
        <pt x="309" y="333" on="1"/>
        <pt x="283" y="365" on="1"/>
        <pt x="318" y="402" on="0"/>
        <pt x="348" y="443" on="0"/>
        <pt x="358" y="480" on="0"/>
        <pt x="358" y="511" on="1"/>
        <pt x="358" y="591" on="0"/>
        <pt x="277" y="591" on="1"/>
        <pt x="237" y="591" on="0"/>
        <pt x="190" y="546" on="0"/>
        <pt x="190" y="508" on="1"/>
        <pt x="190" y="484" on="0"/>
        <pt x="213" y="434" on="0"/>
        <pt x="239" y="402" on="1"/>
        <pt x="419" y="180" on="1"/>
      </contour>
      <contour>
        <pt x="304" y="50" on="0"/>
        <pt x="355" y="90" on="1"/>
        <pt x="186" y="295" on="1"/>
        <pt x="159" y="272" on="0"/>
        <pt x="127" y="200" on="0"/>
        <pt x="127" y="161" on="1"/>
        <pt x="127" y="50" on="0"/>
        <pt x="238" y="50" on="1"/>
      </contour>
    </TTGlyph>
    <TTGlyph name="aogonek" xMin="30" yMin="-183" xMax="484" yMax="517">
      <contour>
        <pt x="484" y="-133" on="1"/>
        <pt x="484" y="-135" on="0"/>
        <pt x="453" y="-161" on="0"/>
        <pt x="405" y="-183" on="0"/>
        <pt x="376" y="-183" on="1"/>
        <pt x="336" y="-183" on="0"/>
        <pt x="287" y="-150" on="0"/>
        <pt x="287" y="-115" on="1"/>
        <pt x="287" y="-81" on="0"/>
        <pt x="327" y="-26" on="0"/>
        <pt x="359" y="-5" on="1"/>
        <pt x="352" y="-5" on="1"/>
        <pt x="282" y="-5" on="0"/>
        <pt x="282" y="45" on="1"/>
        <pt x="282" y="71" on="0"/>
        <pt x="301" y="103" on="1"/>
        <pt x="298" y="105" on="1"/>
        <pt x="267" y="56" on="0"/>
        <pt x="189" y="-10" on="0"/>
        <pt x="148" y="-10" on="1"/>
        <pt x="30" y="-10" on="0"/>
        <pt x="30" y="150" on="1"/>
        <pt x="30" y="216" on="0"/>
        <pt x="84" y="388" on="0"/>
        <pt x="184" y="513" on="0"/>
        <pt x="252" y="513" on="1"/>
        <pt x="285" y="513" on="0"/>
        <pt x="350" y="493" on="0"/>
        <pt x="373" y="480" on="1"/>
        <pt x="405" y="517" on="1"/>
        <pt x="467" y="517" on="1"/>
        <pt x="398" y="80" on="1"/>
        <pt x="469" y="80" on="1"/>
        <pt x="469" y="26" on="1"/>
        <pt x="444" y="13" on="1"/>
        <pt x="422" y="2" on="0"/>
        <pt x="371" y="-51" on="0"/>
        <pt x="371" y="-85" on="1"/>
        <pt x="371" y="-121" on="0"/>
        <pt x="409" y="-121" on="1"/>
        <pt x="433" y="-121" on="0"/>
        <pt x="463" y="-101" on="1"/>
      </contour>
      <contour>
        <pt x="339" y="384" on="1"/>
        <pt x="276" y="440" on="0"/>
        <pt x="224" y="440" on="1"/>
        <pt x="202" y="440" on="0"/>
        <pt x="199" y="434" on="1"/>
        <pt x="174" y="388" on="0"/>
        <pt x="144" y="248" on="0"/>
        <pt x="144" y="171" on="1"/>
        <pt x="144" y="75" on="0"/>
        <pt x="183" y="75" on="1"/>
        <pt x="211" y="75" on="0"/>
        <pt x="275" y="131" on="0"/>
        <pt x="302" y="168" on="1"/>
      </contour>
    </TTGlyph>
    <TTGlyph name="approxequal" xMin="70" yMin="139" xMax="467" yMax="392">
      <contour>
        <pt x="334" y="289" on="0"/>
        <pt x="269" y="303" on="1"/>
        <pt x="162" y="321" on="1"/>
        <pt x="94" y="291" on="1"/>
        <pt x="70" y="321" on="1"/>
        <pt x="108" y="361" on="1"/>
        <pt x="139" y="392" on="0"/>
        <pt x="170" y="392" on="1"/>
        <pt x="205" y="392" on="0"/>
        <pt x="255" y="382" on="1"/>
        <pt x="375" y="359" on="1"/>
        <pt x="444" y="390" on="1"/>
        <pt x="467" y="360" on="1"/>
        <pt x="428" y="319" on="1"/>
        <pt x="397" y="289" on="0"/>
        <pt x="367" y="289" on="1"/>
      </contour>
      <contour>
        <pt x="334" y="139" on="0"/>
        <pt x="269" y="153" on="1"/>
        <pt x="162" y="172" on="1"/>
        <pt x="94" y="142" on="1"/>
        <pt x="70" y="172" on="1"/>
        <pt x="108" y="212" on="1"/>
        <pt x="139" y="243" on="0"/>
        <pt x="170" y="243" on="1"/>
        <pt x="193" y="243" on="0"/>
        <pt x="255" y="233" on="1"/>
        <pt x="375" y="210" on="1"/>
        <pt x="444" y="241" on="1"/>
        <pt x="467" y="210" on="1"/>
        <pt x="428" y="170" on="1"/>
        <pt x="397" y="139" on="0"/>
        <pt x="367" y="139" on="1"/>
      </contour>
    </TTGlyph>
</ttFont>
